<?xml version="1.0" encoding="utf-8" standalone="no"?>
<!DOCTYPE svg PUBLIC "-//W3C//DTD SVG 1.1//EN"
  "http://www.w3.org/Graphics/SVG/1.1/DTD/svg11.dtd">
<svg xmlns:xlink="http://www.w3.org/1999/xlink" width="230.21168pt" height="131.93493pt" viewBox="0 0 230.21168 131.93493" xmlns="http://www.w3.org/2000/svg" version="1.1">
 <metadata>
  <rdf:RDF xmlns:dc="http://purl.org/dc/elements/1.1/" xmlns:cc="http://creativecommons.org/ns#" xmlns:rdf="http://www.w3.org/1999/02/22-rdf-syntax-ns#">
   <cc:Work>
    <dc:type rdf:resource="http://purl.org/dc/dcmitype/StillImage"/>
    <dc:date>2024-01-29T20:59:04.843041</dc:date>
    <dc:format>image/svg+xml</dc:format>
    <dc:creator>
     <cc:Agent>
      <dc:title>Matplotlib v3.8.2, https://matplotlib.org/</dc:title>
     </cc:Agent>
    </dc:creator>
   </cc:Work>
  </rdf:RDF>
 </metadata>
 <defs>
  <style type="text/css">*{stroke-linejoin: round; stroke-linecap: butt}</style>
 </defs>
 <g id="figure_1">
  <g id="patch_1">
   <path d="M -0 131.93493 
L 230.21168 131.93493 
L 230.21168 0 
L -0 0 
z
" style="fill: #ffffff"/>
  </g>
  <g id="axes_1">
   <g id="patch_2">
    <path d="M 61.775958 27.695 
L 36.753822 38.059508 
L 26.389315 63.081643 
L 36.753822 88.103779 
L 61.775958 98.468287 
L 86.798093 88.103779 
L 97.162601 63.081643 
L 86.798093 38.059508 
z
" style="fill: #ffffff"/>
   </g>
   <g id="matplotlib.axis_1">
    <g id="xtick_1">
     <g id="line2d_1">
      <path d="M 61.775958 63.081643 
L 61.775958 58.658313 
L 61.775958 54.234982 
L 61.775958 49.811652 
L 61.775958 45.388322 
L 61.775958 40.964991 
L 61.775958 36.541661 
L 61.775958 32.11833 
L 61.775958 27.695 
" clip-path="url(#p8638c3109a)" style="fill: none; stroke: #b0b0b0; stroke-width: 0.8; stroke-linecap: square"/>
     </g>
     <g id="text_1">
      <!-- abortion -->
      <g transform="translate(50.501583 15.396562) scale(0.06 -0.06)">
       <defs>
        <path id="Times-61" d="M 3097 519 
L 3169 448 
Q 2750 -64 2400 -64 
Q 2239 -64 2127 87 
Q 2016 238 2016 498 
Q 1438 -64 909 -64 
Q 706 -64 550 47 
Q 394 159 309 338 
Q 224 517 224 705 
Q 224 1064 464 1311 
Q 705 1559 1058 1714 
Q 1411 1870 2016 2073 
L 2016 2495 
Q 2016 2797 1852 2960 
Q 1689 3123 1408 3123 
Q 1175 3123 1039 2993 
Q 903 2864 903 2681 
Q 903 2616 912 2577 
Q 922 2538 922 2470 
Q 922 2325 830 2257 
Q 739 2189 627 2189 
Q 506 2189 432 2283 
Q 358 2377 358 2509 
Q 358 2747 528 2932 
Q 699 3117 972 3216 
Q 1245 3316 1536 3316 
Q 2592 3316 2592 2464 
L 2592 513 
Q 2592 448 2638 396 
Q 2684 345 2764 345 
Q 2938 345 3097 519 
z
M 2016 666 
L 2016 1875 
Q 1603 1725 1373 1622 
Q 1144 1519 962 1334 
Q 781 1150 781 889 
Q 781 666 907 490 
Q 1034 314 1313 314 
Q 1406 314 1588 387 
Q 1770 461 2016 666 
z
" transform="scale(0.015625)"/>
        <path id="Times-62" d="M -89 4422 
L 999 4839 
L 999 2675 
Q 1408 3316 1972 3316 
Q 2334 3316 2621 3105 
Q 2908 2895 3066 2533 
Q 3225 2172 3225 1734 
Q 3225 1200 2990 787 
Q 2755 375 2372 152 
Q 1989 -70 1569 -70 
Q 1008 -70 422 378 
L 422 3891 
Q 422 4378 166 4378 
Q 44 4378 -58 4333 
L -89 4422 
z
M 999 2388 
L 999 570 
Q 1114 389 1312 281 
Q 1511 173 1709 173 
Q 1983 173 2198 369 
Q 2413 566 2531 884 
Q 2650 1203 2650 1555 
Q 2650 1942 2522 2230 
Q 2394 2519 2179 2670 
Q 1964 2822 1716 2822 
Q 1494 2822 1304 2698 
Q 1114 2575 999 2388 
z
" transform="scale(0.015625)"/>
        <path id="Times-6f" d="M 1811 -64 
Q 1405 -64 1101 87 
Q 797 239 602 490 
Q 408 742 316 1036 
Q 224 1331 224 1619 
Q 224 1956 339 2265 
Q 455 2575 668 2811 
Q 881 3048 1172 3182 
Q 1464 3316 1811 3316 
Q 2284 3316 2645 3094 
Q 3006 2872 3202 2485 
Q 3399 2098 3399 1625 
Q 3399 1113 3170 727 
Q 2941 342 2573 139 
Q 2205 -64 1811 -64 
z
M 889 1664 
Q 889 1330 1009 984 
Q 1130 639 1366 409 
Q 1602 180 1920 180 
Q 2733 180 2733 1664 
Q 2733 1989 2605 2317 
Q 2478 2645 2237 2858 
Q 1997 3072 1683 3072 
Q 1250 3072 1069 2658 
Q 889 2244 889 1664 
z
" transform="scale(0.015625)"/>
        <path id="Times-72" d="M 1274 3322 
L 1274 2720 
Q 1417 2963 1625 3139 
Q 1834 3316 2061 3316 
Q 2203 3316 2349 3235 
Q 2495 3155 2495 2950 
Q 2495 2816 2420 2713 
Q 2345 2611 2202 2611 
Q 2058 2611 1933 2745 
Q 1834 2855 1709 2855 
Q 1520 2855 1274 2464 
L 1274 627 
Q 1274 463 1299 355 
Q 1325 247 1440 168 
Q 1556 89 1799 89 
L 1881 89 
L 1881 0 
L 134 0 
L 134 89 
L 211 89 
Q 527 89 612 233 
Q 697 378 697 627 
L 697 2381 
Q 697 2867 442 2867 
Q 314 2867 217 2822 
L 186 2906 
L 1274 3322 
z
" transform="scale(0.015625)"/>
        <path id="Times-74" d="M 1114 3252 
L 1817 3252 
L 1817 3008 
L 1114 3008 
L 1114 966 
Q 1114 677 1201 495 
Q 1288 314 1549 314 
Q 1783 314 2016 589 
L 2080 531 
Q 1631 -64 1191 -64 
Q 927 -64 783 54 
Q 639 172 588 373 
Q 538 575 538 864 
L 538 3008 
L 45 3008 
L 45 3136 
Q 163 3178 345 3286 
Q 528 3395 728 3626 
Q 928 3858 1024 4205 
L 1114 4205 
L 1114 3252 
z
" transform="scale(0.015625)"/>
        <path id="Times-69" d="M 1274 3328 
L 1274 627 
Q 1274 377 1361 233 
Q 1449 89 1766 89 
L 1838 89 
L 1838 0 
L 134 0 
L 134 89 
L 205 89 
Q 522 89 609 233 
Q 697 377 697 627 
L 697 2381 
Q 697 2867 442 2867 
Q 306 2867 217 2822 
L 186 2906 
L 1274 3328 
z
M 602 4391 
Q 602 4538 710 4643 
Q 819 4748 959 4748 
Q 1102 4748 1210 4643 
Q 1319 4538 1319 4391 
Q 1319 4248 1209 4139 
Q 1099 4031 959 4031 
Q 813 4031 707 4140 
Q 602 4250 602 4391 
z
" transform="scale(0.015625)"/>
        <path id="Times-6e" d="M 1274 3328 
L 1274 2598 
Q 1670 3042 1915 3179 
Q 2161 3316 2406 3316 
Q 2653 3316 2835 3196 
Q 3017 3077 3115 2852 
Q 3213 2628 3213 2330 
L 3213 627 
Q 3213 463 3237 355 
Q 3261 247 3367 168 
Q 3474 89 3699 89 
L 3777 89 
L 3777 0 
L 2163 0 
L 2163 89 
L 2227 89 
Q 2494 89 2566 235 
Q 2638 381 2638 627 
L 2638 2266 
Q 2638 2661 2488 2776 
Q 2339 2892 2125 2892 
Q 1722 2892 1274 2425 
L 1274 627 
Q 1274 378 1353 233 
Q 1433 89 1728 89 
L 1799 89 
L 1799 0 
L 134 0 
L 134 89 
L 205 89 
Q 522 89 609 234 
Q 697 380 697 627 
L 697 2381 
Q 697 2867 442 2867 
Q 314 2867 217 2822 
L 186 2906 
L 1274 3328 
z
" transform="scale(0.015625)"/>
       </defs>
       <use xlink:href="#Times-61"/>
       <use xlink:href="#Times-62" x="49.511719"/>
       <use xlink:href="#Times-6f" x="103.417969"/>
       <use xlink:href="#Times-72" x="160.009766"/>
       <use xlink:href="#Times-74" x="197.607422"/>
       <use xlink:href="#Times-69" x="230.810547"/>
       <use xlink:href="#Times-6f" x="260.205078"/>
       <use xlink:href="#Times-6e" x="316.796875"/>
      </g>
     </g>
    </g>
    <g id="xtick_2">
     <g id="line2d_2">
      <path d="M 61.775958 63.081643 
L 58.648191 59.953876 
L 55.520424 56.826109 
L 52.392657 53.698342 
L 49.26489 50.570576 
L 46.137123 47.442809 
L 43.009356 44.315042 
L 39.881589 41.187275 
L 36.753822 38.059508 
" clip-path="url(#p8638c3109a)" style="fill: none; stroke: #b0b0b0; stroke-width: 0.8; stroke-linecap: square"/>
     </g>
     <g id="text_2">
      <!-- divorce -->
      <g transform="translate(17.029328 29.861575) scale(0.06 -0.06)">
       <defs>
        <path id="Times-64" d="M 1902 4364 
L 3059 4839 
L 3059 889 
Q 3059 403 3295 403 
Q 3420 403 3545 455 
L 3572 372 
L 2483 -58 
L 2483 428 
Q 2233 150 1952 43 
Q 1672 -64 1447 -64 
Q 1128 -64 846 137 
Q 564 338 394 713 
Q 224 1088 224 1575 
Q 224 1936 345 2257 
Q 466 2578 675 2815 
Q 884 3052 1155 3184 
Q 1427 3316 1722 3316 
Q 2142 3316 2483 3066 
L 2483 3930 
Q 2483 4345 2220 4345 
Q 2070 4345 1933 4281 
L 1902 4364 
z
M 2483 697 
L 2483 2406 
Q 2483 2714 2256 2899 
Q 2030 3084 1728 3084 
Q 1483 3084 1280 2916 
Q 1077 2748 958 2442 
Q 839 2136 839 1741 
Q 839 1423 944 1114 
Q 1049 806 1270 604 
Q 1491 403 1817 403 
Q 2222 403 2483 697 
z
" transform="scale(0.015625)"/>
        <path id="Times-76" d="M 1549 -64 
L 428 2745 
Q 267 3148 -89 3155 
L -89 3252 
L 1331 3252 
L 1331 3155 
Q 1134 3138 1060 3098 
Q 986 3058 986 2919 
Q 986 2861 1024 2745 
L 1734 966 
L 2439 2778 
Q 2483 2892 2483 2977 
Q 2483 3155 2247 3155 
L 2177 3155 
L 2177 3252 
L 3111 3252 
L 3111 3155 
Q 2950 3133 2877 3052 
Q 2805 2972 2733 2784 
L 1619 -64 
L 1549 -64 
z
" transform="scale(0.015625)"/>
        <path id="Times-63" d="M 2842 1228 
L 2970 1191 
Q 2800 548 2457 242 
Q 2114 -64 1619 -64 
Q 1239 -64 919 142 
Q 600 348 412 734 
Q 224 1120 224 1631 
Q 224 1967 332 2273 
Q 441 2580 645 2815 
Q 849 3050 1131 3183 
Q 1414 3316 1759 3316 
Q 2033 3316 2279 3224 
Q 2525 3133 2673 2973 
Q 2822 2813 2822 2617 
Q 2822 2431 2731 2348 
Q 2641 2266 2522 2266 
Q 2216 2266 2170 2617 
Q 2141 2842 2045 2969 
Q 1949 3097 1683 3097 
Q 1445 3097 1243 2954 
Q 1042 2811 924 2526 
Q 806 2241 806 1844 
Q 806 1417 944 1108 
Q 1083 800 1328 643 
Q 1574 486 1888 486 
Q 2122 486 2317 587 
Q 2513 689 2647 859 
Q 2781 1030 2842 1228 
z
" transform="scale(0.015625)"/>
        <path id="Times-65" d="M 2797 2028 
L 724 2028 
Q 724 1581 852 1225 
Q 981 869 1223 665 
Q 1466 461 1786 461 
Q 2008 461 2208 566 
Q 2409 672 2561 855 
Q 2713 1038 2797 1267 
L 2906 1228 
Q 2781 848 2599 560 
Q 2417 272 2150 104 
Q 1883 -64 1530 -64 
Q 1213 -64 966 82 
Q 720 228 555 477 
Q 391 727 307 1038 
Q 224 1350 224 1683 
Q 224 2119 391 2495 
Q 559 2872 875 3094 
Q 1191 3316 1606 3316 
Q 2011 3316 2279 3130 
Q 2547 2944 2672 2650 
Q 2797 2356 2797 2028 
z
M 736 2247 
L 2092 2247 
Q 2092 2450 2019 2636 
Q 1947 2823 1796 2941 
Q 1645 3059 1420 3059 
Q 1086 3059 930 2807 
Q 774 2555 736 2247 
z
" transform="scale(0.015625)"/>
       </defs>
       <use xlink:href="#Times-64"/>
       <use xlink:href="#Times-69" x="56.494141"/>
       <use xlink:href="#Times-76" x="85.888672"/>
       <use xlink:href="#Times-6f" x="134.49707"/>
       <use xlink:href="#Times-72" x="191.088867"/>
       <use xlink:href="#Times-63" x="228.686523"/>
       <use xlink:href="#Times-65" x="278.588867"/>
      </g>
     </g>
    </g>
    <g id="xtick_3">
     <g id="line2d_3">
      <path d="M 61.775958 63.081643 
L 57.352627 63.081643 
L 52.929297 63.081643 
L 48.505967 63.081643 
L 44.082636 63.081643 
L 39.659306 63.081643 
L 35.235975 63.081643 
L 30.812645 63.081643 
L 26.389315 63.081643 
" clip-path="url(#p8638c3109a)" style="fill: none; stroke: #b0b0b0; stroke-width: 0.8; stroke-linecap: square"/>
     </g>
     <g id="text_3">
      <!-- $$$ -->
      <g transform="translate(7.36619 64.783206) scale(0.06 -0.06)">
       <defs>
        <path id="Times-24" d="M 499 256 
L 499 1228 
L 570 1228 
Q 631 880 870 559 
Q 1109 239 1606 180 
L 1606 2272 
Q 492 2867 492 3731 
Q 492 4039 647 4279 
Q 802 4519 1059 4654 
Q 1317 4789 1606 4806 
L 1606 5178 
L 1844 5178 
L 1844 4806 
Q 2499 4769 2944 4467 
L 2983 3456 
L 2880 3456 
Q 2853 3748 2721 4006 
Q 2589 4264 2361 4422 
Q 2133 4581 1844 4583 
L 1844 2848 
Q 2497 2448 2833 2093 
Q 3169 1739 3169 1209 
Q 3169 856 2986 573 
Q 2803 291 2500 125 
Q 2197 -41 1844 -64 
L 1844 -498 
L 1606 -498 
L 1606 -64 
Q 949 -16 499 256 
z
M 1844 2125 
L 1844 180 
Q 2139 214 2397 409 
Q 2656 605 2656 1038 
Q 2656 1214 2594 1375 
Q 2533 1536 2352 1725 
Q 2172 1914 1844 2125 
z
M 1606 2995 
L 1606 4583 
Q 1356 4552 1183 4373 
Q 1011 4194 1011 3872 
Q 1011 3356 1606 2995 
z
" transform="scale(0.015625)"/>
       </defs>
       <use xlink:href="#Times-24"/>
       <use xlink:href="#Times-24" x="55.810547"/>
       <use xlink:href="#Times-24" x="111.621094"/>
      </g>
     </g>
    </g>
    <g id="xtick_4">
     <g id="line2d_4">
      <path d="M 61.775958 63.081643 
L 58.648191 66.20941 
L 55.520424 69.337177 
L 52.392657 72.464944 
L 49.26489 75.592711 
L 46.137123 78.720478 
L 43.009356 81.848245 
L 39.881589 84.976012 
L 36.753822 88.103779 
" clip-path="url(#p8638c3109a)" style="fill: none; stroke: #b0b0b0; stroke-width: 0.8; stroke-linecap: square"/>
     </g>
     <g id="text_4">
      <!-- university -->
      <g transform="translate(13.902765 99.692649) scale(0.06 -0.06)">
       <defs>
        <path id="Times-75" d="M 3078 3252 
L 3078 889 
Q 3078 688 3122 545 
Q 3167 403 3334 403 
Q 3461 403 3558 448 
L 3591 364 
L 2503 -58 
L 2503 653 
Q 2263 369 2066 212 
Q 1870 55 1706 -4 
Q 1542 -64 1363 -64 
Q 563 -64 563 922 
L 563 2623 
Q 563 2875 475 3018 
Q 388 3161 70 3161 
L 0 3161 
L 0 3252 
L 1139 3252 
L 1139 986 
Q 1139 686 1234 522 
Q 1330 358 1652 358 
Q 1859 358 2086 490 
Q 2313 622 2503 825 
L 2503 2623 
Q 2503 2902 2419 3031 
Q 2336 3161 2055 3161 
L 1984 3161 
L 1984 3252 
L 3078 3252 
z
" transform="scale(0.015625)"/>
        <path id="Times-73" d="M 2113 3206 
L 2131 2247 
L 2036 2247 
Q 2014 2519 1893 2711 
Q 1772 2903 1590 3000 
Q 1408 3097 1209 3097 
Q 977 3097 815 2967 
Q 653 2838 653 2623 
Q 653 2503 701 2410 
Q 749 2317 829 2249 
Q 909 2181 1024 2118 
Q 1139 2055 1267 1984 
Q 1633 1780 1848 1625 
Q 2063 1470 2196 1257 
Q 2330 1044 2330 755 
Q 2330 370 2012 156 
Q 1695 -58 1274 -58 
Q 1153 -58 788 31 
Q 609 83 556 83 
Q 419 83 372 -13 
L 263 -13 
L 244 1139 
L 339 1139 
Q 391 781 609 467 
Q 828 153 1274 153 
Q 1570 153 1700 297 
Q 1830 442 1830 608 
Q 1830 847 1660 1011 
Q 1491 1175 1216 1325 
Q 830 1542 728 1603 
Q 627 1664 496 1783 
Q 366 1902 295 2058 
Q 224 2214 224 2425 
Q 224 2655 348 2859 
Q 472 3063 694 3189 
Q 916 3316 1184 3316 
Q 1411 3316 1520 3284 
Q 1630 3253 1741 3200 
Q 1853 3148 1933 3148 
Q 1967 3148 2049 3206 
L 2113 3206 
z
" transform="scale(0.015625)"/>
        <path id="Times-79" d="M -25 3252 
L 1414 3252 
L 1414 3161 
Q 1044 3161 1044 2925 
Q 1044 2861 1081 2764 
L 1875 794 
L 2509 2559 
Q 2574 2759 2574 2906 
Q 2574 3038 2467 3099 
Q 2361 3161 2272 3161 
L 2177 3161 
L 2177 3252 
L 3309 3252 
L 3309 3161 
Q 3111 3148 3009 3011 
Q 2908 2875 2828 2663 
L 1766 -198 
Q 1588 -684 1333 -953 
Q 1078 -1222 691 -1222 
Q 481 -1222 365 -1120 
Q 250 -1019 250 -877 
Q 250 -747 356 -648 
Q 463 -550 620 -550 
Q 720 -550 864 -614 
Q 1002 -678 1094 -678 
Q 1266 -678 1384 -486 
Q 1503 -294 1606 -6 
L 442 2764 
Q 388 2905 268 3033 
Q 149 3161 -25 3161 
L -25 3252 
z
" transform="scale(0.015625)"/>
       </defs>
       <use xlink:href="#Times-75"/>
       <use xlink:href="#Times-6e" x="56.811523"/>
       <use xlink:href="#Times-69" x="115.820312"/>
       <use xlink:href="#Times-76" x="145.214844"/>
       <use xlink:href="#Times-65" x="193.823242"/>
       <use xlink:href="#Times-72" x="242.724609"/>
       <use xlink:href="#Times-73" x="280.322266"/>
       <use xlink:href="#Times-69" x="318.823242"/>
       <use xlink:href="#Times-74" x="348.217773"/>
       <use xlink:href="#Times-79" x="381.420898"/>
      </g>
     </g>
    </g>
    <g id="xtick_5">
     <g id="line2d_5">
      <path d="M 61.775958 63.081643 
L 61.775958 67.504974 
L 61.775958 71.928304 
L 61.775958 76.351635 
L 61.775958 80.774965 
L 61.775958 85.198295 
L 61.775958 89.621626 
L 61.775958 94.044956 
L 61.775958 98.468287 
" clip-path="url(#p8638c3109a)" style="fill: none; stroke: #b0b0b0; stroke-width: 0.8; stroke-linecap: square"/>
     </g>
     <g id="text_5">
      <!-- women movement -->
      <g transform="translate(36.759708 114.169849) scale(0.06 -0.06)">
       <defs>
        <path id="Times-77" d="M 1453 -64 
L 403 2708 
Q 239 3148 -89 3155 
L -89 3252 
L 1255 3252 
L 1255 3155 
Q 1091 3142 1022 3104 
Q 953 3067 953 2931 
Q 953 2833 1011 2675 
L 1639 966 
L 2247 2342 
L 2092 2745 
Q 1944 3144 1606 3155 
L 1606 3252 
L 2989 3252 
L 2989 3155 
L 2919 3155 
Q 2800 3155 2725 3094 
Q 2650 3033 2650 2925 
Q 2650 2856 2702 2708 
L 3341 966 
L 3969 2714 
Q 4025 2886 4025 2983 
Q 4025 3155 3808 3155 
L 3731 3155 
L 3731 3252 
L 4666 3252 
L 4666 3155 
Q 4488 3119 4419 3019 
Q 4350 2920 4269 2714 
L 3231 -64 
L 3155 -64 
L 2381 1991 
L 1530 -64 
L 1453 -64 
z
" transform="scale(0.015625)"/>
        <path id="Times-6d" d="M 1274 3328 
L 1274 2688 
Q 1516 2909 1692 3042 
Q 1869 3175 2034 3245 
Q 2200 3316 2375 3316 
Q 2669 3316 2893 3145 
Q 3117 2975 3161 2638 
Q 3519 2992 3758 3154 
Q 3997 3316 4238 3316 
Q 4622 3316 4817 3134 
Q 5013 2952 5063 2734 
Q 5114 2517 5114 2311 
L 5114 627 
Q 5114 377 5201 233 
Q 5289 89 5606 89 
L 5677 89 
L 5677 0 
L 4058 0 
L 4058 89 
L 4122 89 
Q 4394 89 4466 235 
Q 4538 381 4538 627 
L 4538 2291 
Q 4538 2609 4414 2750 
Q 4291 2892 4019 2892 
Q 3830 2892 3598 2758 
Q 3367 2625 3194 2452 
L 3194 627 
Q 3194 381 3266 235 
Q 3339 89 3609 89 
L 3674 89 
L 3674 0 
L 2144 0 
L 2144 89 
L 2202 89 
Q 2474 89 2545 235 
Q 2617 381 2617 627 
L 2617 2297 
Q 2617 2892 2080 2892 
Q 1891 2892 1671 2764 
Q 1452 2636 1274 2458 
L 1274 627 
Q 1274 356 1359 222 
Q 1444 89 1722 89 
L 1792 89 
L 1792 0 
L 134 0 
L 134 89 
L 205 89 
Q 522 89 609 233 
Q 697 377 697 627 
L 697 2381 
Q 697 2613 645 2740 
Q 594 2867 442 2867 
Q 314 2867 217 2822 
L 186 2906 
L 1274 3328 
z
" transform="scale(0.015625)"/>
        <path id="Times-20" transform="scale(0.015625)"/>
       </defs>
       <use xlink:href="#Times-77"/>
       <use xlink:href="#Times-6f" x="72.900391"/>
       <use xlink:href="#Times-6d" x="129.492188"/>
       <use xlink:href="#Times-65" x="218.188477"/>
       <use xlink:href="#Times-6e" x="267.089844"/>
       <use xlink:href="#Times-20" x="326.098633"/>
       <use xlink:href="#Times-6d" x="361.206055"/>
       <use xlink:href="#Times-6f" x="449.902344"/>
       <use xlink:href="#Times-76" x="506.494141"/>
       <use xlink:href="#Times-65" x="555.102539"/>
       <use xlink:href="#Times-6d" x="604.003906"/>
       <use xlink:href="#Times-65" x="692.700195"/>
       <use xlink:href="#Times-6e" x="741.601562"/>
       <use xlink:href="#Times-74" x="800.610352"/>
      </g>
     </g>
    </g>
    <g id="xtick_6">
     <g id="line2d_6">
      <path d="M 61.775958 63.081643 
L 64.903725 66.20941 
L 68.031492 69.337177 
L 71.159259 72.464944 
L 74.287026 75.592711 
L 77.414793 78.720478 
L 80.542559 81.848245 
L 83.670326 84.976012 
L 86.798093 88.103779 
" clip-path="url(#p8638c3109a)" style="fill: none; stroke: #b0b0b0; stroke-width: 0.8; stroke-linecap: square"/>
     </g>
     <g id="text_6">
      <!-- politician -->
      <g transform="translate(84.054932 99.704836) scale(0.06 -0.06)">
       <defs>
        <path id="Times-70" d="M 1139 3328 
L 1139 2694 
Q 1395 3008 1636 3162 
Q 1878 3316 2189 3316 
Q 2691 3316 3035 2886 
Q 3380 2456 3380 1683 
Q 3380 1209 3170 806 
Q 2961 403 2614 169 
Q 2267 -64 1881 -64 
Q 1480 -64 1139 173 
L 1139 -583 
Q 1139 -838 1229 -979 
Q 1319 -1120 1664 -1120 
L 1792 -1120 
L 1792 -1209 
L 0 -1209 
L 0 -1120 
L 70 -1120 
Q 388 -1120 475 -976 
Q 563 -833 563 -583 
L 563 2381 
Q 563 2613 511 2740 
Q 459 2867 308 2867 
Q 180 2867 83 2822 
L 52 2906 
L 1139 3328 
z
M 1139 2419 
L 1139 845 
Q 1139 500 1377 333 
Q 1616 166 1881 166 
Q 2105 166 2304 319 
Q 2503 472 2624 772 
Q 2745 1073 2745 1478 
Q 2745 1838 2669 2102 
Q 2594 2367 2463 2530 
Q 2333 2694 2163 2771 
Q 1994 2848 1799 2848 
Q 1620 2848 1446 2732 
Q 1272 2616 1139 2419 
z
" transform="scale(0.015625)"/>
        <path id="Times-6c" d="M 141 4422 
L 1228 4839 
L 1228 627 
Q 1228 377 1316 233 
Q 1405 89 1722 89 
L 1792 89 
L 1792 0 
L 89 0 
L 89 89 
L 159 89 
Q 478 89 565 233 
Q 653 377 653 627 
L 653 3891 
Q 653 4378 397 4378 
Q 275 4378 174 4333 
L 141 4422 
z
" transform="scale(0.015625)"/>
       </defs>
       <use xlink:href="#Times-70"/>
       <use xlink:href="#Times-6f" x="56.298828"/>
       <use xlink:href="#Times-6c" x="112.890625"/>
       <use xlink:href="#Times-69" x="141.601562"/>
       <use xlink:href="#Times-74" x="170.996094"/>
       <use xlink:href="#Times-69" x="204.199219"/>
       <use xlink:href="#Times-63" x="233.59375"/>
       <use xlink:href="#Times-69" x="283.496094"/>
       <use xlink:href="#Times-61" x="312.890625"/>
       <use xlink:href="#Times-6e" x="362.402344"/>
      </g>
     </g>
    </g>
    <g id="xtick_7">
     <g id="line2d_7">
      <path d="M 61.775958 63.081643 
L 66.199288 63.081643 
L 70.622619 63.081643 
L 75.045949 63.081643 
L 79.46928 63.081643 
L 83.89261 63.081643 
L 88.31594 63.081643 
L 92.739271 63.081643 
L 97.162601 63.081643 
" clip-path="url(#p8638c3109a)" style="fill: none; stroke: #b0b0b0; stroke-width: 0.8; stroke-linecap: square"/>
     </g>
     <g id="text_7">
      <!-- job -->
      <g transform="translate(107.076507 64.779925) scale(0.06 -0.06)">
       <defs>
        <path id="Times-6a" d="M 1197 3328 
L 1197 269 
Q 1197 17 1125 -308 
Q 1053 -634 773 -925 
Q 494 -1216 -52 -1216 
Q -334 -1216 -458 -1105 
Q -583 -995 -583 -858 
Q -583 -763 -518 -688 
Q -453 -614 -314 -614 
Q -202 -614 -138 -653 
Q -74 -692 6 -775 
Q 184 -953 333 -953 
Q 509 -953 564 -725 
Q 620 -498 620 -103 
L 620 186 
L 620 2381 
Q 620 2867 372 2867 
Q 244 2867 147 2822 
L 116 2906 
L 1197 3328 
z
M 525 4391 
Q 525 4542 636 4645 
Q 747 4748 883 4748 
Q 963 4748 1048 4706 
Q 1133 4664 1187 4583 
Q 1242 4502 1242 4391 
Q 1242 4228 1127 4129 
Q 1013 4031 883 4031 
Q 741 4031 633 4141 
Q 525 4252 525 4391 
z
" transform="scale(0.015625)"/>
       </defs>
       <use xlink:href="#Times-6a"/>
       <use xlink:href="#Times-6f" x="25.708008"/>
       <use xlink:href="#Times-62" x="82.299805"/>
      </g>
     </g>
    </g>
    <g id="xtick_8">
     <g id="line2d_8">
      <path d="M 61.775958 63.081643 
L 64.903725 59.953876 
L 68.031492 56.826109 
L 71.159259 53.698342 
L 74.287026 50.570576 
L 77.414793 47.442809 
L 80.542559 44.315042 
L 83.670326 41.187275 
L 86.798093 38.059508 
" clip-path="url(#p8638c3109a)" style="fill: none; stroke: #b0b0b0; stroke-width: 0.8; stroke-linecap: square"/>
     </g>
     <g id="text_8">
      <!-- choice -->
      <g transform="translate(87.907588 29.861575) scale(0.06 -0.06)">
       <defs>
        <path id="Times-68" d="M 141 4422 
L 1228 4839 
L 1228 2598 
Q 1625 3042 1870 3179 
Q 2116 3316 2361 3316 
Q 2709 3316 2939 3073 
Q 3169 2830 3169 2375 
L 3169 627 
Q 3169 377 3256 233 
Q 3344 89 3661 89 
L 3731 89 
L 3731 0 
L 2119 0 
L 2119 89 
L 2183 89 
Q 2450 89 2521 235 
Q 2592 381 2592 627 
L 2592 2266 
Q 2592 2892 2080 2892 
Q 1688 2892 1228 2425 
L 1228 627 
Q 1228 381 1300 235 
Q 1372 89 1639 89 
L 1703 89 
L 1703 0 
L 89 0 
L 89 89 
L 159 89 
Q 478 89 565 233 
Q 653 377 653 627 
L 653 3891 
Q 653 4378 397 4378 
Q 275 4378 174 4333 
L 141 4422 
z
" transform="scale(0.015625)"/>
       </defs>
       <use xlink:href="#Times-63"/>
       <use xlink:href="#Times-68" x="49.902344"/>
       <use xlink:href="#Times-6f" x="108.203125"/>
       <use xlink:href="#Times-69" x="164.794922"/>
       <use xlink:href="#Times-63" x="194.189453"/>
       <use xlink:href="#Times-65" x="244.091797"/>
      </g>
     </g>
    </g>
   </g>
   <g id="matplotlib.axis_2">
    <g id="ytick_1">
     <g id="line2d_9">
      <path d="M 61.775958 63.081643 
L 61.775958 63.081643 
L 61.775958 63.081643 
L 61.775958 63.081643 
L 61.775958 63.081643 
L 61.775958 63.081643 
L 61.775958 63.081643 
L 61.775958 63.081643 
L 61.775958 63.081643 
" clip-path="url(#p8638c3109a)" style="fill: none; stroke: #b0b0b0; stroke-width: 0.8; stroke-linecap: square"/>
     </g>
     <g id="text_9">
      <!-- 0.00 -->
      <g transform="translate(61.775958 61.948206) scale(0.06 -0.06)">
       <defs>
        <path id="Times-30" d="M 1722 -64 
Q 1261 -64 926 269 
Q 591 603 420 1162 
Q 250 1722 250 2375 
Q 250 3020 422 3582 
Q 594 4144 924 4478 
Q 1255 4813 1703 4813 
Q 2149 4813 2477 4479 
Q 2806 4145 2977 3584 
Q 3149 3023 3149 2375 
Q 3149 1977 3071 1552 
Q 2994 1127 2825 759 
Q 2656 392 2379 164 
Q 2102 -64 1722 -64 
z
M 1703 153 
Q 1886 153 2027 263 
Q 2169 373 2269 626 
Q 2370 880 2423 1310 
Q 2477 1741 2477 2375 
Q 2477 3202 2383 3697 
Q 2289 4192 2119 4393 
Q 1950 4595 1703 4595 
Q 1441 4595 1262 4393 
Q 1084 4192 989 3699 
Q 895 3206 895 2375 
Q 895 1545 989 1051 
Q 1084 558 1262 355 
Q 1441 153 1703 153 
z
" transform="scale(0.015625)"/>
        <path id="Times-2e" d="M 538 320 
Q 538 497 663 604 
Q 789 711 922 711 
Q 1056 711 1181 604 
Q 1306 497 1306 320 
Q 1306 159 1193 47 
Q 1080 -64 922 -64 
Q 764 -64 651 47 
Q 538 159 538 320 
z
" transform="scale(0.015625)"/>
       </defs>
       <use xlink:href="#Times-30"/>
       <use xlink:href="#Times-2e" x="53.100586"/>
       <use xlink:href="#Times-30" x="81.90918"/>
       <use xlink:href="#Times-30" x="135.009766"/>
      </g>
     </g>
    </g>
    <g id="ytick_2">
     <g id="line2d_10">
      <path d="M 61.775958 51.404051 
L 53.518653 54.824339 
L 50.098366 63.081643 
L 53.518653 71.338948 
L 61.775958 74.759236 
L 70.033263 71.338948 
L 73.45355 63.081643 
L 70.033263 54.824339 
L 61.775958 51.404051 
" clip-path="url(#p8638c3109a)" style="fill: none; stroke: #b0b0b0; stroke-width: 0.8; stroke-linecap: square"/>
     </g>
     <g id="text_10">
      <!-- 0.33 -->
      <g transform="translate(57.307137 51.159517) scale(0.06 -0.06)">
       <defs>
        <path id="Times-33" d="M 678 3763 
L 563 3808 
Q 658 4206 933 4509 
Q 1209 4813 1689 4813 
Q 1911 4813 2110 4744 
Q 2309 4675 2461 4547 
Q 2613 4420 2698 4240 
Q 2784 4061 2784 3841 
Q 2784 3259 2144 2764 
Q 2553 2664 2768 2308 
Q 2983 1953 2983 1497 
Q 2983 1195 2851 912 
Q 2719 630 2487 409 
Q 2256 189 1961 65 
Q 1667 -58 1350 -58 
Q 906 -58 657 39 
Q 409 136 409 302 
Q 409 423 481 515 
Q 553 608 697 608 
Q 767 608 822 590 
Q 878 573 913 553 
Q 949 533 991 500 
Q 1033 467 1050 455 
Q 1086 423 1125 392 
Q 1164 361 1226 327 
Q 1289 294 1365 272 
Q 1441 250 1536 250 
Q 1781 250 1996 360 
Q 2211 470 2340 682 
Q 2470 895 2470 1184 
Q 2470 1508 2327 1786 
Q 2184 2064 1921 2226 
Q 1659 2388 1319 2388 
L 1191 2388 
L 1191 2464 
Q 1506 2523 1745 2687 
Q 1984 2852 2112 3076 
Q 2241 3300 2241 3533 
Q 2241 3845 2061 4079 
Q 1881 4314 1491 4314 
Q 1170 4314 973 4143 
Q 777 3972 678 3763 
z
" transform="scale(0.015625)"/>
       </defs>
       <use xlink:href="#Times-30"/>
       <use xlink:href="#Times-2e" x="53.100586"/>
       <use xlink:href="#Times-33" x="81.90918"/>
       <use xlink:href="#Times-33" x="135.107422"/>
      </g>
     </g>
    </g>
    <g id="ytick_3">
     <g id="line2d_11">
      <path d="M 61.775958 39.726459 
L 45.261349 46.567034 
L 38.420773 63.081643 
L 45.261349 79.596253 
L 61.775958 86.436828 
L 78.290567 79.596253 
L 85.131142 63.081643 
L 78.290567 46.567034 
L 61.775958 39.726459 
" clip-path="url(#p8638c3109a)" style="fill: none; stroke: #b0b0b0; stroke-width: 0.8; stroke-linecap: square"/>
     </g>
     <g id="text_11">
      <!-- 0.66 -->
      <g transform="translate(52.838316 40.370829) scale(0.06 -0.06)">
       <defs>
        <path id="Times-36" d="M 3059 5044 
L 3084 4903 
Q 2792 4850 2493 4715 
Q 2194 4581 1902 4321 
Q 1611 4061 1381 3641 
Q 1152 3222 1038 2638 
Q 1274 2805 1474 2894 
Q 1674 2983 1902 2983 
Q 2244 2983 2521 2815 
Q 2799 2648 2958 2326 
Q 3117 2005 3117 1569 
Q 3117 1120 2943 746 
Q 2770 373 2450 154 
Q 2131 -64 1716 -64 
Q 1313 -64 988 169 
Q 663 403 475 868 
Q 288 1334 288 1991 
Q 288 2663 507 3202 
Q 727 3742 1110 4124 
Q 1494 4506 1996 4738 
Q 2499 4970 3059 5044 
z
M 999 2388 
Q 959 2177 959 1747 
Q 959 1175 1086 826 
Q 1213 478 1403 338 
Q 1594 198 1805 198 
Q 2109 198 2309 440 
Q 2509 683 2509 1172 
Q 2509 1634 2405 1970 
Q 2302 2306 2113 2484 
Q 1924 2663 1670 2663 
Q 1494 2663 1316 2588 
Q 1138 2514 999 2388 
z
" transform="scale(0.015625)"/>
       </defs>
       <use xlink:href="#Times-30"/>
       <use xlink:href="#Times-2e" x="53.100586"/>
       <use xlink:href="#Times-36" x="81.90918"/>
       <use xlink:href="#Times-36" x="135.107422"/>
      </g>
     </g>
    </g>
    <g id="ytick_4">
     <g id="line2d_12">
      <path d="M 61.775958 27.695 
L 36.753822 38.059508 
L 26.389315 63.081643 
L 36.753822 88.103779 
L 61.775958 98.468287 
L 86.798093 88.103779 
L 97.162601 63.081643 
L 86.798093 38.059508 
L 61.775958 27.695 
" clip-path="url(#p8638c3109a)" style="fill: none; stroke: #b0b0b0; stroke-width: 0.8; stroke-linecap: square"/>
     </g>
     <g id="text_12">
      <!-- 1.00 -->
      <g transform="translate(48.234076 29.25521) scale(0.06 -0.06)">
       <defs>
        <path id="Times-31" d="M 852 4211 
L 2099 4813 
L 2099 563 
Q 2099 358 2211 220 
Q 2324 83 2675 83 
L 2791 83 
L 2791 0 
L 788 0 
L 788 83 
L 909 83 
Q 1478 83 1478 544 
L 1478 3878 
Q 1478 4223 1216 4223 
Q 1114 4223 903 4109 
L 852 4211 
z
" transform="scale(0.015625)"/>
       </defs>
       <use xlink:href="#Times-31"/>
       <use xlink:href="#Times-2e" x="53.295898"/>
       <use xlink:href="#Times-30" x="82.104492"/>
       <use xlink:href="#Times-30" x="135.205078"/>
      </g>
     </g>
    </g>
   </g>
   <g id="line2d_13">
    <path d="M 61.775958 44.382407 
L 45.181328 46.487014 
L 41.756458 63.081643 
L 41.55321 83.304392 
L 61.775958 85.54472 
L 80.959897 82.265583 
L 90.610469 63.081643 
L 79.31232 45.545282 
L 61.775958 44.382407 
" clip-path="url(#p8638c3109a)" style="fill: none; stroke: #006400; stroke-linecap: square"/>
   </g>
   <g id="line2d_14">
    <path d="M 61.775958 44.652987 
L 44.261953 45.567638 
L 42.026229 63.081643 
L 40.22705 84.630551 
L 61.775958 87.240744 
L 82.540829 83.846515 
L 92.172582 63.081643 
L 79.274319 45.583282 
L 61.775958 44.652987 
" clip-path="url(#p8638c3109a)" style="fill: none; stroke: #ff8c00; stroke-linecap: square"/>
   </g>
   <g id="patch_3">
    <path d="M 61.775958 27.695 
L 36.753822 38.059508 
L 26.389315 63.081643 
L 36.753822 88.103779 
L 61.775958 98.468287 
L 86.798093 88.103779 
L 97.162601 63.081643 
L 86.798093 38.059508 
L 61.775958 27.695 
z
" style="fill: none; stroke: #000000; stroke-width: 0.8; stroke-linejoin: miter; stroke-linecap: square"/>
   </g>
   <g id="text_13">
    <!-- Germany -->
    <g transform="translate(44.859083 7.1125) scale(0.08 -0.08)">
     <defs>
      <path id="Times-47" d="M 4742 4781 
L 4831 3366 
L 4742 3366 
Q 4613 3708 4373 3978 
Q 4134 4248 3785 4405 
Q 3436 4563 3002 4563 
Q 2509 4563 2093 4309 
Q 1677 4056 1430 3573 
Q 1184 3091 1184 2445 
Q 1184 1716 1448 1212 
Q 1713 709 2138 466 
Q 2564 223 3041 223 
Q 3703 223 4134 563 
L 4134 1984 
Q 4134 2183 4028 2323 
Q 3922 2464 3564 2464 
L 3514 2464 
L 3514 2553 
L 5511 2553 
L 5511 2464 
L 5459 2464 
Q 5103 2464 4996 2323 
Q 4889 2183 4889 1984 
L 4889 467 
Q 4461 209 3972 72 
Q 3484 -64 3027 -64 
Q 2569 -64 2106 62 
Q 1644 189 1245 469 
Q 847 750 602 1210 
Q 358 1670 358 2305 
Q 358 2786 531 3237 
Q 705 3688 1044 4045 
Q 1384 4403 1881 4608 
Q 2378 4813 3008 4813 
Q 3353 4813 3614 4748 
Q 3875 4683 4109 4583 
Q 4316 4498 4409 4498 
Q 4525 4498 4583 4585 
Q 4641 4673 4653 4781 
L 4742 4781 
z
" transform="scale(0.015625)"/>
     </defs>
     <use xlink:href="#Times-47"/>
     <use xlink:href="#Times-65" x="88.891602"/>
     <use xlink:href="#Times-72" x="137.792969"/>
     <use xlink:href="#Times-6d" x="175.390625"/>
     <use xlink:href="#Times-61" x="264.086914"/>
     <use xlink:href="#Times-6e" x="313.598633"/>
     <use xlink:href="#Times-79" x="372.607422"/>
    </g>
   </g>
   <g id="legend_1">
    <g id="line2d_15">
     <path d="M 3.48 125.221492 
L 9.48 125.221492 
L 15.48 125.221492 
" style="fill: none; stroke: #006400; stroke-linecap: square"/>
    </g>
    <g id="text_14">
     <!-- Male -->
     <g transform="translate(20.28 127.321492) scale(0.06 -0.06)">
      <defs>
       <path id="Times-4d" d="M 1753 4748 
L 3359 1184 
L 4959 4748 
L 6394 4748 
L 6394 4659 
L 6278 4659 
Q 5980 4659 5844 4543 
Q 5709 4428 5709 4180 
L 5709 570 
Q 5709 322 5845 205 
Q 5981 89 6278 89 
L 6394 89 
L 6394 0 
L 4263 0 
L 4263 89 
L 4384 89 
Q 4739 89 4846 229 
Q 4953 369 4953 570 
L 4953 4000 
L 3155 0 
L 3097 0 
L 1313 4013 
L 1313 570 
Q 1313 369 1420 229 
Q 1527 89 1881 89 
L 2003 89 
L 2003 0 
L 314 0 
L 314 89 
L 428 89 
Q 786 89 892 230 
Q 999 372 999 570 
L 999 4180 
Q 999 4378 892 4518 
Q 786 4659 428 4659 
L 314 4659 
L 314 4748 
L 1753 4748 
z
" transform="scale(0.015625)"/>
      </defs>
      <use xlink:href="#Times-4d"/>
      <use xlink:href="#Times-61" x="103.393555"/>
      <use xlink:href="#Times-6c" x="152.905273"/>
      <use xlink:href="#Times-65" x="181.616211"/>
     </g>
    </g>
    <g id="line2d_16">
     <path d="M 46.111875 125.221492 
L 52.111875 125.221492 
L 58.111875 125.221492 
" style="fill: none; stroke: #ff8c00; stroke-linecap: square"/>
    </g>
    <g id="text_15">
     <!-- Female -->
     <g transform="translate(62.911875 127.321492) scale(0.06 -0.06)">
      <defs>
       <path id="Times-46" d="M 4238 4748 
L 4327 3692 
L 4238 3692 
Q 4159 4136 3904 4282 
Q 3649 4428 3283 4428 
L 1753 4428 
L 1753 2617 
L 3002 2617 
Q 3616 2617 3616 3283 
L 3706 3283 
L 3706 1652 
L 3616 1652 
Q 3602 2019 3471 2174 
Q 3341 2330 3002 2330 
L 1753 2330 
L 1753 570 
Q 1753 366 1865 227 
Q 1978 89 2330 89 
L 2445 89 
L 2445 0 
L 314 0 
L 314 89 
L 428 89 
Q 786 89 892 230 
Q 999 372 999 570 
L 999 4180 
Q 999 4378 892 4518 
Q 786 4659 428 4659 
L 314 4659 
L 314 4748 
L 4238 4748 
z
" transform="scale(0.015625)"/>
      </defs>
      <use xlink:href="#Times-46"/>
      <use xlink:href="#Times-65" x="68.310547"/>
      <use xlink:href="#Times-6d" x="117.211914"/>
      <use xlink:href="#Times-61" x="205.908203"/>
      <use xlink:href="#Times-6c" x="255.419922"/>
      <use xlink:href="#Times-65" x="284.130859"/>
     </g>
    </g>
   </g>
  </g>
  <g id="axes_2">
   <g id="patch_4">
    <path d="M 175.658943 27.695 
L 150.636808 38.059508 
L 140.2723 63.081643 
L 150.636808 88.103779 
L 175.658943 98.468287 
L 200.681079 88.103779 
L 211.045586 63.081643 
L 200.681079 38.059508 
z
" style="fill: #ffffff"/>
   </g>
   <g id="matplotlib.axis_3">
    <g id="xtick_9">
     <g id="line2d_17">
      <path d="M 175.658943 63.081643 
L 175.658943 58.658313 
L 175.658943 54.234982 
L 175.658943 49.811652 
L 175.658943 45.388322 
L 175.658943 40.964991 
L 175.658943 36.541661 
L 175.658943 32.11833 
L 175.658943 27.695 
" clip-path="url(#p3bf3e52006)" style="fill: none; stroke: #b0b0b0; stroke-width: 0.8; stroke-linecap: square"/>
     </g>
     <g id="text_16">
      <!-- abortion -->
      <g transform="translate(164.384568 15.396562) scale(0.06 -0.06)">
       <use xlink:href="#Times-61"/>
       <use xlink:href="#Times-62" x="49.511719"/>
       <use xlink:href="#Times-6f" x="103.417969"/>
       <use xlink:href="#Times-72" x="160.009766"/>
       <use xlink:href="#Times-74" x="197.607422"/>
       <use xlink:href="#Times-69" x="230.810547"/>
       <use xlink:href="#Times-6f" x="260.205078"/>
       <use xlink:href="#Times-6e" x="316.796875"/>
      </g>
     </g>
    </g>
    <g id="xtick_10">
     <g id="line2d_18">
      <path d="M 175.658943 63.081643 
L 172.531176 59.953876 
L 169.403409 56.826109 
L 166.275642 53.698342 
L 163.147875 50.570576 
L 160.020109 47.442809 
L 156.892342 44.315042 
L 153.764575 41.187275 
L 150.636808 38.059508 
" clip-path="url(#p3bf3e52006)" style="fill: none; stroke: #b0b0b0; stroke-width: 0.8; stroke-linecap: square"/>
     </g>
     <g id="text_17">
      <!-- divorce -->
      <g transform="translate(130.912313 29.861575) scale(0.06 -0.06)">
       <use xlink:href="#Times-64"/>
       <use xlink:href="#Times-69" x="56.494141"/>
       <use xlink:href="#Times-76" x="85.888672"/>
       <use xlink:href="#Times-6f" x="134.49707"/>
       <use xlink:href="#Times-72" x="191.088867"/>
       <use xlink:href="#Times-63" x="228.686523"/>
       <use xlink:href="#Times-65" x="278.588867"/>
      </g>
     </g>
    </g>
    <g id="xtick_11">
     <g id="line2d_19">
      <path d="M 175.658943 63.081643 
L 171.235613 63.081643 
L 166.812282 63.081643 
L 162.388952 63.081643 
L 157.965622 63.081643 
L 153.542291 63.081643 
L 149.118961 63.081643 
L 144.69563 63.081643 
L 140.2723 63.081643 
" clip-path="url(#p3bf3e52006)" style="fill: none; stroke: #b0b0b0; stroke-width: 0.8; stroke-linecap: square"/>
     </g>
     <g id="text_18">
      <!-- $$$ -->
      <g transform="translate(121.249175 64.783206) scale(0.06 -0.06)">
       <use xlink:href="#Times-24"/>
       <use xlink:href="#Times-24" x="55.810547"/>
       <use xlink:href="#Times-24" x="111.621094"/>
      </g>
     </g>
    </g>
    <g id="xtick_12">
     <g id="line2d_20">
      <path d="M 175.658943 63.081643 
L 172.531176 66.20941 
L 169.403409 69.337177 
L 166.275642 72.464944 
L 163.147875 75.592711 
L 160.020109 78.720478 
L 156.892342 81.848245 
L 153.764575 84.976012 
L 150.636808 88.103779 
" clip-path="url(#p3bf3e52006)" style="fill: none; stroke: #b0b0b0; stroke-width: 0.8; stroke-linecap: square"/>
     </g>
     <g id="text_19">
      <!-- university -->
      <g transform="translate(127.78575 99.692649) scale(0.06 -0.06)">
       <use xlink:href="#Times-75"/>
       <use xlink:href="#Times-6e" x="56.811523"/>
       <use xlink:href="#Times-69" x="115.820312"/>
       <use xlink:href="#Times-76" x="145.214844"/>
       <use xlink:href="#Times-65" x="193.823242"/>
       <use xlink:href="#Times-72" x="242.724609"/>
       <use xlink:href="#Times-73" x="280.322266"/>
       <use xlink:href="#Times-69" x="318.823242"/>
       <use xlink:href="#Times-74" x="348.217773"/>
       <use xlink:href="#Times-79" x="381.420898"/>
      </g>
     </g>
    </g>
    <g id="xtick_13">
     <g id="line2d_21">
      <path d="M 175.658943 63.081643 
L 175.658943 67.504974 
L 175.658943 71.928304 
L 175.658943 76.351635 
L 175.658943 80.774965 
L 175.658943 85.198295 
L 175.658943 89.621626 
L 175.658943 94.044956 
L 175.658943 98.468287 
" clip-path="url(#p3bf3e52006)" style="fill: none; stroke: #b0b0b0; stroke-width: 0.8; stroke-linecap: square"/>
     </g>
     <g id="text_20">
      <!-- women movement -->
      <g transform="translate(150.642693 114.169849) scale(0.06 -0.06)">
       <use xlink:href="#Times-77"/>
       <use xlink:href="#Times-6f" x="72.900391"/>
       <use xlink:href="#Times-6d" x="129.492188"/>
       <use xlink:href="#Times-65" x="218.188477"/>
       <use xlink:href="#Times-6e" x="267.089844"/>
       <use xlink:href="#Times-20" x="326.098633"/>
       <use xlink:href="#Times-6d" x="361.206055"/>
       <use xlink:href="#Times-6f" x="449.902344"/>
       <use xlink:href="#Times-76" x="506.494141"/>
       <use xlink:href="#Times-65" x="555.102539"/>
       <use xlink:href="#Times-6d" x="604.003906"/>
       <use xlink:href="#Times-65" x="692.700195"/>
       <use xlink:href="#Times-6e" x="741.601562"/>
       <use xlink:href="#Times-74" x="800.610352"/>
      </g>
     </g>
    </g>
    <g id="xtick_14">
     <g id="line2d_22">
      <path d="M 175.658943 63.081643 
L 178.78671 66.20941 
L 181.914477 69.337177 
L 185.042244 72.464944 
L 188.170011 75.592711 
L 191.297778 78.720478 
L 194.425545 81.848245 
L 197.553312 84.976012 
L 200.681079 88.103779 
" clip-path="url(#p3bf3e52006)" style="fill: none; stroke: #b0b0b0; stroke-width: 0.8; stroke-linecap: square"/>
     </g>
     <g id="text_21">
      <!-- politician -->
      <g transform="translate(197.937917 99.704836) scale(0.06 -0.06)">
       <use xlink:href="#Times-70"/>
       <use xlink:href="#Times-6f" x="56.298828"/>
       <use xlink:href="#Times-6c" x="112.890625"/>
       <use xlink:href="#Times-69" x="141.601562"/>
       <use xlink:href="#Times-74" x="170.996094"/>
       <use xlink:href="#Times-69" x="204.199219"/>
       <use xlink:href="#Times-63" x="233.59375"/>
       <use xlink:href="#Times-69" x="283.496094"/>
       <use xlink:href="#Times-61" x="312.890625"/>
       <use xlink:href="#Times-6e" x="362.402344"/>
      </g>
     </g>
    </g>
    <g id="xtick_15">
     <g id="line2d_23">
      <path d="M 175.658943 63.081643 
L 180.082274 63.081643 
L 184.505604 63.081643 
L 188.928934 63.081643 
L 193.352265 63.081643 
L 197.775595 63.081643 
L 202.198926 63.081643 
L 206.622256 63.081643 
L 211.045586 63.081643 
" clip-path="url(#p3bf3e52006)" style="fill: none; stroke: #b0b0b0; stroke-width: 0.8; stroke-linecap: square"/>
     </g>
     <g id="text_22">
      <!-- job -->
      <g transform="translate(220.959493 64.779925) scale(0.06 -0.06)">
       <use xlink:href="#Times-6a"/>
       <use xlink:href="#Times-6f" x="25.708008"/>
       <use xlink:href="#Times-62" x="82.299805"/>
      </g>
     </g>
    </g>
    <g id="xtick_16">
     <g id="line2d_24">
      <path d="M 175.658943 63.081643 
L 178.78671 59.953876 
L 181.914477 56.826109 
L 185.042244 53.698342 
L 188.170011 50.570576 
L 191.297778 47.442809 
L 194.425545 44.315042 
L 197.553312 41.187275 
L 200.681079 38.059508 
" clip-path="url(#p3bf3e52006)" style="fill: none; stroke: #b0b0b0; stroke-width: 0.8; stroke-linecap: square"/>
     </g>
     <g id="text_23">
      <!-- choice -->
      <g transform="translate(201.790574 29.861575) scale(0.06 -0.06)">
       <use xlink:href="#Times-63"/>
       <use xlink:href="#Times-68" x="49.902344"/>
       <use xlink:href="#Times-6f" x="108.203125"/>
       <use xlink:href="#Times-69" x="164.794922"/>
       <use xlink:href="#Times-63" x="194.189453"/>
       <use xlink:href="#Times-65" x="244.091797"/>
      </g>
     </g>
    </g>
   </g>
   <g id="matplotlib.axis_4">
    <g id="ytick_5">
     <g id="line2d_25">
      <path d="M 175.658943 63.081643 
L 175.658943 63.081643 
L 175.658943 63.081643 
L 175.658943 63.081643 
L 175.658943 63.081643 
L 175.658943 63.081643 
L 175.658943 63.081643 
L 175.658943 63.081643 
L 175.658943 63.081643 
" clip-path="url(#p3bf3e52006)" style="fill: none; stroke: #b0b0b0; stroke-width: 0.8; stroke-linecap: square"/>
     </g>
     <g id="text_24">
      <!-- 0.00 -->
      <g transform="translate(175.658943 61.948206) scale(0.06 -0.06)">
       <use xlink:href="#Times-30"/>
       <use xlink:href="#Times-2e" x="53.100586"/>
       <use xlink:href="#Times-30" x="81.90918"/>
       <use xlink:href="#Times-30" x="135.009766"/>
      </g>
     </g>
    </g>
    <g id="ytick_6">
     <g id="line2d_26">
      <path d="M 175.658943 51.404051 
L 167.401639 54.824339 
L 163.981351 63.081643 
L 167.401639 71.338948 
L 175.658943 74.759236 
L 183.916248 71.338948 
L 187.336535 63.081643 
L 183.916248 54.824339 
L 175.658943 51.404051 
" clip-path="url(#p3bf3e52006)" style="fill: none; stroke: #b0b0b0; stroke-width: 0.8; stroke-linecap: square"/>
     </g>
     <g id="text_25">
      <!-- 0.33 -->
      <g transform="translate(171.190122 51.159517) scale(0.06 -0.06)">
       <use xlink:href="#Times-30"/>
       <use xlink:href="#Times-2e" x="53.100586"/>
       <use xlink:href="#Times-33" x="81.90918"/>
       <use xlink:href="#Times-33" x="135.107422"/>
      </g>
     </g>
    </g>
    <g id="ytick_7">
     <g id="line2d_27">
      <path d="M 175.658943 39.726459 
L 159.144334 46.567034 
L 152.303759 63.081643 
L 159.144334 79.596253 
L 175.658943 86.436828 
L 192.173553 79.596253 
L 199.014128 63.081643 
L 192.173553 46.567034 
L 175.658943 39.726459 
" clip-path="url(#p3bf3e52006)" style="fill: none; stroke: #b0b0b0; stroke-width: 0.8; stroke-linecap: square"/>
     </g>
     <g id="text_26">
      <!-- 0.66 -->
      <g transform="translate(166.721301 40.370829) scale(0.06 -0.06)">
       <use xlink:href="#Times-30"/>
       <use xlink:href="#Times-2e" x="53.100586"/>
       <use xlink:href="#Times-36" x="81.90918"/>
       <use xlink:href="#Times-36" x="135.107422"/>
      </g>
     </g>
    </g>
    <g id="ytick_8">
     <g id="line2d_28">
      <path d="M 175.658943 27.695 
L 150.636808 38.059508 
L 140.2723 63.081643 
L 150.636808 88.103779 
L 175.658943 98.468287 
L 200.681079 88.103779 
L 211.045586 63.081643 
L 200.681079 38.059508 
L 175.658943 27.695 
" clip-path="url(#p3bf3e52006)" style="fill: none; stroke: #b0b0b0; stroke-width: 0.8; stroke-linecap: square"/>
     </g>
     <g id="text_27">
      <!-- 1.00 -->
      <g transform="translate(162.117061 29.25521) scale(0.06 -0.06)">
       <use xlink:href="#Times-31"/>
       <use xlink:href="#Times-2e" x="53.295898"/>
       <use xlink:href="#Times-30" x="82.104492"/>
       <use xlink:href="#Times-30" x="135.205078"/>
      </g>
     </g>
    </g>
   </g>
   <g id="line2d_29">
    <path d="M 175.658943 52.689576 
L 165.968999 53.391699 
L 155.708488 63.081643 
L 157.788113 80.952473 
L 175.658943 89.164312 
L 190.476344 77.899044 
L 198.423019 63.081643 
L 193.794416 44.94617 
L 175.658943 52.689576 
" clip-path="url(#p3bf3e52006)" style="fill: none; stroke: #006400; stroke-linecap: square"/>
   </g>
   <g id="line2d_30">
    <path d="M 175.658943 53.337039 
L 166.449156 53.871856 
L 155.701585 63.081643 
L 157.078373 81.662213 
L 175.658943 89.45197 
L 191.261267 78.683967 
L 200.476146 63.081643 
L 193.543024 45.197562 
L 175.658943 53.337039 
" clip-path="url(#p3bf3e52006)" style="fill: none; stroke: #ff8c00; stroke-linecap: square"/>
   </g>
   <g id="patch_5">
    <path d="M 175.658943 27.695 
L 150.636808 38.059508 
L 140.2723 63.081643 
L 150.636808 88.103779 
L 175.658943 98.468287 
L 200.681079 88.103779 
L 211.045586 63.081643 
L 200.681079 38.059508 
L 175.658943 27.695 
z
" style="fill: none; stroke: #000000; stroke-width: 0.8; stroke-linejoin: miter; stroke-linecap: square"/>
   </g>
   <g id="text_28">
    <!-- China -->
    <g transform="translate(164.706443 7.12875) scale(0.08 -0.08)">
     <defs>
      <path id="Times-43" d="M 4525 4775 
L 4602 3264 
L 4513 3252 
Q 4438 3584 4248 3877 
Q 4058 4170 3727 4357 
Q 3397 4544 2938 4544 
Q 2578 4544 2262 4411 
Q 1947 4278 1705 4013 
Q 1463 3748 1323 3343 
Q 1184 2938 1184 2419 
Q 1184 1898 1327 1495 
Q 1470 1092 1726 825 
Q 1983 558 2319 426 
Q 2655 294 3034 294 
Q 3931 294 4641 1145 
L 4788 1011 
Q 4003 -64 2836 -64 
Q 2306 -64 1849 129 
Q 1392 323 1057 667 
Q 722 1011 540 1457 
Q 358 1903 358 2400 
Q 358 2948 559 3398 
Q 761 3848 1116 4165 
Q 1472 4483 1925 4648 
Q 2378 4813 2880 4813 
Q 3406 4813 3924 4608 
Q 4149 4525 4224 4525 
Q 4422 4525 4449 4775 
L 4525 4775 
z
" transform="scale(0.015625)"/>
     </defs>
     <use xlink:href="#Times-43"/>
     <use xlink:href="#Times-68" x="77.587891"/>
     <use xlink:href="#Times-69" x="135.888672"/>
     <use xlink:href="#Times-6e" x="165.283203"/>
     <use xlink:href="#Times-61" x="224.291992"/>
    </g>
   </g>
  </g>
 </g>
 <defs>
  <clipPath id="p8638c3109a">
   <path d="M 61.775958 27.695 
L 36.753822 38.059508 
L 26.389315 63.081643 
L 36.753822 88.103779 
L 61.775958 98.468287 
L 86.798093 88.103779 
L 97.162601 63.081643 
L 86.798093 38.059508 
z
"/>
  </clipPath>
  <clipPath id="p3bf3e52006">
   <path d="M 175.658943 27.695 
L 150.636808 38.059508 
L 140.2723 63.081643 
L 150.636808 88.103779 
L 175.658943 98.468287 
L 200.681079 88.103779 
L 211.045586 63.081643 
L 200.681079 38.059508 
z
"/>
  </clipPath>
 </defs>
</svg>
