<?xml version="1.0" encoding="utf-8" standalone="no"?>
<!DOCTYPE svg PUBLIC "-//W3C//DTD SVG 1.1//EN"
  "http://www.w3.org/Graphics/SVG/1.1/DTD/svg11.dtd">
<svg xmlns:xlink="http://www.w3.org/1999/xlink" width="293.639214pt" height="641.117937pt" viewBox="0 0 293.639214 641.117937" xmlns="http://www.w3.org/2000/svg" version="1.1">
 <metadata>
  <rdf:RDF xmlns:dc="http://purl.org/dc/elements/1.1/" xmlns:cc="http://creativecommons.org/ns#" xmlns:rdf="http://www.w3.org/1999/02/22-rdf-syntax-ns#">
   <cc:Work>
    <dc:type rdf:resource="http://purl.org/dc/dcmitype/StillImage"/>
    <dc:date>2024-01-25T09:16:30.990541</dc:date>
    <dc:format>image/svg+xml</dc:format>
    <dc:creator>
     <cc:Agent>
      <dc:title>Matplotlib v3.8.2, https://matplotlib.org/</dc:title>
     </cc:Agent>
    </dc:creator>
   </cc:Work>
  </rdf:RDF>
 </metadata>
 <defs>
  <style type="text/css">*{stroke-linejoin: round; stroke-linecap: butt}</style>
 </defs>
 <g id="figure_1">
  <g id="patch_1">
   <path d="M 0 641.117937 
L 293.639214 641.117937 
L 293.639214 0 
L 0 0 
z
" style="fill: #ffffff"/>
  </g>
  <g id="axes_1">
   <g id="patch_2">
    <path d="M 145.06685 66.0121 
L 57.201337 102.407187 
L 20.80625 190.2727 
L 57.201337 278.138213 
L 145.06685 314.5333 
L 232.932363 278.138213 
L 269.32745 190.2727 
L 232.932363 102.407187 
z
" style="fill: #ffffff"/>
   </g>
   <g id="matplotlib.axis_1">
    <g id="xtick_1">
     <g id="line2d_1">
      <path d="M 145.06685 190.2727 
L 145.06685 174.740125 
L 145.06685 159.20755 
L 145.06685 143.674975 
L 145.06685 128.1424 
L 145.06685 112.609825 
L 145.06685 97.07725 
L 145.06685 81.544675 
L 145.06685 66.0121 
" clip-path="url(#p5890f4cf25)" style="fill: none; stroke: #b0b0b0; stroke-width: 0.8; stroke-linecap: square"/>
     </g>
     <g id="text_1">
      <!-- abortion -->
      <g transform="translate(132.508569 53.667725) scale(0.06 -0.06)">
       <defs>
        <path id="DejaVuSans-61" d="M 2194 1759 
Q 1497 1759 1228 1600 
Q 959 1441 959 1056 
Q 959 750 1161 570 
Q 1363 391 1709 391 
Q 2188 391 2477 730 
Q 2766 1069 2766 1631 
L 2766 1759 
L 2194 1759 
z
M 3341 1997 
L 3341 0 
L 2766 0 
L 2766 531 
Q 2569 213 2275 61 
Q 1981 -91 1556 -91 
Q 1019 -91 701 211 
Q 384 513 384 1019 
Q 384 1609 779 1909 
Q 1175 2209 1959 2209 
L 2766 2209 
L 2766 2266 
Q 2766 2663 2505 2880 
Q 2244 3097 1772 3097 
Q 1472 3097 1187 3025 
Q 903 2953 641 2809 
L 641 3341 
Q 956 3463 1253 3523 
Q 1550 3584 1831 3584 
Q 2591 3584 2966 3190 
Q 3341 2797 3341 1997 
z
" transform="scale(0.015625)"/>
        <path id="DejaVuSans-62" d="M 3116 1747 
Q 3116 2381 2855 2742 
Q 2594 3103 2138 3103 
Q 1681 3103 1420 2742 
Q 1159 2381 1159 1747 
Q 1159 1113 1420 752 
Q 1681 391 2138 391 
Q 2594 391 2855 752 
Q 3116 1113 3116 1747 
z
M 1159 2969 
Q 1341 3281 1617 3432 
Q 1894 3584 2278 3584 
Q 2916 3584 3314 3078 
Q 3713 2572 3713 1747 
Q 3713 922 3314 415 
Q 2916 -91 2278 -91 
Q 1894 -91 1617 61 
Q 1341 213 1159 525 
L 1159 0 
L 581 0 
L 581 4863 
L 1159 4863 
L 1159 2969 
z
" transform="scale(0.015625)"/>
        <path id="DejaVuSans-6f" d="M 1959 3097 
Q 1497 3097 1228 2736 
Q 959 2375 959 1747 
Q 959 1119 1226 758 
Q 1494 397 1959 397 
Q 2419 397 2687 759 
Q 2956 1122 2956 1747 
Q 2956 2369 2687 2733 
Q 2419 3097 1959 3097 
z
M 1959 3584 
Q 2709 3584 3137 3096 
Q 3566 2609 3566 1747 
Q 3566 888 3137 398 
Q 2709 -91 1959 -91 
Q 1206 -91 779 398 
Q 353 888 353 1747 
Q 353 2609 779 3096 
Q 1206 3584 1959 3584 
z
" transform="scale(0.015625)"/>
        <path id="DejaVuSans-72" d="M 2631 2963 
Q 2534 3019 2420 3045 
Q 2306 3072 2169 3072 
Q 1681 3072 1420 2755 
Q 1159 2438 1159 1844 
L 1159 0 
L 581 0 
L 581 3500 
L 1159 3500 
L 1159 2956 
Q 1341 3275 1631 3429 
Q 1922 3584 2338 3584 
Q 2397 3584 2469 3576 
Q 2541 3569 2628 3553 
L 2631 2963 
z
" transform="scale(0.015625)"/>
        <path id="DejaVuSans-74" d="M 1172 4494 
L 1172 3500 
L 2356 3500 
L 2356 3053 
L 1172 3053 
L 1172 1153 
Q 1172 725 1289 603 
Q 1406 481 1766 481 
L 2356 481 
L 2356 0 
L 1766 0 
Q 1100 0 847 248 
Q 594 497 594 1153 
L 594 3053 
L 172 3053 
L 172 3500 
L 594 3500 
L 594 4494 
L 1172 4494 
z
" transform="scale(0.015625)"/>
        <path id="DejaVuSans-69" d="M 603 3500 
L 1178 3500 
L 1178 0 
L 603 0 
L 603 3500 
z
M 603 4863 
L 1178 4863 
L 1178 4134 
L 603 4134 
L 603 4863 
z
" transform="scale(0.015625)"/>
        <path id="DejaVuSans-6e" d="M 3513 2113 
L 3513 0 
L 2938 0 
L 2938 2094 
Q 2938 2591 2744 2837 
Q 2550 3084 2163 3084 
Q 1697 3084 1428 2787 
Q 1159 2491 1159 1978 
L 1159 0 
L 581 0 
L 581 3500 
L 1159 3500 
L 1159 2956 
Q 1366 3272 1645 3428 
Q 1925 3584 2291 3584 
Q 2894 3584 3203 3211 
Q 3513 2838 3513 2113 
z
" transform="scale(0.015625)"/>
       </defs>
       <use xlink:href="#DejaVuSans-61"/>
       <use xlink:href="#DejaVuSans-62" x="61.279297"/>
       <use xlink:href="#DejaVuSans-6f" x="124.755859"/>
       <use xlink:href="#DejaVuSans-72" x="185.9375"/>
       <use xlink:href="#DejaVuSans-74" x="227.050781"/>
       <use xlink:href="#DejaVuSans-69" x="266.259766"/>
       <use xlink:href="#DejaVuSans-6f" x="294.042969"/>
       <use xlink:href="#DejaVuSans-6e" x="355.224609"/>
      </g>
     </g>
    </g>
    <g id="xtick_2">
     <g id="line2d_2">
      <path d="M 145.06685 190.2727 
L 134.083661 179.289511 
L 123.100472 168.306322 
L 112.117283 157.323133 
L 101.134094 146.339944 
L 90.150904 135.356754 
L 79.167715 124.373565 
L 68.184526 113.390376 
L 57.201337 102.407187 
" clip-path="url(#p5890f4cf25)" style="fill: none; stroke: #b0b0b0; stroke-width: 0.8; stroke-linecap: square"/>
     </g>
     <g id="text_2">
      <!-- divorce -->
      <g transform="translate(36.291373 94.163317) scale(0.06 -0.06)">
       <defs>
        <path id="DejaVuSans-64" d="M 2906 2969 
L 2906 4863 
L 3481 4863 
L 3481 0 
L 2906 0 
L 2906 525 
Q 2725 213 2448 61 
Q 2172 -91 1784 -91 
Q 1150 -91 751 415 
Q 353 922 353 1747 
Q 353 2572 751 3078 
Q 1150 3584 1784 3584 
Q 2172 3584 2448 3432 
Q 2725 3281 2906 2969 
z
M 947 1747 
Q 947 1113 1208 752 
Q 1469 391 1925 391 
Q 2381 391 2643 752 
Q 2906 1113 2906 1747 
Q 2906 2381 2643 2742 
Q 2381 3103 1925 3103 
Q 1469 3103 1208 2742 
Q 947 2381 947 1747 
z
" transform="scale(0.015625)"/>
        <path id="DejaVuSans-76" d="M 191 3500 
L 800 3500 
L 1894 563 
L 2988 3500 
L 3597 3500 
L 2284 0 
L 1503 0 
L 191 3500 
z
" transform="scale(0.015625)"/>
        <path id="DejaVuSans-63" d="M 3122 3366 
L 3122 2828 
Q 2878 2963 2633 3030 
Q 2388 3097 2138 3097 
Q 1578 3097 1268 2742 
Q 959 2388 959 1747 
Q 959 1106 1268 751 
Q 1578 397 2138 397 
Q 2388 397 2633 464 
Q 2878 531 3122 666 
L 3122 134 
Q 2881 22 2623 -34 
Q 2366 -91 2075 -91 
Q 1284 -91 818 406 
Q 353 903 353 1747 
Q 353 2603 823 3093 
Q 1294 3584 2113 3584 
Q 2378 3584 2631 3529 
Q 2884 3475 3122 3366 
z
" transform="scale(0.015625)"/>
        <path id="DejaVuSans-65" d="M 3597 1894 
L 3597 1613 
L 953 1613 
Q 991 1019 1311 708 
Q 1631 397 2203 397 
Q 2534 397 2845 478 
Q 3156 559 3463 722 
L 3463 178 
Q 3153 47 2828 -22 
Q 2503 -91 2169 -91 
Q 1331 -91 842 396 
Q 353 884 353 1716 
Q 353 2575 817 3079 
Q 1281 3584 2069 3584 
Q 2775 3584 3186 3129 
Q 3597 2675 3597 1894 
z
M 3022 2063 
Q 3016 2534 2758 2815 
Q 2500 3097 2075 3097 
Q 1594 3097 1305 2825 
Q 1016 2553 972 2059 
L 3022 2063 
z
" transform="scale(0.015625)"/>
       </defs>
       <use xlink:href="#DejaVuSans-64"/>
       <use xlink:href="#DejaVuSans-69" x="63.476562"/>
       <use xlink:href="#DejaVuSans-76" x="91.259766"/>
       <use xlink:href="#DejaVuSans-6f" x="150.439453"/>
       <use xlink:href="#DejaVuSans-72" x="211.621094"/>
       <use xlink:href="#DejaVuSans-63" x="250.484375"/>
       <use xlink:href="#DejaVuSans-65" x="305.464844"/>
      </g>
     </g>
    </g>
    <g id="xtick_3">
     <g id="line2d_3">
      <path d="M 145.06685 190.2727 
L 129.534275 190.2727 
L 114.0017 190.2727 
L 98.469125 190.2727 
L 82.93655 190.2727 
L 67.403975 190.2727 
L 51.8714 190.2727 
L 36.338825 190.2727 
L 20.80625 190.2727 
" clip-path="url(#p5890f4cf25)" style="fill: none; stroke: #b0b0b0; stroke-width: 0.8; stroke-linecap: square"/>
     </g>
     <g id="text_3">
      <!-- $$$ -->
      <g transform="translate(1.08 191.928325) scale(0.06 -0.06)">
       <defs>
        <path id="DejaVuSans-24" d="M 2163 -941 
L 1850 -941 
L 1847 0 
Q 1519 6 1191 76 
Q 863 147 531 288 
L 531 850 
Q 850 650 1176 548 
Q 1503 447 1850 444 
L 1850 1869 
Q 1159 1981 845 2250 
Q 531 2519 531 2988 
Q 531 3497 872 3790 
Q 1213 4084 1850 4128 
L 1850 4863 
L 2163 4863 
L 2163 4138 
Q 2453 4125 2725 4076 
Q 2997 4028 3256 3944 
L 3256 3397 
Q 2997 3528 2723 3600 
Q 2450 3672 2163 3684 
L 2163 2350 
Q 2872 2241 3206 1959 
Q 3541 1678 3541 1191 
Q 3541 663 3186 358 
Q 2831 53 2163 6 
L 2163 -941 
z
M 1850 2406 
L 1850 3688 
Q 1488 3647 1297 3481 
Q 1106 3316 1106 3041 
Q 1106 2772 1282 2622 
Q 1459 2472 1850 2406 
z
M 2163 1806 
L 2163 453 
Q 2559 506 2761 678 
Q 2963 850 2963 1131 
Q 2963 1406 2770 1568 
Q 2578 1731 2163 1806 
z
" transform="scale(0.015625)"/>
       </defs>
       <use xlink:href="#DejaVuSans-24"/>
       <use xlink:href="#DejaVuSans-24" x="63.623047"/>
       <use xlink:href="#DejaVuSans-24" x="127.246094"/>
      </g>
     </g>
    </g>
    <g id="xtick_4">
     <g id="line2d_4">
      <path d="M 145.06685 190.2727 
L 134.083661 201.255889 
L 123.100472 212.239078 
L 112.117283 223.222267 
L 101.134094 234.205456 
L 90.150904 245.188646 
L 79.167715 256.171835 
L 68.184526 267.155024 
L 57.201337 278.138213 
" clip-path="url(#p5890f4cf25)" style="fill: none; stroke: #b0b0b0; stroke-width: 0.8; stroke-linecap: square"/>
     </g>
     <g id="text_4">
      <!-- university -->
      <g transform="translate(32.463092 289.693333) scale(0.06 -0.06)">
       <defs>
        <path id="DejaVuSans-75" d="M 544 1381 
L 544 3500 
L 1119 3500 
L 1119 1403 
Q 1119 906 1312 657 
Q 1506 409 1894 409 
Q 2359 409 2629 706 
Q 2900 1003 2900 1516 
L 2900 3500 
L 3475 3500 
L 3475 0 
L 2900 0 
L 2900 538 
Q 2691 219 2414 64 
Q 2138 -91 1772 -91 
Q 1169 -91 856 284 
Q 544 659 544 1381 
z
M 1991 3584 
L 1991 3584 
z
" transform="scale(0.015625)"/>
        <path id="DejaVuSans-73" d="M 2834 3397 
L 2834 2853 
Q 2591 2978 2328 3040 
Q 2066 3103 1784 3103 
Q 1356 3103 1142 2972 
Q 928 2841 928 2578 
Q 928 2378 1081 2264 
Q 1234 2150 1697 2047 
L 1894 2003 
Q 2506 1872 2764 1633 
Q 3022 1394 3022 966 
Q 3022 478 2636 193 
Q 2250 -91 1575 -91 
Q 1294 -91 989 -36 
Q 684 19 347 128 
L 347 722 
Q 666 556 975 473 
Q 1284 391 1588 391 
Q 1994 391 2212 530 
Q 2431 669 2431 922 
Q 2431 1156 2273 1281 
Q 2116 1406 1581 1522 
L 1381 1569 
Q 847 1681 609 1914 
Q 372 2147 372 2553 
Q 372 3047 722 3315 
Q 1072 3584 1716 3584 
Q 2034 3584 2315 3537 
Q 2597 3491 2834 3397 
z
" transform="scale(0.015625)"/>
        <path id="DejaVuSans-79" d="M 2059 -325 
Q 1816 -950 1584 -1140 
Q 1353 -1331 966 -1331 
L 506 -1331 
L 506 -850 
L 844 -850 
Q 1081 -850 1212 -737 
Q 1344 -625 1503 -206 
L 1606 56 
L 191 3500 
L 800 3500 
L 1894 763 
L 2988 3500 
L 3597 3500 
L 2059 -325 
z
" transform="scale(0.015625)"/>
       </defs>
       <use xlink:href="#DejaVuSans-75"/>
       <use xlink:href="#DejaVuSans-6e" x="63.378906"/>
       <use xlink:href="#DejaVuSans-69" x="126.757812"/>
       <use xlink:href="#DejaVuSans-76" x="154.541016"/>
       <use xlink:href="#DejaVuSans-65" x="213.720703"/>
       <use xlink:href="#DejaVuSans-72" x="275.244141"/>
       <use xlink:href="#DejaVuSans-73" x="316.357422"/>
       <use xlink:href="#DejaVuSans-69" x="368.457031"/>
       <use xlink:href="#DejaVuSans-74" x="396.240234"/>
       <use xlink:href="#DejaVuSans-79" x="435.449219"/>
      </g>
     </g>
    </g>
    <g id="xtick_5">
     <g id="line2d_5">
      <path d="M 145.06685 190.2727 
L 145.06685 205.805275 
L 145.06685 221.33785 
L 145.06685 236.870425 
L 145.06685 252.403 
L 145.06685 267.935575 
L 145.06685 283.46815 
L 145.06685 299.000725 
L 145.06685 314.5333 
" clip-path="url(#p5890f4cf25)" style="fill: none; stroke: #b0b0b0; stroke-width: 0.8; stroke-linecap: square"/>
     </g>
     <g id="text_5">
      <!-- women movement -->
      <g transform="translate(116.930131 330.188925) scale(0.06 -0.06)">
       <defs>
        <path id="DejaVuSans-77" d="M 269 3500 
L 844 3500 
L 1563 769 
L 2278 3500 
L 2956 3500 
L 3675 769 
L 4391 3500 
L 4966 3500 
L 4050 0 
L 3372 0 
L 2619 2869 
L 1863 0 
L 1184 0 
L 269 3500 
z
" transform="scale(0.015625)"/>
        <path id="DejaVuSans-6d" d="M 3328 2828 
Q 3544 3216 3844 3400 
Q 4144 3584 4550 3584 
Q 5097 3584 5394 3201 
Q 5691 2819 5691 2113 
L 5691 0 
L 5113 0 
L 5113 2094 
Q 5113 2597 4934 2840 
Q 4756 3084 4391 3084 
Q 3944 3084 3684 2787 
Q 3425 2491 3425 1978 
L 3425 0 
L 2847 0 
L 2847 2094 
Q 2847 2600 2669 2842 
Q 2491 3084 2119 3084 
Q 1678 3084 1418 2786 
Q 1159 2488 1159 1978 
L 1159 0 
L 581 0 
L 581 3500 
L 1159 3500 
L 1159 2956 
Q 1356 3278 1631 3431 
Q 1906 3584 2284 3584 
Q 2666 3584 2933 3390 
Q 3200 3197 3328 2828 
z
" transform="scale(0.015625)"/>
        <path id="DejaVuSans-20" transform="scale(0.015625)"/>
       </defs>
       <use xlink:href="#DejaVuSans-77"/>
       <use xlink:href="#DejaVuSans-6f" x="81.787109"/>
       <use xlink:href="#DejaVuSans-6d" x="142.96875"/>
       <use xlink:href="#DejaVuSans-65" x="240.380859"/>
       <use xlink:href="#DejaVuSans-6e" x="301.904297"/>
       <use xlink:href="#DejaVuSans-20" x="365.283203"/>
       <use xlink:href="#DejaVuSans-6d" x="397.070312"/>
       <use xlink:href="#DejaVuSans-6f" x="494.482422"/>
       <use xlink:href="#DejaVuSans-76" x="555.664062"/>
       <use xlink:href="#DejaVuSans-65" x="614.84375"/>
       <use xlink:href="#DejaVuSans-6d" x="676.367188"/>
       <use xlink:href="#DejaVuSans-65" x="773.779297"/>
       <use xlink:href="#DejaVuSans-6e" x="835.302734"/>
       <use xlink:href="#DejaVuSans-74" x="898.681641"/>
      </g>
     </g>
    </g>
    <g id="xtick_6">
     <g id="line2d_6">
      <path d="M 145.06685 190.2727 
L 156.050039 201.255889 
L 167.033228 212.239078 
L 178.016417 223.222267 
L 188.999606 234.205456 
L 199.982796 245.188646 
L 210.965985 256.171835 
L 221.949174 267.155024 
L 232.932363 278.138213 
" clip-path="url(#p5890f4cf25)" style="fill: none; stroke: #b0b0b0; stroke-width: 0.8; stroke-linecap: square"/>
     </g>
     <g id="text_6">
      <!-- politician -->
      <g transform="translate(229.192639 289.693333) scale(0.06 -0.06)">
       <defs>
        <path id="DejaVuSans-70" d="M 1159 525 
L 1159 -1331 
L 581 -1331 
L 581 3500 
L 1159 3500 
L 1159 2969 
Q 1341 3281 1617 3432 
Q 1894 3584 2278 3584 
Q 2916 3584 3314 3078 
Q 3713 2572 3713 1747 
Q 3713 922 3314 415 
Q 2916 -91 2278 -91 
Q 1894 -91 1617 61 
Q 1341 213 1159 525 
z
M 3116 1747 
Q 3116 2381 2855 2742 
Q 2594 3103 2138 3103 
Q 1681 3103 1420 2742 
Q 1159 2381 1159 1747 
Q 1159 1113 1420 752 
Q 1681 391 2138 391 
Q 2594 391 2855 752 
Q 3116 1113 3116 1747 
z
" transform="scale(0.015625)"/>
        <path id="DejaVuSans-6c" d="M 603 4863 
L 1178 4863 
L 1178 0 
L 603 0 
L 603 4863 
z
" transform="scale(0.015625)"/>
       </defs>
       <use xlink:href="#DejaVuSans-70"/>
       <use xlink:href="#DejaVuSans-6f" x="63.476562"/>
       <use xlink:href="#DejaVuSans-6c" x="124.658203"/>
       <use xlink:href="#DejaVuSans-69" x="152.441406"/>
       <use xlink:href="#DejaVuSans-74" x="180.224609"/>
       <use xlink:href="#DejaVuSans-69" x="219.433594"/>
       <use xlink:href="#DejaVuSans-63" x="247.216797"/>
       <use xlink:href="#DejaVuSans-69" x="302.197266"/>
       <use xlink:href="#DejaVuSans-61" x="329.980469"/>
       <use xlink:href="#DejaVuSans-6e" x="391.259766"/>
      </g>
     </g>
    </g>
    <g id="xtick_7">
     <g id="line2d_7">
      <path d="M 145.06685 190.2727 
L 160.599425 190.2727 
L 176.132 190.2727 
L 191.664575 190.2727 
L 207.19715 190.2727 
L 222.729725 190.2727 
L 238.2623 190.2727 
L 253.794875 190.2727 
L 269.32745 190.2727 
" clip-path="url(#p5890f4cf25)" style="fill: none; stroke: #b0b0b0; stroke-width: 0.8; stroke-linecap: square"/>
     </g>
     <g id="text_7">
      <!-- job -->
      <g transform="translate(278.753856 191.928325) scale(0.06 -0.06)">
       <defs>
        <path id="DejaVuSans-6a" d="M 603 3500 
L 1178 3500 
L 1178 -63 
Q 1178 -731 923 -1031 
Q 669 -1331 103 -1331 
L -116 -1331 
L -116 -844 
L 38 -844 
Q 366 -844 484 -692 
Q 603 -541 603 -63 
L 603 3500 
z
M 603 4863 
L 1178 4863 
L 1178 4134 
L 603 4134 
L 603 4863 
z
" transform="scale(0.015625)"/>
       </defs>
       <use xlink:href="#DejaVuSans-6a"/>
       <use xlink:href="#DejaVuSans-6f" x="27.783203"/>
       <use xlink:href="#DejaVuSans-62" x="88.964844"/>
      </g>
     </g>
    </g>
    <g id="xtick_8">
     <g id="line2d_8">
      <path d="M 145.06685 190.2727 
L 156.050039 179.289511 
L 167.033228 168.306322 
L 178.016417 157.323133 
L 188.999606 146.339944 
L 199.982796 135.356754 
L 210.965985 124.373565 
L 221.949174 113.390376 
L 232.932363 102.407187 
" clip-path="url(#p5890f4cf25)" style="fill: none; stroke: #b0b0b0; stroke-width: 0.8; stroke-linecap: square"/>
     </g>
     <g id="text_8">
      <!-- choice -->
      <g transform="translate(233.116545 94.163317) scale(0.06 -0.06)">
       <defs>
        <path id="DejaVuSans-68" d="M 3513 2113 
L 3513 0 
L 2938 0 
L 2938 2094 
Q 2938 2591 2744 2837 
Q 2550 3084 2163 3084 
Q 1697 3084 1428 2787 
Q 1159 2491 1159 1978 
L 1159 0 
L 581 0 
L 581 4863 
L 1159 4863 
L 1159 2956 
Q 1366 3272 1645 3428 
Q 1925 3584 2291 3584 
Q 2894 3584 3203 3211 
Q 3513 2838 3513 2113 
z
" transform="scale(0.015625)"/>
       </defs>
       <use xlink:href="#DejaVuSans-63"/>
       <use xlink:href="#DejaVuSans-68" x="54.980469"/>
       <use xlink:href="#DejaVuSans-6f" x="118.359375"/>
       <use xlink:href="#DejaVuSans-69" x="179.541016"/>
       <use xlink:href="#DejaVuSans-63" x="207.324219"/>
       <use xlink:href="#DejaVuSans-65" x="262.304688"/>
      </g>
     </g>
    </g>
   </g>
   <g id="matplotlib.axis_2">
    <g id="ytick_1">
     <g id="line2d_9">
      <path d="M 145.06685 190.2727 
L 145.06685 190.2727 
L 145.06685 190.2727 
L 145.06685 190.2727 
L 145.06685 190.2727 
L 145.06685 190.2727 
L 145.06685 190.2727 
L 145.06685 190.2727 
L 145.06685 190.2727 
" clip-path="url(#p5890f4cf25)" style="fill: none; stroke: #b0b0b0; stroke-width: 0.8; stroke-linecap: square"/>
     </g>
     <g id="text_9">
      <!-- 0.0 -->
      <g transform="translate(145.06685 189.024887) scale(0.06 -0.06)">
       <defs>
        <path id="DejaVuSans-30" d="M 2034 4250 
Q 1547 4250 1301 3770 
Q 1056 3291 1056 2328 
Q 1056 1369 1301 889 
Q 1547 409 2034 409 
Q 2525 409 2770 889 
Q 3016 1369 3016 2328 
Q 3016 3291 2770 3770 
Q 2525 4250 2034 4250 
z
M 2034 4750 
Q 2819 4750 3233 4129 
Q 3647 3509 3647 2328 
Q 3647 1150 3233 529 
Q 2819 -91 2034 -91 
Q 1250 -91 836 529 
Q 422 1150 422 2328 
Q 422 3509 836 4129 
Q 1250 4750 2034 4750 
z
" transform="scale(0.015625)"/>
        <path id="DejaVuSans-2e" d="M 684 794 
L 1344 794 
L 1344 0 
L 684 0 
L 684 794 
z
" transform="scale(0.015625)"/>
       </defs>
       <use xlink:href="#DejaVuSans-30"/>
       <use xlink:href="#DejaVuSans-2e" x="63.623047"/>
       <use xlink:href="#DejaVuSans-30" x="95.410156"/>
      </g>
     </g>
    </g>
    <g id="ytick_2">
     <g id="line2d_10">
      <path d="M 145.06685 165.42058 
L 127.493747 172.699597 
L 120.21473 190.2727 
L 127.493747 207.845803 
L 145.06685 215.12482 
L 162.639953 207.845803 
L 169.91897 190.2727 
L 162.639953 172.699597 
L 145.06685 165.42058 
" clip-path="url(#p5890f4cf25)" style="fill: none; stroke: #b0b0b0; stroke-width: 0.8; stroke-linecap: square"/>
     </g>
     <g id="text_10">
      <!-- 0.2 -->
      <g transform="translate(135.556355 166.064522) scale(0.06 -0.06)">
       <defs>
        <path id="DejaVuSans-32" d="M 1228 531 
L 3431 531 
L 3431 0 
L 469 0 
L 469 531 
Q 828 903 1448 1529 
Q 2069 2156 2228 2338 
Q 2531 2678 2651 2914 
Q 2772 3150 2772 3378 
Q 2772 3750 2511 3984 
Q 2250 4219 1831 4219 
Q 1534 4219 1204 4116 
Q 875 4013 500 3803 
L 500 4441 
Q 881 4594 1212 4672 
Q 1544 4750 1819 4750 
Q 2544 4750 2975 4387 
Q 3406 4025 3406 3419 
Q 3406 3131 3298 2873 
Q 3191 2616 2906 2266 
Q 2828 2175 2409 1742 
Q 1991 1309 1228 531 
z
" transform="scale(0.015625)"/>
       </defs>
       <use xlink:href="#DejaVuSans-30"/>
       <use xlink:href="#DejaVuSans-2e" x="63.623047"/>
       <use xlink:href="#DejaVuSans-32" x="95.410156"/>
      </g>
     </g>
    </g>
    <g id="ytick_3">
     <g id="line2d_11">
      <path d="M 145.06685 140.56846 
L 109.920645 155.126495 
L 95.36261 190.2727 
L 109.920645 225.418905 
L 145.06685 239.97694 
L 180.213055 225.418905 
L 194.77109 190.2727 
L 180.213055 155.126495 
L 145.06685 140.56846 
" clip-path="url(#p5890f4cf25)" style="fill: none; stroke: #b0b0b0; stroke-width: 0.8; stroke-linecap: square"/>
     </g>
     <g id="text_11">
      <!-- 0.4 -->
      <g transform="translate(126.045861 143.104157) scale(0.06 -0.06)">
       <defs>
        <path id="DejaVuSans-34" d="M 2419 4116 
L 825 1625 
L 2419 1625 
L 2419 4116 
z
M 2253 4666 
L 3047 4666 
L 3047 1625 
L 3713 1625 
L 3713 1100 
L 3047 1100 
L 3047 0 
L 2419 0 
L 2419 1100 
L 313 1100 
L 313 1709 
L 2253 4666 
z
" transform="scale(0.015625)"/>
       </defs>
       <use xlink:href="#DejaVuSans-30"/>
       <use xlink:href="#DejaVuSans-2e" x="63.623047"/>
       <use xlink:href="#DejaVuSans-34" x="95.410156"/>
      </g>
     </g>
    </g>
    <g id="ytick_4">
     <g id="line2d_12">
      <path d="M 145.06685 115.71634 
L 92.347542 137.553392 
L 70.51049 190.2727 
L 92.347542 242.992008 
L 145.06685 264.82906 
L 197.786158 242.992008 
L 219.62321 190.2727 
L 197.786158 137.553392 
L 145.06685 115.71634 
" clip-path="url(#p5890f4cf25)" style="fill: none; stroke: #b0b0b0; stroke-width: 0.8; stroke-linecap: square"/>
     </g>
     <g id="text_12">
      <!-- 0.6 -->
      <g transform="translate(116.535366 120.143792) scale(0.06 -0.06)">
       <defs>
        <path id="DejaVuSans-36" d="M 2113 2584 
Q 1688 2584 1439 2293 
Q 1191 2003 1191 1497 
Q 1191 994 1439 701 
Q 1688 409 2113 409 
Q 2538 409 2786 701 
Q 3034 994 3034 1497 
Q 3034 2003 2786 2293 
Q 2538 2584 2113 2584 
z
M 3366 4563 
L 3366 3988 
Q 3128 4100 2886 4159 
Q 2644 4219 2406 4219 
Q 1781 4219 1451 3797 
Q 1122 3375 1075 2522 
Q 1259 2794 1537 2939 
Q 1816 3084 2150 3084 
Q 2853 3084 3261 2657 
Q 3669 2231 3669 1497 
Q 3669 778 3244 343 
Q 2819 -91 2113 -91 
Q 1303 -91 875 529 
Q 447 1150 447 2328 
Q 447 3434 972 4092 
Q 1497 4750 2381 4750 
Q 2619 4750 2861 4703 
Q 3103 4656 3366 4563 
z
" transform="scale(0.015625)"/>
       </defs>
       <use xlink:href="#DejaVuSans-30"/>
       <use xlink:href="#DejaVuSans-2e" x="63.623047"/>
       <use xlink:href="#DejaVuSans-36" x="95.410156"/>
      </g>
     </g>
    </g>
    <g id="ytick_5">
     <g id="line2d_13">
      <path d="M 145.06685 90.86422 
L 74.77444 119.98029 
L 45.65837 190.2727 
L 74.77444 260.56511 
L 145.06685 289.68118 
L 215.35926 260.56511 
L 244.47533 190.2727 
L 215.35926 119.98029 
L 145.06685 90.86422 
" clip-path="url(#p5890f4cf25)" style="fill: none; stroke: #b0b0b0; stroke-width: 0.8; stroke-linecap: square"/>
     </g>
     <g id="text_13">
      <!-- 0.8 -->
      <g transform="translate(107.024872 97.183427) scale(0.06 -0.06)">
       <defs>
        <path id="DejaVuSans-38" d="M 2034 2216 
Q 1584 2216 1326 1975 
Q 1069 1734 1069 1313 
Q 1069 891 1326 650 
Q 1584 409 2034 409 
Q 2484 409 2743 651 
Q 3003 894 3003 1313 
Q 3003 1734 2745 1975 
Q 2488 2216 2034 2216 
z
M 1403 2484 
Q 997 2584 770 2862 
Q 544 3141 544 3541 
Q 544 4100 942 4425 
Q 1341 4750 2034 4750 
Q 2731 4750 3128 4425 
Q 3525 4100 3525 3541 
Q 3525 3141 3298 2862 
Q 3072 2584 2669 2484 
Q 3125 2378 3379 2068 
Q 3634 1759 3634 1313 
Q 3634 634 3220 271 
Q 2806 -91 2034 -91 
Q 1263 -91 848 271 
Q 434 634 434 1313 
Q 434 1759 690 2068 
Q 947 2378 1403 2484 
z
M 1172 3481 
Q 1172 3119 1398 2916 
Q 1625 2713 2034 2713 
Q 2441 2713 2670 2916 
Q 2900 3119 2900 3481 
Q 2900 3844 2670 4047 
Q 2441 4250 2034 4250 
Q 1625 4250 1398 4047 
Q 1172 3844 1172 3481 
z
" transform="scale(0.015625)"/>
       </defs>
       <use xlink:href="#DejaVuSans-30"/>
       <use xlink:href="#DejaVuSans-2e" x="63.623047"/>
       <use xlink:href="#DejaVuSans-38" x="95.410156"/>
      </g>
     </g>
    </g>
    <g id="ytick_6">
     <g id="line2d_14">
      <path d="M 145.06685 66.0121 
L 57.201337 102.407187 
L 20.80625 190.2727 
L 57.201337 278.138213 
L 145.06685 314.5333 
L 232.932363 278.138213 
L 269.32745 190.2727 
L 232.932363 102.407187 
L 145.06685 66.0121 
" clip-path="url(#p5890f4cf25)" style="fill: none; stroke: #b0b0b0; stroke-width: 0.8; stroke-linecap: square"/>
     </g>
     <g id="text_14">
      <!-- 1.0 -->
      <g transform="translate(97.514377 74.223062) scale(0.06 -0.06)">
       <defs>
        <path id="DejaVuSans-31" d="M 794 531 
L 1825 531 
L 1825 4091 
L 703 3866 
L 703 4441 
L 1819 4666 
L 2450 4666 
L 2450 531 
L 3481 531 
L 3481 0 
L 794 0 
L 794 531 
z
" transform="scale(0.015625)"/>
       </defs>
       <use xlink:href="#DejaVuSans-31"/>
       <use xlink:href="#DejaVuSans-2e" x="63.623047"/>
       <use xlink:href="#DejaVuSans-30" x="95.410156"/>
      </g>
     </g>
    </g>
   </g>
   <g id="line2d_15">
    <path d="M 145.06685 124.610119 
L 86.79462 132.00047 
L 74.76815 190.2727 
L 74.054439 261.285111 
L 145.06685 269.152049 
L 212.431472 257.637322 
L 246.319565 190.2727 
L 206.645983 128.693567 
L 145.06685 124.610119 
" clip-path="url(#p5890f4cf25)" style="fill: none; stroke: #ffc100; stroke-linecap: square"/>
   </g>
   <g id="line2d_16">
    <path d="M 145.06685 125.560265 
L 83.566223 128.772073 
L 75.715452 190.2727 
L 69.397614 265.941936 
L 145.06685 275.107657 
L 217.982931 263.188781 
L 251.804942 190.2727 
L 206.512545 128.827005 
L 145.06685 125.560265 
" clip-path="url(#p5890f4cf25)" style="fill: none; stroke: #ff4d00; stroke-linecap: square"/>
   </g>
   <g id="patch_3">
    <path d="M 145.06685 66.0121 
L 57.201337 102.407187 
L 20.80625 190.2727 
L 57.201337 278.138213 
L 145.06685 314.5333 
L 232.932363 278.138213 
L 269.32745 190.2727 
L 232.932363 102.407187 
L 145.06685 66.0121 
z
" style="fill: none; stroke: #000000; stroke-width: 0.8; stroke-linejoin: miter; stroke-linecap: square"/>
   </g>
   <g id="text_15">
    <!-- Germany -->
    <g transform="translate(124.7756 45.253663) scale(0.08 -0.08)">
     <defs>
      <path id="DejaVuSans-Bold-47" d="M 4781 347 
Q 4331 128 3847 18 
Q 3363 -91 2847 -91 
Q 1681 -91 1000 561 
Q 319 1213 319 2328 
Q 319 3456 1012 4103 
Q 1706 4750 2913 4750 
Q 3378 4750 3804 4662 
Q 4231 4575 4609 4403 
L 4609 3438 
Q 4219 3659 3833 3768 
Q 3447 3878 3059 3878 
Q 2341 3878 1952 3476 
Q 1563 3075 1563 2328 
Q 1563 1588 1938 1184 
Q 2313 781 3003 781 
Q 3191 781 3352 804 
Q 3513 828 3641 878 
L 3641 1784 
L 2906 1784 
L 2906 2591 
L 4781 2591 
L 4781 347 
z
" transform="scale(0.015625)"/>
      <path id="DejaVuSans-Bold-65" d="M 4031 1759 
L 4031 1441 
L 1416 1441 
Q 1456 1047 1700 850 
Q 1944 653 2381 653 
Q 2734 653 3104 758 
Q 3475 863 3866 1075 
L 3866 213 
Q 3469 63 3072 -14 
Q 2675 -91 2278 -91 
Q 1328 -91 801 392 
Q 275 875 275 1747 
Q 275 2603 792 3093 
Q 1309 3584 2216 3584 
Q 3041 3584 3536 3087 
Q 4031 2591 4031 1759 
z
M 2881 2131 
Q 2881 2450 2695 2645 
Q 2509 2841 2209 2841 
Q 1884 2841 1681 2658 
Q 1478 2475 1428 2131 
L 2881 2131 
z
" transform="scale(0.015625)"/>
      <path id="DejaVuSans-Bold-72" d="M 3138 2547 
Q 2991 2616 2845 2648 
Q 2700 2681 2553 2681 
Q 2122 2681 1889 2404 
Q 1656 2128 1656 1613 
L 1656 0 
L 538 0 
L 538 3500 
L 1656 3500 
L 1656 2925 
Q 1872 3269 2151 3426 
Q 2431 3584 2822 3584 
Q 2878 3584 2943 3579 
Q 3009 3575 3134 3559 
L 3138 2547 
z
" transform="scale(0.015625)"/>
      <path id="DejaVuSans-Bold-6d" d="M 3781 2919 
Q 3994 3244 4286 3414 
Q 4578 3584 4928 3584 
Q 5531 3584 5847 3212 
Q 6163 2841 6163 2131 
L 6163 0 
L 5038 0 
L 5038 1825 
Q 5041 1866 5042 1909 
Q 5044 1953 5044 2034 
Q 5044 2406 4934 2573 
Q 4825 2741 4581 2741 
Q 4263 2741 4089 2478 
Q 3916 2216 3909 1719 
L 3909 0 
L 2784 0 
L 2784 1825 
Q 2784 2406 2684 2573 
Q 2584 2741 2328 2741 
Q 2006 2741 1831 2477 
Q 1656 2213 1656 1722 
L 1656 0 
L 531 0 
L 531 3500 
L 1656 3500 
L 1656 2988 
Q 1863 3284 2130 3434 
Q 2397 3584 2719 3584 
Q 3081 3584 3359 3409 
Q 3638 3234 3781 2919 
z
" transform="scale(0.015625)"/>
      <path id="DejaVuSans-Bold-61" d="M 2106 1575 
Q 1756 1575 1579 1456 
Q 1403 1338 1403 1106 
Q 1403 894 1545 773 
Q 1688 653 1941 653 
Q 2256 653 2472 879 
Q 2688 1106 2688 1447 
L 2688 1575 
L 2106 1575 
z
M 3816 1997 
L 3816 0 
L 2688 0 
L 2688 519 
Q 2463 200 2181 54 
Q 1900 -91 1497 -91 
Q 953 -91 614 226 
Q 275 544 275 1050 
Q 275 1666 698 1953 
Q 1122 2241 2028 2241 
L 2688 2241 
L 2688 2328 
Q 2688 2594 2478 2717 
Q 2269 2841 1825 2841 
Q 1466 2841 1156 2769 
Q 847 2697 581 2553 
L 581 3406 
Q 941 3494 1303 3539 
Q 1666 3584 2028 3584 
Q 2975 3584 3395 3211 
Q 3816 2838 3816 1997 
z
" transform="scale(0.015625)"/>
      <path id="DejaVuSans-Bold-6e" d="M 4056 2131 
L 4056 0 
L 2931 0 
L 2931 347 
L 2931 1631 
Q 2931 2084 2911 2256 
Q 2891 2428 2841 2509 
Q 2775 2619 2662 2680 
Q 2550 2741 2406 2741 
Q 2056 2741 1856 2470 
Q 1656 2200 1656 1722 
L 1656 0 
L 538 0 
L 538 3500 
L 1656 3500 
L 1656 2988 
Q 1909 3294 2193 3439 
Q 2478 3584 2822 3584 
Q 3428 3584 3742 3212 
Q 4056 2841 4056 2131 
z
" transform="scale(0.015625)"/>
      <path id="DejaVuSans-Bold-79" d="M 78 3500 
L 1197 3500 
L 2138 1125 
L 2938 3500 
L 4056 3500 
L 2584 -331 
Q 2363 -916 2067 -1148 
Q 1772 -1381 1288 -1381 
L 641 -1381 
L 641 -647 
L 991 -647 
Q 1275 -647 1404 -556 
Q 1534 -466 1606 -231 
L 1638 -134 
L 78 3500 
z
" transform="scale(0.015625)"/>
     </defs>
     <use xlink:href="#DejaVuSans-Bold-47"/>
     <use xlink:href="#DejaVuSans-Bold-65" x="82.080078"/>
     <use xlink:href="#DejaVuSans-Bold-72" x="149.902344"/>
     <use xlink:href="#DejaVuSans-Bold-6d" x="199.21875"/>
     <use xlink:href="#DejaVuSans-Bold-61" x="303.417969"/>
     <use xlink:href="#DejaVuSans-Bold-6e" x="370.898438"/>
     <use xlink:href="#DejaVuSans-Bold-79" x="442.089844"/>
    </g>
   </g>
   <g id="legend_1">
    <g id="patch_4">
     <path d="M 245.80813 41.15998 
L 291.226414 41.15998 
Q 292.559214 41.15998 292.559214 39.82718 
L 292.559214 23.596175 
Q 292.559214 22.263375 291.226414 22.263375 
L 245.80813 22.263375 
Q 244.47533 22.263375 244.47533 23.596175 
L 244.47533 39.82718 
Q 244.47533 41.15998 245.80813 41.15998 
z
" style="fill: #ffffff; opacity: 0.8; stroke: #cccccc; stroke-linejoin: miter"/>
    </g>
    <g id="line2d_17">
     <path d="M 247.14093 27.660174 
L 253.80493 27.660174 
L 260.46893 27.660174 
" style="fill: none; stroke: #ffc100; stroke-linecap: square"/>
    </g>
    <g id="text_16">
     <!-- Male -->
     <g transform="translate(265.80013 29.992574) scale(0.06664 -0.06664)">
      <defs>
       <path id="DejaVuSans-4d" d="M 628 4666 
L 1569 4666 
L 2759 1491 
L 3956 4666 
L 4897 4666 
L 4897 0 
L 4281 0 
L 4281 4097 
L 3078 897 
L 2444 897 
L 1241 4097 
L 1241 0 
L 628 0 
L 628 4666 
z
" transform="scale(0.015625)"/>
      </defs>
      <use xlink:href="#DejaVuSans-4d"/>
      <use xlink:href="#DejaVuSans-61" x="86.279297"/>
      <use xlink:href="#DejaVuSans-6c" x="147.558594"/>
      <use xlink:href="#DejaVuSans-65" x="175.341797"/>
     </g>
    </g>
    <g id="line2d_18">
     <path d="M 247.14093 34.776076 
L 253.80493 34.776076 
L 260.46893 34.776076 
" style="fill: none; stroke: #ff4d00; stroke-linecap: square"/>
    </g>
    <g id="text_17">
     <!-- Female -->
     <g transform="translate(265.80013 37.108476) scale(0.06664 -0.06664)">
      <defs>
       <path id="DejaVuSans-46" d="M 628 4666 
L 3309 4666 
L 3309 4134 
L 1259 4134 
L 1259 2759 
L 3109 2759 
L 3109 2228 
L 1259 2228 
L 1259 0 
L 628 0 
L 628 4666 
z
" transform="scale(0.015625)"/>
      </defs>
      <use xlink:href="#DejaVuSans-46"/>
      <use xlink:href="#DejaVuSans-65" x="52.019531"/>
      <use xlink:href="#DejaVuSans-6d" x="113.542969"/>
      <use xlink:href="#DejaVuSans-61" x="210.955078"/>
      <use xlink:href="#DejaVuSans-6c" x="272.234375"/>
      <use xlink:href="#DejaVuSans-65" x="300.017578"/>
     </g>
    </g>
   </g>
  </g>
  <g id="axes_2">
   <g id="patch_5">
    <path d="M 145.06685 374.6133 
L 57.201337 411.008387 
L 20.80625 498.8739 
L 57.201337 586.739413 
L 145.06685 623.1345 
L 232.932363 586.739413 
L 269.32745 498.8739 
L 232.932363 411.008387 
z
" style="fill: #ffffff"/>
   </g>
   <g id="matplotlib.axis_3">
    <g id="xtick_9">
     <g id="line2d_19">
      <path d="M 145.06685 498.8739 
L 145.06685 483.341325 
L 145.06685 467.80875 
L 145.06685 452.276175 
L 145.06685 436.7436 
L 145.06685 421.211025 
L 145.06685 405.67845 
L 145.06685 390.145875 
L 145.06685 374.6133 
" clip-path="url(#pddebfc6904)" style="fill: none; stroke: #b0b0b0; stroke-width: 0.8; stroke-linecap: square"/>
     </g>
     <g id="text_18">
      <!-- abortion -->
      <g transform="translate(132.508569 362.268925) scale(0.06 -0.06)">
       <use xlink:href="#DejaVuSans-61"/>
       <use xlink:href="#DejaVuSans-62" x="61.279297"/>
       <use xlink:href="#DejaVuSans-6f" x="124.755859"/>
       <use xlink:href="#DejaVuSans-72" x="185.9375"/>
       <use xlink:href="#DejaVuSans-74" x="227.050781"/>
       <use xlink:href="#DejaVuSans-69" x="266.259766"/>
       <use xlink:href="#DejaVuSans-6f" x="294.042969"/>
       <use xlink:href="#DejaVuSans-6e" x="355.224609"/>
      </g>
     </g>
    </g>
    <g id="xtick_10">
     <g id="line2d_20">
      <path d="M 145.06685 498.8739 
L 134.083661 487.890711 
L 123.100472 476.907522 
L 112.117283 465.924333 
L 101.134094 454.941144 
L 90.150904 443.957954 
L 79.167715 432.974765 
L 68.184526 421.991576 
L 57.201337 411.008387 
" clip-path="url(#pddebfc6904)" style="fill: none; stroke: #b0b0b0; stroke-width: 0.8; stroke-linecap: square"/>
     </g>
     <g id="text_19">
      <!-- divorce -->
      <g transform="translate(36.291373 402.764517) scale(0.06 -0.06)">
       <use xlink:href="#DejaVuSans-64"/>
       <use xlink:href="#DejaVuSans-69" x="63.476562"/>
       <use xlink:href="#DejaVuSans-76" x="91.259766"/>
       <use xlink:href="#DejaVuSans-6f" x="150.439453"/>
       <use xlink:href="#DejaVuSans-72" x="211.621094"/>
       <use xlink:href="#DejaVuSans-63" x="250.484375"/>
       <use xlink:href="#DejaVuSans-65" x="305.464844"/>
      </g>
     </g>
    </g>
    <g id="xtick_11">
     <g id="line2d_21">
      <path d="M 145.06685 498.8739 
L 129.534275 498.8739 
L 114.0017 498.8739 
L 98.469125 498.8739 
L 82.93655 498.8739 
L 67.403975 498.8739 
L 51.8714 498.8739 
L 36.338825 498.8739 
L 20.80625 498.8739 
" clip-path="url(#pddebfc6904)" style="fill: none; stroke: #b0b0b0; stroke-width: 0.8; stroke-linecap: square"/>
     </g>
     <g id="text_20">
      <!-- $$$ -->
      <g transform="translate(1.08 500.529525) scale(0.06 -0.06)">
       <use xlink:href="#DejaVuSans-24"/>
       <use xlink:href="#DejaVuSans-24" x="63.623047"/>
       <use xlink:href="#DejaVuSans-24" x="127.246094"/>
      </g>
     </g>
    </g>
    <g id="xtick_12">
     <g id="line2d_22">
      <path d="M 145.06685 498.8739 
L 134.083661 509.857089 
L 123.100472 520.840278 
L 112.117283 531.823467 
L 101.134094 542.806656 
L 90.150904 553.789846 
L 79.167715 564.773035 
L 68.184526 575.756224 
L 57.201337 586.739413 
" clip-path="url(#pddebfc6904)" style="fill: none; stroke: #b0b0b0; stroke-width: 0.8; stroke-linecap: square"/>
     </g>
     <g id="text_21">
      <!-- university -->
      <g transform="translate(32.463092 598.294533) scale(0.06 -0.06)">
       <use xlink:href="#DejaVuSans-75"/>
       <use xlink:href="#DejaVuSans-6e" x="63.378906"/>
       <use xlink:href="#DejaVuSans-69" x="126.757812"/>
       <use xlink:href="#DejaVuSans-76" x="154.541016"/>
       <use xlink:href="#DejaVuSans-65" x="213.720703"/>
       <use xlink:href="#DejaVuSans-72" x="275.244141"/>
       <use xlink:href="#DejaVuSans-73" x="316.357422"/>
       <use xlink:href="#DejaVuSans-69" x="368.457031"/>
       <use xlink:href="#DejaVuSans-74" x="396.240234"/>
       <use xlink:href="#DejaVuSans-79" x="435.449219"/>
      </g>
     </g>
    </g>
    <g id="xtick_13">
     <g id="line2d_23">
      <path d="M 145.06685 498.8739 
L 145.06685 514.406475 
L 145.06685 529.93905 
L 145.06685 545.471625 
L 145.06685 561.0042 
L 145.06685 576.536775 
L 145.06685 592.06935 
L 145.06685 607.601925 
L 145.06685 623.1345 
" clip-path="url(#pddebfc6904)" style="fill: none; stroke: #b0b0b0; stroke-width: 0.8; stroke-linecap: square"/>
     </g>
     <g id="text_22">
      <!-- women movement -->
      <g transform="translate(116.930131 638.790125) scale(0.06 -0.06)">
       <use xlink:href="#DejaVuSans-77"/>
       <use xlink:href="#DejaVuSans-6f" x="81.787109"/>
       <use xlink:href="#DejaVuSans-6d" x="142.96875"/>
       <use xlink:href="#DejaVuSans-65" x="240.380859"/>
       <use xlink:href="#DejaVuSans-6e" x="301.904297"/>
       <use xlink:href="#DejaVuSans-20" x="365.283203"/>
       <use xlink:href="#DejaVuSans-6d" x="397.070312"/>
       <use xlink:href="#DejaVuSans-6f" x="494.482422"/>
       <use xlink:href="#DejaVuSans-76" x="555.664062"/>
       <use xlink:href="#DejaVuSans-65" x="614.84375"/>
       <use xlink:href="#DejaVuSans-6d" x="676.367188"/>
       <use xlink:href="#DejaVuSans-65" x="773.779297"/>
       <use xlink:href="#DejaVuSans-6e" x="835.302734"/>
       <use xlink:href="#DejaVuSans-74" x="898.681641"/>
      </g>
     </g>
    </g>
    <g id="xtick_14">
     <g id="line2d_24">
      <path d="M 145.06685 498.8739 
L 156.050039 509.857089 
L 167.033228 520.840278 
L 178.016417 531.823467 
L 188.999606 542.806656 
L 199.982796 553.789846 
L 210.965985 564.773035 
L 221.949174 575.756224 
L 232.932363 586.739413 
" clip-path="url(#pddebfc6904)" style="fill: none; stroke: #b0b0b0; stroke-width: 0.8; stroke-linecap: square"/>
     </g>
     <g id="text_23">
      <!-- politician -->
      <g transform="translate(229.192639 598.294533) scale(0.06 -0.06)">
       <use xlink:href="#DejaVuSans-70"/>
       <use xlink:href="#DejaVuSans-6f" x="63.476562"/>
       <use xlink:href="#DejaVuSans-6c" x="124.658203"/>
       <use xlink:href="#DejaVuSans-69" x="152.441406"/>
       <use xlink:href="#DejaVuSans-74" x="180.224609"/>
       <use xlink:href="#DejaVuSans-69" x="219.433594"/>
       <use xlink:href="#DejaVuSans-63" x="247.216797"/>
       <use xlink:href="#DejaVuSans-69" x="302.197266"/>
       <use xlink:href="#DejaVuSans-61" x="329.980469"/>
       <use xlink:href="#DejaVuSans-6e" x="391.259766"/>
      </g>
     </g>
    </g>
    <g id="xtick_15">
     <g id="line2d_25">
      <path d="M 145.06685 498.8739 
L 160.599425 498.8739 
L 176.132 498.8739 
L 191.664575 498.8739 
L 207.19715 498.8739 
L 222.729725 498.8739 
L 238.2623 498.8739 
L 253.794875 498.8739 
L 269.32745 498.8739 
" clip-path="url(#pddebfc6904)" style="fill: none; stroke: #b0b0b0; stroke-width: 0.8; stroke-linecap: square"/>
     </g>
     <g id="text_24">
      <!-- job -->
      <g transform="translate(278.753856 500.529525) scale(0.06 -0.06)">
       <use xlink:href="#DejaVuSans-6a"/>
       <use xlink:href="#DejaVuSans-6f" x="27.783203"/>
       <use xlink:href="#DejaVuSans-62" x="88.964844"/>
      </g>
     </g>
    </g>
    <g id="xtick_16">
     <g id="line2d_26">
      <path d="M 145.06685 498.8739 
L 156.050039 487.890711 
L 167.033228 476.907522 
L 178.016417 465.924333 
L 188.999606 454.941144 
L 199.982796 443.957954 
L 210.965985 432.974765 
L 221.949174 421.991576 
L 232.932363 411.008387 
" clip-path="url(#pddebfc6904)" style="fill: none; stroke: #b0b0b0; stroke-width: 0.8; stroke-linecap: square"/>
     </g>
     <g id="text_25">
      <!-- choice -->
      <g transform="translate(233.116545 402.764517) scale(0.06 -0.06)">
       <use xlink:href="#DejaVuSans-63"/>
       <use xlink:href="#DejaVuSans-68" x="54.980469"/>
       <use xlink:href="#DejaVuSans-6f" x="118.359375"/>
       <use xlink:href="#DejaVuSans-69" x="179.541016"/>
       <use xlink:href="#DejaVuSans-63" x="207.324219"/>
       <use xlink:href="#DejaVuSans-65" x="262.304688"/>
      </g>
     </g>
    </g>
   </g>
   <g id="matplotlib.axis_4">
    <g id="ytick_7">
     <g id="line2d_27">
      <path d="M 145.06685 498.8739 
L 145.06685 498.8739 
L 145.06685 498.8739 
L 145.06685 498.8739 
L 145.06685 498.8739 
L 145.06685 498.8739 
L 145.06685 498.8739 
L 145.06685 498.8739 
L 145.06685 498.8739 
" clip-path="url(#pddebfc6904)" style="fill: none; stroke: #b0b0b0; stroke-width: 0.8; stroke-linecap: square"/>
     </g>
     <g id="text_26">
      <!-- 0.0 -->
      <g transform="translate(145.06685 497.626087) scale(0.06 -0.06)">
       <use xlink:href="#DejaVuSans-30"/>
       <use xlink:href="#DejaVuSans-2e" x="63.623047"/>
       <use xlink:href="#DejaVuSans-30" x="95.410156"/>
      </g>
     </g>
    </g>
    <g id="ytick_8">
     <g id="line2d_28">
      <path d="M 145.06685 474.02178 
L 127.493747 481.300797 
L 120.21473 498.8739 
L 127.493747 516.447003 
L 145.06685 523.72602 
L 162.639953 516.447003 
L 169.91897 498.8739 
L 162.639953 481.300797 
L 145.06685 474.02178 
" clip-path="url(#pddebfc6904)" style="fill: none; stroke: #b0b0b0; stroke-width: 0.8; stroke-linecap: square"/>
     </g>
     <g id="text_27">
      <!-- 0.2 -->
      <g transform="translate(135.556355 474.665722) scale(0.06 -0.06)">
       <use xlink:href="#DejaVuSans-30"/>
       <use xlink:href="#DejaVuSans-2e" x="63.623047"/>
       <use xlink:href="#DejaVuSans-32" x="95.410156"/>
      </g>
     </g>
    </g>
    <g id="ytick_9">
     <g id="line2d_29">
      <path d="M 145.06685 449.16966 
L 109.920645 463.727695 
L 95.36261 498.8739 
L 109.920645 534.020105 
L 145.06685 548.57814 
L 180.213055 534.020105 
L 194.77109 498.8739 
L 180.213055 463.727695 
L 145.06685 449.16966 
" clip-path="url(#pddebfc6904)" style="fill: none; stroke: #b0b0b0; stroke-width: 0.8; stroke-linecap: square"/>
     </g>
     <g id="text_28">
      <!-- 0.4 -->
      <g transform="translate(126.045861 451.705357) scale(0.06 -0.06)">
       <use xlink:href="#DejaVuSans-30"/>
       <use xlink:href="#DejaVuSans-2e" x="63.623047"/>
       <use xlink:href="#DejaVuSans-34" x="95.410156"/>
      </g>
     </g>
    </g>
    <g id="ytick_10">
     <g id="line2d_30">
      <path d="M 145.06685 424.31754 
L 92.347542 446.154592 
L 70.51049 498.8739 
L 92.347542 551.593208 
L 145.06685 573.43026 
L 197.786158 551.593208 
L 219.62321 498.8739 
L 197.786158 446.154592 
L 145.06685 424.31754 
" clip-path="url(#pddebfc6904)" style="fill: none; stroke: #b0b0b0; stroke-width: 0.8; stroke-linecap: square"/>
     </g>
     <g id="text_29">
      <!-- 0.6 -->
      <g transform="translate(116.535366 428.744992) scale(0.06 -0.06)">
       <use xlink:href="#DejaVuSans-30"/>
       <use xlink:href="#DejaVuSans-2e" x="63.623047"/>
       <use xlink:href="#DejaVuSans-36" x="95.410156"/>
      </g>
     </g>
    </g>
    <g id="ytick_11">
     <g id="line2d_31">
      <path d="M 145.06685 399.46542 
L 74.77444 428.58149 
L 45.65837 498.8739 
L 74.77444 569.16631 
L 145.06685 598.28238 
L 215.35926 569.16631 
L 244.47533 498.8739 
L 215.35926 428.58149 
L 145.06685 399.46542 
" clip-path="url(#pddebfc6904)" style="fill: none; stroke: #b0b0b0; stroke-width: 0.8; stroke-linecap: square"/>
     </g>
     <g id="text_30">
      <!-- 0.8 -->
      <g transform="translate(107.024872 405.784627) scale(0.06 -0.06)">
       <use xlink:href="#DejaVuSans-30"/>
       <use xlink:href="#DejaVuSans-2e" x="63.623047"/>
       <use xlink:href="#DejaVuSans-38" x="95.410156"/>
      </g>
     </g>
    </g>
    <g id="ytick_12">
     <g id="line2d_32">
      <path d="M 145.06685 374.6133 
L 57.201337 411.008387 
L 20.80625 498.8739 
L 57.201337 586.739413 
L 145.06685 623.1345 
L 232.932363 586.739413 
L 269.32745 498.8739 
L 232.932363 411.008387 
L 145.06685 374.6133 
" clip-path="url(#pddebfc6904)" style="fill: none; stroke: #b0b0b0; stroke-width: 0.8; stroke-linecap: square"/>
     </g>
     <g id="text_31">
      <!-- 1.0 -->
      <g transform="translate(97.514377 382.824262) scale(0.06 -0.06)">
       <use xlink:href="#DejaVuSans-31"/>
       <use xlink:href="#DejaVuSans-2e" x="63.623047"/>
       <use xlink:href="#DejaVuSans-30" x="95.410156"/>
      </g>
     </g>
    </g>
   </g>
   <g id="line2d_33">
    <path d="M 145.06685 462.382039 
L 111.040499 464.847549 
L 75.010599 498.8739 
L 82.313228 561.627522 
L 145.06685 590.463487 
L 197.098322 550.905372 
L 225.00316 498.8739 
L 208.749769 435.190981 
L 145.06685 462.382039 
" clip-path="url(#pddebfc6904)" style="fill: none; stroke: #ffc100; stroke-linecap: square"/>
   </g>
   <g id="line2d_34">
    <path d="M 145.06685 464.655611 
L 112.726578 466.533628 
L 74.986358 498.8739 
L 79.820968 564.119782 
L 145.06685 591.473604 
L 199.854587 553.661637 
L 232.21274 498.8739 
L 207.867004 436.073746 
L 145.06685 464.655611 
" clip-path="url(#pddebfc6904)" style="fill: none; stroke: #ff4d00; stroke-linecap: square"/>
   </g>
   <g id="patch_6">
    <path d="M 145.06685 374.6133 
L 57.201337 411.008387 
L 20.80625 498.8739 
L 57.201337 586.739413 
L 145.06685 623.1345 
L 232.932363 586.739413 
L 269.32745 498.8739 
L 232.932363 411.008387 
L 145.06685 374.6133 
z
" style="fill: none; stroke: #000000; stroke-width: 0.8; stroke-linejoin: miter; stroke-linecap: square"/>
   </g>
   <g id="text_32">
    <!-- China -->
    <g transform="translate(132.3656 353.917362) scale(0.08 -0.08)">
     <defs>
      <path id="DejaVuSans-Bold-43" d="M 4288 256 
Q 3956 84 3597 -3 
Q 3238 -91 2847 -91 
Q 1681 -91 1000 561 
Q 319 1213 319 2328 
Q 319 3447 1000 4098 
Q 1681 4750 2847 4750 
Q 3238 4750 3597 4662 
Q 3956 4575 4288 4403 
L 4288 3438 
Q 3953 3666 3628 3772 
Q 3303 3878 2944 3878 
Q 2300 3878 1931 3465 
Q 1563 3053 1563 2328 
Q 1563 1606 1931 1193 
Q 2300 781 2944 781 
Q 3303 781 3628 887 
Q 3953 994 4288 1222 
L 4288 256 
z
" transform="scale(0.015625)"/>
      <path id="DejaVuSans-Bold-68" d="M 4056 2131 
L 4056 0 
L 2931 0 
L 2931 347 
L 2931 1625 
Q 2931 2084 2911 2256 
Q 2891 2428 2841 2509 
Q 2775 2619 2662 2680 
Q 2550 2741 2406 2741 
Q 2056 2741 1856 2470 
Q 1656 2200 1656 1722 
L 1656 0 
L 538 0 
L 538 4863 
L 1656 4863 
L 1656 2988 
Q 1909 3294 2193 3439 
Q 2478 3584 2822 3584 
Q 3428 3584 3742 3212 
Q 4056 2841 4056 2131 
z
" transform="scale(0.015625)"/>
      <path id="DejaVuSans-Bold-69" d="M 538 3500 
L 1656 3500 
L 1656 0 
L 538 0 
L 538 3500 
z
M 538 4863 
L 1656 4863 
L 1656 3950 
L 538 3950 
L 538 4863 
z
" transform="scale(0.015625)"/>
     </defs>
     <use xlink:href="#DejaVuSans-Bold-43"/>
     <use xlink:href="#DejaVuSans-Bold-68" x="73.388672"/>
     <use xlink:href="#DejaVuSans-Bold-69" x="144.580078"/>
     <use xlink:href="#DejaVuSans-Bold-6e" x="178.857422"/>
     <use xlink:href="#DejaVuSans-Bold-61" x="250.048828"/>
    </g>
   </g>
  </g>
  <g id="text_33">
   <!-- Mean-Answers per Country per Gender -->
   <g transform="translate(39.5666 8.3745) scale(0.096 -0.096)">
    <defs>
     <path id="DejaVuSans-Bold-4d" d="M 588 4666 
L 2119 4666 
L 3181 2169 
L 4250 4666 
L 5778 4666 
L 5778 0 
L 4641 0 
L 4641 3413 
L 3566 897 
L 2803 897 
L 1728 3413 
L 1728 0 
L 588 0 
L 588 4666 
z
" transform="scale(0.015625)"/>
     <path id="DejaVuSans-Bold-2d" d="M 347 2297 
L 2309 2297 
L 2309 1388 
L 347 1388 
L 347 2297 
z
" transform="scale(0.015625)"/>
     <path id="DejaVuSans-Bold-41" d="M 3419 850 
L 1538 850 
L 1241 0 
L 31 0 
L 1759 4666 
L 3194 4666 
L 4922 0 
L 3713 0 
L 3419 850 
z
M 1838 1716 
L 3116 1716 
L 2478 3572 
L 1838 1716 
z
" transform="scale(0.015625)"/>
     <path id="DejaVuSans-Bold-73" d="M 3272 3391 
L 3272 2541 
Q 2913 2691 2578 2766 
Q 2244 2841 1947 2841 
Q 1628 2841 1473 2761 
Q 1319 2681 1319 2516 
Q 1319 2381 1436 2309 
Q 1553 2238 1856 2203 
L 2053 2175 
Q 2913 2066 3209 1816 
Q 3506 1566 3506 1031 
Q 3506 472 3093 190 
Q 2681 -91 1863 -91 
Q 1516 -91 1145 -36 
Q 775 19 384 128 
L 384 978 
Q 719 816 1070 734 
Q 1422 653 1784 653 
Q 2113 653 2278 743 
Q 2444 834 2444 1013 
Q 2444 1163 2330 1236 
Q 2216 1309 1875 1350 
L 1678 1375 
Q 931 1469 631 1722 
Q 331 1975 331 2491 
Q 331 3047 712 3315 
Q 1094 3584 1881 3584 
Q 2191 3584 2531 3537 
Q 2872 3491 3272 3391 
z
" transform="scale(0.015625)"/>
     <path id="DejaVuSans-Bold-77" d="M 225 3500 
L 1313 3500 
L 1900 1088 
L 2491 3500 
L 3425 3500 
L 4013 1113 
L 4603 3500 
L 5691 3500 
L 4769 0 
L 3547 0 
L 2956 2406 
L 2369 0 
L 1147 0 
L 225 3500 
z
" transform="scale(0.015625)"/>
     <path id="DejaVuSans-Bold-20" transform="scale(0.015625)"/>
     <path id="DejaVuSans-Bold-70" d="M 1656 506 
L 1656 -1331 
L 538 -1331 
L 538 3500 
L 1656 3500 
L 1656 2988 
Q 1888 3294 2169 3439 
Q 2450 3584 2816 3584 
Q 3463 3584 3878 3070 
Q 4294 2556 4294 1747 
Q 4294 938 3878 423 
Q 3463 -91 2816 -91 
Q 2450 -91 2169 54 
Q 1888 200 1656 506 
z
M 2400 2772 
Q 2041 2772 1848 2508 
Q 1656 2244 1656 1747 
Q 1656 1250 1848 986 
Q 2041 722 2400 722 
Q 2759 722 2948 984 
Q 3138 1247 3138 1747 
Q 3138 2247 2948 2509 
Q 2759 2772 2400 2772 
z
" transform="scale(0.015625)"/>
     <path id="DejaVuSans-Bold-6f" d="M 2203 2784 
Q 1831 2784 1636 2517 
Q 1441 2250 1441 1747 
Q 1441 1244 1636 976 
Q 1831 709 2203 709 
Q 2569 709 2762 976 
Q 2956 1244 2956 1747 
Q 2956 2250 2762 2517 
Q 2569 2784 2203 2784 
z
M 2203 3584 
Q 3106 3584 3614 3096 
Q 4122 2609 4122 1747 
Q 4122 884 3614 396 
Q 3106 -91 2203 -91 
Q 1297 -91 786 396 
Q 275 884 275 1747 
Q 275 2609 786 3096 
Q 1297 3584 2203 3584 
z
" transform="scale(0.015625)"/>
     <path id="DejaVuSans-Bold-75" d="M 500 1363 
L 500 3500 
L 1625 3500 
L 1625 3150 
Q 1625 2866 1622 2436 
Q 1619 2006 1619 1863 
Q 1619 1441 1641 1255 
Q 1663 1069 1716 984 
Q 1784 875 1895 815 
Q 2006 756 2150 756 
Q 2500 756 2700 1025 
Q 2900 1294 2900 1772 
L 2900 3500 
L 4019 3500 
L 4019 0 
L 2900 0 
L 2900 506 
Q 2647 200 2364 54 
Q 2081 -91 1741 -91 
Q 1134 -91 817 281 
Q 500 653 500 1363 
z
" transform="scale(0.015625)"/>
     <path id="DejaVuSans-Bold-74" d="M 1759 4494 
L 1759 3500 
L 2913 3500 
L 2913 2700 
L 1759 2700 
L 1759 1216 
Q 1759 972 1856 886 
Q 1953 800 2241 800 
L 2816 800 
L 2816 0 
L 1856 0 
Q 1194 0 917 276 
Q 641 553 641 1216 
L 641 2700 
L 84 2700 
L 84 3500 
L 641 3500 
L 641 4494 
L 1759 4494 
z
" transform="scale(0.015625)"/>
     <path id="DejaVuSans-Bold-64" d="M 2919 2988 
L 2919 4863 
L 4044 4863 
L 4044 0 
L 2919 0 
L 2919 506 
Q 2688 197 2409 53 
Q 2131 -91 1766 -91 
Q 1119 -91 703 423 
Q 288 938 288 1747 
Q 288 2556 703 3070 
Q 1119 3584 1766 3584 
Q 2128 3584 2408 3439 
Q 2688 3294 2919 2988 
z
M 2181 722 
Q 2541 722 2730 984 
Q 2919 1247 2919 1747 
Q 2919 2247 2730 2509 
Q 2541 2772 2181 2772 
Q 1825 2772 1636 2509 
Q 1447 2247 1447 1747 
Q 1447 1247 1636 984 
Q 1825 722 2181 722 
z
" transform="scale(0.015625)"/>
    </defs>
    <use xlink:href="#DejaVuSans-Bold-4d"/>
    <use xlink:href="#DejaVuSans-Bold-65" x="99.511719"/>
    <use xlink:href="#DejaVuSans-Bold-61" x="167.333984"/>
    <use xlink:href="#DejaVuSans-Bold-6e" x="234.814453"/>
    <use xlink:href="#DejaVuSans-Bold-2d" x="306.005859"/>
    <use xlink:href="#DejaVuSans-Bold-41" x="347.509766"/>
    <use xlink:href="#DejaVuSans-Bold-6e" x="424.902344"/>
    <use xlink:href="#DejaVuSans-Bold-73" x="496.09375"/>
    <use xlink:href="#DejaVuSans-Bold-77" x="555.615234"/>
    <use xlink:href="#DejaVuSans-Bold-65" x="647.998047"/>
    <use xlink:href="#DejaVuSans-Bold-72" x="715.820312"/>
    <use xlink:href="#DejaVuSans-Bold-73" x="765.136719"/>
    <use xlink:href="#DejaVuSans-Bold-20" x="824.658203"/>
    <use xlink:href="#DejaVuSans-Bold-70" x="859.472656"/>
    <use xlink:href="#DejaVuSans-Bold-65" x="931.054688"/>
    <use xlink:href="#DejaVuSans-Bold-72" x="998.876953"/>
    <use xlink:href="#DejaVuSans-Bold-20" x="1048.193359"/>
    <use xlink:href="#DejaVuSans-Bold-43" x="1083.007812"/>
    <use xlink:href="#DejaVuSans-Bold-6f" x="1156.396484"/>
    <use xlink:href="#DejaVuSans-Bold-75" x="1225.097656"/>
    <use xlink:href="#DejaVuSans-Bold-6e" x="1296.289062"/>
    <use xlink:href="#DejaVuSans-Bold-74" x="1367.480469"/>
    <use xlink:href="#DejaVuSans-Bold-72" x="1415.283203"/>
    <use xlink:href="#DejaVuSans-Bold-79" x="1464.599609"/>
    <use xlink:href="#DejaVuSans-Bold-20" x="1529.785156"/>
    <use xlink:href="#DejaVuSans-Bold-70" x="1564.599609"/>
    <use xlink:href="#DejaVuSans-Bold-65" x="1636.181641"/>
    <use xlink:href="#DejaVuSans-Bold-72" x="1704.003906"/>
    <use xlink:href="#DejaVuSans-Bold-20" x="1753.320312"/>
    <use xlink:href="#DejaVuSans-Bold-47" x="1788.134766"/>
    <use xlink:href="#DejaVuSans-Bold-65" x="1870.214844"/>
    <use xlink:href="#DejaVuSans-Bold-6e" x="1938.037109"/>
    <use xlink:href="#DejaVuSans-Bold-64" x="2009.228516"/>
    <use xlink:href="#DejaVuSans-Bold-65" x="2080.810547"/>
    <use xlink:href="#DejaVuSans-Bold-72" x="2148.632812"/>
   </g>
  </g>
 </g>
 <defs>
  <clipPath id="p5890f4cf25">
   <path d="M 145.06685 66.0121 
L 57.201337 102.407187 
L 20.80625 190.2727 
L 57.201337 278.138213 
L 145.06685 314.5333 
L 232.932363 278.138213 
L 269.32745 190.2727 
L 232.932363 102.407187 
z
"/>
  </clipPath>
  <clipPath id="pddebfc6904">
   <path d="M 145.06685 374.6133 
L 57.201337 411.008387 
L 20.80625 498.8739 
L 57.201337 586.739413 
L 145.06685 623.1345 
L 232.932363 586.739413 
L 269.32745 498.8739 
L 232.932363 411.008387 
z
"/>
  </clipPath>
 </defs>
</svg>
