<?xml version="1.0" encoding="utf-8" standalone="no"?>
<!DOCTYPE svg PUBLIC "-//W3C//DTD SVG 1.1//EN"
  "http://www.w3.org/Graphics/SVG/1.1/DTD/svg11.dtd">
<svg xmlns:xlink="http://www.w3.org/1999/xlink" width="136.724303pt" height="153.787367pt" viewBox="0 0 136.724303 153.787367" xmlns="http://www.w3.org/2000/svg" version="1.1">
 <metadata>
  <rdf:RDF xmlns:dc="http://purl.org/dc/elements/1.1/" xmlns:cc="http://creativecommons.org/ns#" xmlns:rdf="http://www.w3.org/1999/02/22-rdf-syntax-ns#">
   <cc:Work>
    <dc:type rdf:resource="http://purl.org/dc/dcmitype/StillImage"/>
    <dc:date>2024-01-29T21:05:10.290921</dc:date>
    <dc:format>image/svg+xml</dc:format>
    <dc:creator>
     <cc:Agent>
      <dc:title>Matplotlib v3.8.2, https://matplotlib.org/</dc:title>
     </cc:Agent>
    </dc:creator>
   </cc:Work>
  </rdf:RDF>
 </metadata>
 <defs>
  <style type="text/css">*{stroke-linejoin: round; stroke-linecap: butt}</style>
 </defs>
 <g id="figure_1">
  <g id="patch_1">
   <path d="M 0 153.787367 
L 136.724303 153.787367 
L 136.724303 0 
L 0 0 
z
" style="fill: #ffffff"/>
  </g>
  <g id="axes_1">
   <g id="patch_2">
    <path d="M 74.88742 27.695 
L 44.714616 40.192985 
L 32.216631 70.365789 
L 44.714616 100.538593 
L 74.88742 113.036578 
L 105.060224 100.538593 
L 117.558209 70.365789 
L 105.060224 40.192985 
z
" style="fill: #ffffff"/>
   </g>
   <g id="matplotlib.axis_1">
    <g id="xtick_1">
     <g id="line2d_1">
      <path d="M 74.88742 70.365789 
L 74.88742 65.03194 
L 74.88742 59.698092 
L 74.88742 54.364243 
L 74.88742 49.030394 
L 74.88742 43.696546 
L 74.88742 38.362697 
L 74.88742 33.028849 
L 74.88742 27.695 
" clip-path="url(#pcc9a10dc50)" style="fill: none; stroke: #b0b0b0; stroke-width: 0.8; stroke-linecap: square"/>
     </g>
     <g id="text_1">
      <!-- abortion -->
      <g transform="translate(63.613045 15.396562) scale(0.06 -0.06)">
       <defs>
        <path id="Times-61" d="M 3097 519 
L 3169 448 
Q 2750 -64 2400 -64 
Q 2239 -64 2127 87 
Q 2016 238 2016 498 
Q 1438 -64 909 -64 
Q 706 -64 550 47 
Q 394 159 309 338 
Q 224 517 224 705 
Q 224 1064 464 1311 
Q 705 1559 1058 1714 
Q 1411 1870 2016 2073 
L 2016 2495 
Q 2016 2797 1852 2960 
Q 1689 3123 1408 3123 
Q 1175 3123 1039 2993 
Q 903 2864 903 2681 
Q 903 2616 912 2577 
Q 922 2538 922 2470 
Q 922 2325 830 2257 
Q 739 2189 627 2189 
Q 506 2189 432 2283 
Q 358 2377 358 2509 
Q 358 2747 528 2932 
Q 699 3117 972 3216 
Q 1245 3316 1536 3316 
Q 2592 3316 2592 2464 
L 2592 513 
Q 2592 448 2638 396 
Q 2684 345 2764 345 
Q 2938 345 3097 519 
z
M 2016 666 
L 2016 1875 
Q 1603 1725 1373 1622 
Q 1144 1519 962 1334 
Q 781 1150 781 889 
Q 781 666 907 490 
Q 1034 314 1313 314 
Q 1406 314 1588 387 
Q 1770 461 2016 666 
z
" transform="scale(0.015625)"/>
        <path id="Times-62" d="M -89 4422 
L 999 4839 
L 999 2675 
Q 1408 3316 1972 3316 
Q 2334 3316 2621 3105 
Q 2908 2895 3066 2533 
Q 3225 2172 3225 1734 
Q 3225 1200 2990 787 
Q 2755 375 2372 152 
Q 1989 -70 1569 -70 
Q 1008 -70 422 378 
L 422 3891 
Q 422 4378 166 4378 
Q 44 4378 -58 4333 
L -89 4422 
z
M 999 2388 
L 999 570 
Q 1114 389 1312 281 
Q 1511 173 1709 173 
Q 1983 173 2198 369 
Q 2413 566 2531 884 
Q 2650 1203 2650 1555 
Q 2650 1942 2522 2230 
Q 2394 2519 2179 2670 
Q 1964 2822 1716 2822 
Q 1494 2822 1304 2698 
Q 1114 2575 999 2388 
z
" transform="scale(0.015625)"/>
        <path id="Times-6f" d="M 1811 -64 
Q 1405 -64 1101 87 
Q 797 239 602 490 
Q 408 742 316 1036 
Q 224 1331 224 1619 
Q 224 1956 339 2265 
Q 455 2575 668 2811 
Q 881 3048 1172 3182 
Q 1464 3316 1811 3316 
Q 2284 3316 2645 3094 
Q 3006 2872 3202 2485 
Q 3399 2098 3399 1625 
Q 3399 1113 3170 727 
Q 2941 342 2573 139 
Q 2205 -64 1811 -64 
z
M 889 1664 
Q 889 1330 1009 984 
Q 1130 639 1366 409 
Q 1602 180 1920 180 
Q 2733 180 2733 1664 
Q 2733 1989 2605 2317 
Q 2478 2645 2237 2858 
Q 1997 3072 1683 3072 
Q 1250 3072 1069 2658 
Q 889 2244 889 1664 
z
" transform="scale(0.015625)"/>
        <path id="Times-72" d="M 1274 3322 
L 1274 2720 
Q 1417 2963 1625 3139 
Q 1834 3316 2061 3316 
Q 2203 3316 2349 3235 
Q 2495 3155 2495 2950 
Q 2495 2816 2420 2713 
Q 2345 2611 2202 2611 
Q 2058 2611 1933 2745 
Q 1834 2855 1709 2855 
Q 1520 2855 1274 2464 
L 1274 627 
Q 1274 463 1299 355 
Q 1325 247 1440 168 
Q 1556 89 1799 89 
L 1881 89 
L 1881 0 
L 134 0 
L 134 89 
L 211 89 
Q 527 89 612 233 
Q 697 378 697 627 
L 697 2381 
Q 697 2867 442 2867 
Q 314 2867 217 2822 
L 186 2906 
L 1274 3322 
z
" transform="scale(0.015625)"/>
        <path id="Times-74" d="M 1114 3252 
L 1817 3252 
L 1817 3008 
L 1114 3008 
L 1114 966 
Q 1114 677 1201 495 
Q 1288 314 1549 314 
Q 1783 314 2016 589 
L 2080 531 
Q 1631 -64 1191 -64 
Q 927 -64 783 54 
Q 639 172 588 373 
Q 538 575 538 864 
L 538 3008 
L 45 3008 
L 45 3136 
Q 163 3178 345 3286 
Q 528 3395 728 3626 
Q 928 3858 1024 4205 
L 1114 4205 
L 1114 3252 
z
" transform="scale(0.015625)"/>
        <path id="Times-69" d="M 1274 3328 
L 1274 627 
Q 1274 377 1361 233 
Q 1449 89 1766 89 
L 1838 89 
L 1838 0 
L 134 0 
L 134 89 
L 205 89 
Q 522 89 609 233 
Q 697 377 697 627 
L 697 2381 
Q 697 2867 442 2867 
Q 306 2867 217 2822 
L 186 2906 
L 1274 3328 
z
M 602 4391 
Q 602 4538 710 4643 
Q 819 4748 959 4748 
Q 1102 4748 1210 4643 
Q 1319 4538 1319 4391 
Q 1319 4248 1209 4139 
Q 1099 4031 959 4031 
Q 813 4031 707 4140 
Q 602 4250 602 4391 
z
" transform="scale(0.015625)"/>
        <path id="Times-6e" d="M 1274 3328 
L 1274 2598 
Q 1670 3042 1915 3179 
Q 2161 3316 2406 3316 
Q 2653 3316 2835 3196 
Q 3017 3077 3115 2852 
Q 3213 2628 3213 2330 
L 3213 627 
Q 3213 463 3237 355 
Q 3261 247 3367 168 
Q 3474 89 3699 89 
L 3777 89 
L 3777 0 
L 2163 0 
L 2163 89 
L 2227 89 
Q 2494 89 2566 235 
Q 2638 381 2638 627 
L 2638 2266 
Q 2638 2661 2488 2776 
Q 2339 2892 2125 2892 
Q 1722 2892 1274 2425 
L 1274 627 
Q 1274 378 1353 233 
Q 1433 89 1728 89 
L 1799 89 
L 1799 0 
L 134 0 
L 134 89 
L 205 89 
Q 522 89 609 234 
Q 697 380 697 627 
L 697 2381 
Q 697 2867 442 2867 
Q 314 2867 217 2822 
L 186 2906 
L 1274 3328 
z
" transform="scale(0.015625)"/>
       </defs>
       <use xlink:href="#Times-61"/>
       <use xlink:href="#Times-62" x="49.511719"/>
       <use xlink:href="#Times-6f" x="103.417969"/>
       <use xlink:href="#Times-72" x="160.009766"/>
       <use xlink:href="#Times-74" x="197.607422"/>
       <use xlink:href="#Times-69" x="230.810547"/>
       <use xlink:href="#Times-6f" x="260.205078"/>
       <use xlink:href="#Times-6e" x="316.796875"/>
      </g>
     </g>
    </g>
    <g id="xtick_2">
     <g id="line2d_2">
      <path d="M 74.88742 70.365789 
L 71.115819 66.594188 
L 67.344219 62.822588 
L 63.572618 59.050987 
L 59.801018 55.279387 
L 56.029417 51.507786 
L 52.257817 47.736186 
L 48.486216 43.964585 
L 44.714616 40.192985 
" clip-path="url(#pcc9a10dc50)" style="fill: none; stroke: #b0b0b0; stroke-width: 0.8; stroke-linecap: square"/>
     </g>
     <g id="text_2">
      <!-- divorce -->
      <g transform="translate(24.990121 31.995052) scale(0.06 -0.06)">
       <defs>
        <path id="Times-64" d="M 1902 4364 
L 3059 4839 
L 3059 889 
Q 3059 403 3295 403 
Q 3420 403 3545 455 
L 3572 372 
L 2483 -58 
L 2483 428 
Q 2233 150 1952 43 
Q 1672 -64 1447 -64 
Q 1128 -64 846 137 
Q 564 338 394 713 
Q 224 1088 224 1575 
Q 224 1936 345 2257 
Q 466 2578 675 2815 
Q 884 3052 1155 3184 
Q 1427 3316 1722 3316 
Q 2142 3316 2483 3066 
L 2483 3930 
Q 2483 4345 2220 4345 
Q 2070 4345 1933 4281 
L 1902 4364 
z
M 2483 697 
L 2483 2406 
Q 2483 2714 2256 2899 
Q 2030 3084 1728 3084 
Q 1483 3084 1280 2916 
Q 1077 2748 958 2442 
Q 839 2136 839 1741 
Q 839 1423 944 1114 
Q 1049 806 1270 604 
Q 1491 403 1817 403 
Q 2222 403 2483 697 
z
" transform="scale(0.015625)"/>
        <path id="Times-76" d="M 1549 -64 
L 428 2745 
Q 267 3148 -89 3155 
L -89 3252 
L 1331 3252 
L 1331 3155 
Q 1134 3138 1060 3098 
Q 986 3058 986 2919 
Q 986 2861 1024 2745 
L 1734 966 
L 2439 2778 
Q 2483 2892 2483 2977 
Q 2483 3155 2247 3155 
L 2177 3155 
L 2177 3252 
L 3111 3252 
L 3111 3155 
Q 2950 3133 2877 3052 
Q 2805 2972 2733 2784 
L 1619 -64 
L 1549 -64 
z
" transform="scale(0.015625)"/>
        <path id="Times-63" d="M 2842 1228 
L 2970 1191 
Q 2800 548 2457 242 
Q 2114 -64 1619 -64 
Q 1239 -64 919 142 
Q 600 348 412 734 
Q 224 1120 224 1631 
Q 224 1967 332 2273 
Q 441 2580 645 2815 
Q 849 3050 1131 3183 
Q 1414 3316 1759 3316 
Q 2033 3316 2279 3224 
Q 2525 3133 2673 2973 
Q 2822 2813 2822 2617 
Q 2822 2431 2731 2348 
Q 2641 2266 2522 2266 
Q 2216 2266 2170 2617 
Q 2141 2842 2045 2969 
Q 1949 3097 1683 3097 
Q 1445 3097 1243 2954 
Q 1042 2811 924 2526 
Q 806 2241 806 1844 
Q 806 1417 944 1108 
Q 1083 800 1328 643 
Q 1574 486 1888 486 
Q 2122 486 2317 587 
Q 2513 689 2647 859 
Q 2781 1030 2842 1228 
z
" transform="scale(0.015625)"/>
        <path id="Times-65" d="M 2797 2028 
L 724 2028 
Q 724 1581 852 1225 
Q 981 869 1223 665 
Q 1466 461 1786 461 
Q 2008 461 2208 566 
Q 2409 672 2561 855 
Q 2713 1038 2797 1267 
L 2906 1228 
Q 2781 848 2599 560 
Q 2417 272 2150 104 
Q 1883 -64 1530 -64 
Q 1213 -64 966 82 
Q 720 228 555 477 
Q 391 727 307 1038 
Q 224 1350 224 1683 
Q 224 2119 391 2495 
Q 559 2872 875 3094 
Q 1191 3316 1606 3316 
Q 2011 3316 2279 3130 
Q 2547 2944 2672 2650 
Q 2797 2356 2797 2028 
z
M 736 2247 
L 2092 2247 
Q 2092 2450 2019 2636 
Q 1947 2823 1796 2941 
Q 1645 3059 1420 3059 
Q 1086 3059 930 2807 
Q 774 2555 736 2247 
z
" transform="scale(0.015625)"/>
       </defs>
       <use xlink:href="#Times-64"/>
       <use xlink:href="#Times-69" x="56.494141"/>
       <use xlink:href="#Times-76" x="85.888672"/>
       <use xlink:href="#Times-6f" x="134.49707"/>
       <use xlink:href="#Times-72" x="191.088867"/>
       <use xlink:href="#Times-63" x="228.686523"/>
       <use xlink:href="#Times-65" x="278.588867"/>
      </g>
     </g>
    </g>
    <g id="xtick_3">
     <g id="line2d_3">
      <path d="M 74.88742 70.365789 
L 69.553571 70.365789 
L 64.219723 70.365789 
L 58.885874 70.365789 
L 53.552026 70.365789 
L 48.218177 70.365789 
L 42.884328 70.365789 
L 37.55048 70.365789 
L 32.216631 70.365789 
" clip-path="url(#pcc9a10dc50)" style="fill: none; stroke: #b0b0b0; stroke-width: 0.8; stroke-linecap: square"/>
     </g>
     <g id="text_3">
      <!-- $$$ -->
      <g transform="translate(13.193506 72.067351) scale(0.06 -0.06)">
       <defs>
        <path id="Times-24" d="M 499 256 
L 499 1228 
L 570 1228 
Q 631 880 870 559 
Q 1109 239 1606 180 
L 1606 2272 
Q 492 2867 492 3731 
Q 492 4039 647 4279 
Q 802 4519 1059 4654 
Q 1317 4789 1606 4806 
L 1606 5178 
L 1844 5178 
L 1844 4806 
Q 2499 4769 2944 4467 
L 2983 3456 
L 2880 3456 
Q 2853 3748 2721 4006 
Q 2589 4264 2361 4422 
Q 2133 4581 1844 4583 
L 1844 2848 
Q 2497 2448 2833 2093 
Q 3169 1739 3169 1209 
Q 3169 856 2986 573 
Q 2803 291 2500 125 
Q 2197 -41 1844 -64 
L 1844 -498 
L 1606 -498 
L 1606 -64 
Q 949 -16 499 256 
z
M 1844 2125 
L 1844 180 
Q 2139 214 2397 409 
Q 2656 605 2656 1038 
Q 2656 1214 2594 1375 
Q 2533 1536 2352 1725 
Q 2172 1914 1844 2125 
z
M 1606 2995 
L 1606 4583 
Q 1356 4552 1183 4373 
Q 1011 4194 1011 3872 
Q 1011 3356 1606 2995 
z
" transform="scale(0.015625)"/>
       </defs>
       <use xlink:href="#Times-24"/>
       <use xlink:href="#Times-24" x="55.810547"/>
       <use xlink:href="#Times-24" x="111.621094"/>
      </g>
     </g>
    </g>
    <g id="xtick_4">
     <g id="line2d_4">
      <path d="M 74.88742 70.365789 
L 71.115819 74.137389 
L 67.344219 77.90899 
L 63.572618 81.68059 
L 59.801018 85.452191 
L 56.029417 89.223791 
L 52.257817 92.995392 
L 48.486216 96.766992 
L 44.714616 100.538593 
" clip-path="url(#pcc9a10dc50)" style="fill: none; stroke: #b0b0b0; stroke-width: 0.8; stroke-linecap: square"/>
     </g>
     <g id="text_4">
      <!-- university -->
      <g transform="translate(21.863558 112.127463) scale(0.06 -0.06)">
       <defs>
        <path id="Times-75" d="M 3078 3252 
L 3078 889 
Q 3078 688 3122 545 
Q 3167 403 3334 403 
Q 3461 403 3558 448 
L 3591 364 
L 2503 -58 
L 2503 653 
Q 2263 369 2066 212 
Q 1870 55 1706 -4 
Q 1542 -64 1363 -64 
Q 563 -64 563 922 
L 563 2623 
Q 563 2875 475 3018 
Q 388 3161 70 3161 
L 0 3161 
L 0 3252 
L 1139 3252 
L 1139 986 
Q 1139 686 1234 522 
Q 1330 358 1652 358 
Q 1859 358 2086 490 
Q 2313 622 2503 825 
L 2503 2623 
Q 2503 2902 2419 3031 
Q 2336 3161 2055 3161 
L 1984 3161 
L 1984 3252 
L 3078 3252 
z
" transform="scale(0.015625)"/>
        <path id="Times-73" d="M 2113 3206 
L 2131 2247 
L 2036 2247 
Q 2014 2519 1893 2711 
Q 1772 2903 1590 3000 
Q 1408 3097 1209 3097 
Q 977 3097 815 2967 
Q 653 2838 653 2623 
Q 653 2503 701 2410 
Q 749 2317 829 2249 
Q 909 2181 1024 2118 
Q 1139 2055 1267 1984 
Q 1633 1780 1848 1625 
Q 2063 1470 2196 1257 
Q 2330 1044 2330 755 
Q 2330 370 2012 156 
Q 1695 -58 1274 -58 
Q 1153 -58 788 31 
Q 609 83 556 83 
Q 419 83 372 -13 
L 263 -13 
L 244 1139 
L 339 1139 
Q 391 781 609 467 
Q 828 153 1274 153 
Q 1570 153 1700 297 
Q 1830 442 1830 608 
Q 1830 847 1660 1011 
Q 1491 1175 1216 1325 
Q 830 1542 728 1603 
Q 627 1664 496 1783 
Q 366 1902 295 2058 
Q 224 2214 224 2425 
Q 224 2655 348 2859 
Q 472 3063 694 3189 
Q 916 3316 1184 3316 
Q 1411 3316 1520 3284 
Q 1630 3253 1741 3200 
Q 1853 3148 1933 3148 
Q 1967 3148 2049 3206 
L 2113 3206 
z
" transform="scale(0.015625)"/>
        <path id="Times-79" d="M -25 3252 
L 1414 3252 
L 1414 3161 
Q 1044 3161 1044 2925 
Q 1044 2861 1081 2764 
L 1875 794 
L 2509 2559 
Q 2574 2759 2574 2906 
Q 2574 3038 2467 3099 
Q 2361 3161 2272 3161 
L 2177 3161 
L 2177 3252 
L 3309 3252 
L 3309 3161 
Q 3111 3148 3009 3011 
Q 2908 2875 2828 2663 
L 1766 -198 
Q 1588 -684 1333 -953 
Q 1078 -1222 691 -1222 
Q 481 -1222 365 -1120 
Q 250 -1019 250 -877 
Q 250 -747 356 -648 
Q 463 -550 620 -550 
Q 720 -550 864 -614 
Q 1002 -678 1094 -678 
Q 1266 -678 1384 -486 
Q 1503 -294 1606 -6 
L 442 2764 
Q 388 2905 268 3033 
Q 149 3161 -25 3161 
L -25 3252 
z
" transform="scale(0.015625)"/>
       </defs>
       <use xlink:href="#Times-75"/>
       <use xlink:href="#Times-6e" x="56.811523"/>
       <use xlink:href="#Times-69" x="115.820312"/>
       <use xlink:href="#Times-76" x="145.214844"/>
       <use xlink:href="#Times-65" x="193.823242"/>
       <use xlink:href="#Times-72" x="242.724609"/>
       <use xlink:href="#Times-73" x="280.322266"/>
       <use xlink:href="#Times-69" x="318.823242"/>
       <use xlink:href="#Times-74" x="348.217773"/>
       <use xlink:href="#Times-79" x="381.420898"/>
      </g>
     </g>
    </g>
    <g id="xtick_5">
     <g id="line2d_5">
      <path d="M 74.88742 70.365789 
L 74.88742 75.699637 
L 74.88742 81.033486 
L 74.88742 86.367335 
L 74.88742 91.701183 
L 74.88742 97.035032 
L 74.88742 102.36888 
L 74.88742 107.702729 
L 74.88742 113.036578 
" clip-path="url(#pcc9a10dc50)" style="fill: none; stroke: #b0b0b0; stroke-width: 0.8; stroke-linecap: square"/>
     </g>
     <g id="text_5">
      <!-- women movement -->
      <g transform="translate(49.87117 128.73814) scale(0.06 -0.06)">
       <defs>
        <path id="Times-77" d="M 1453 -64 
L 403 2708 
Q 239 3148 -89 3155 
L -89 3252 
L 1255 3252 
L 1255 3155 
Q 1091 3142 1022 3104 
Q 953 3067 953 2931 
Q 953 2833 1011 2675 
L 1639 966 
L 2247 2342 
L 2092 2745 
Q 1944 3144 1606 3155 
L 1606 3252 
L 2989 3252 
L 2989 3155 
L 2919 3155 
Q 2800 3155 2725 3094 
Q 2650 3033 2650 2925 
Q 2650 2856 2702 2708 
L 3341 966 
L 3969 2714 
Q 4025 2886 4025 2983 
Q 4025 3155 3808 3155 
L 3731 3155 
L 3731 3252 
L 4666 3252 
L 4666 3155 
Q 4488 3119 4419 3019 
Q 4350 2920 4269 2714 
L 3231 -64 
L 3155 -64 
L 2381 1991 
L 1530 -64 
L 1453 -64 
z
" transform="scale(0.015625)"/>
        <path id="Times-6d" d="M 1274 3328 
L 1274 2688 
Q 1516 2909 1692 3042 
Q 1869 3175 2034 3245 
Q 2200 3316 2375 3316 
Q 2669 3316 2893 3145 
Q 3117 2975 3161 2638 
Q 3519 2992 3758 3154 
Q 3997 3316 4238 3316 
Q 4622 3316 4817 3134 
Q 5013 2952 5063 2734 
Q 5114 2517 5114 2311 
L 5114 627 
Q 5114 377 5201 233 
Q 5289 89 5606 89 
L 5677 89 
L 5677 0 
L 4058 0 
L 4058 89 
L 4122 89 
Q 4394 89 4466 235 
Q 4538 381 4538 627 
L 4538 2291 
Q 4538 2609 4414 2750 
Q 4291 2892 4019 2892 
Q 3830 2892 3598 2758 
Q 3367 2625 3194 2452 
L 3194 627 
Q 3194 381 3266 235 
Q 3339 89 3609 89 
L 3674 89 
L 3674 0 
L 2144 0 
L 2144 89 
L 2202 89 
Q 2474 89 2545 235 
Q 2617 381 2617 627 
L 2617 2297 
Q 2617 2892 2080 2892 
Q 1891 2892 1671 2764 
Q 1452 2636 1274 2458 
L 1274 627 
Q 1274 356 1359 222 
Q 1444 89 1722 89 
L 1792 89 
L 1792 0 
L 134 0 
L 134 89 
L 205 89 
Q 522 89 609 233 
Q 697 377 697 627 
L 697 2381 
Q 697 2613 645 2740 
Q 594 2867 442 2867 
Q 314 2867 217 2822 
L 186 2906 
L 1274 3328 
z
" transform="scale(0.015625)"/>
        <path id="Times-20" transform="scale(0.015625)"/>
       </defs>
       <use xlink:href="#Times-77"/>
       <use xlink:href="#Times-6f" x="72.900391"/>
       <use xlink:href="#Times-6d" x="129.492188"/>
       <use xlink:href="#Times-65" x="218.188477"/>
       <use xlink:href="#Times-6e" x="267.089844"/>
       <use xlink:href="#Times-20" x="326.098633"/>
       <use xlink:href="#Times-6d" x="361.206055"/>
       <use xlink:href="#Times-6f" x="449.902344"/>
       <use xlink:href="#Times-76" x="506.494141"/>
       <use xlink:href="#Times-65" x="555.102539"/>
       <use xlink:href="#Times-6d" x="604.003906"/>
       <use xlink:href="#Times-65" x="692.700195"/>
       <use xlink:href="#Times-6e" x="741.601562"/>
       <use xlink:href="#Times-74" x="800.610352"/>
      </g>
     </g>
    </g>
    <g id="xtick_6">
     <g id="line2d_6">
      <path d="M 74.88742 70.365789 
L 78.65902 74.137389 
L 82.430621 77.90899 
L 86.202221 81.68059 
L 89.973822 85.452191 
L 93.745423 89.223791 
L 97.517023 92.995392 
L 101.288624 96.766992 
L 105.060224 100.538593 
" clip-path="url(#pcc9a10dc50)" style="fill: none; stroke: #b0b0b0; stroke-width: 0.8; stroke-linecap: square"/>
     </g>
     <g id="text_6">
      <!-- politician -->
      <g transform="translate(102.317063 112.13965) scale(0.06 -0.06)">
       <defs>
        <path id="Times-70" d="M 1139 3328 
L 1139 2694 
Q 1395 3008 1636 3162 
Q 1878 3316 2189 3316 
Q 2691 3316 3035 2886 
Q 3380 2456 3380 1683 
Q 3380 1209 3170 806 
Q 2961 403 2614 169 
Q 2267 -64 1881 -64 
Q 1480 -64 1139 173 
L 1139 -583 
Q 1139 -838 1229 -979 
Q 1319 -1120 1664 -1120 
L 1792 -1120 
L 1792 -1209 
L 0 -1209 
L 0 -1120 
L 70 -1120 
Q 388 -1120 475 -976 
Q 563 -833 563 -583 
L 563 2381 
Q 563 2613 511 2740 
Q 459 2867 308 2867 
Q 180 2867 83 2822 
L 52 2906 
L 1139 3328 
z
M 1139 2419 
L 1139 845 
Q 1139 500 1377 333 
Q 1616 166 1881 166 
Q 2105 166 2304 319 
Q 2503 472 2624 772 
Q 2745 1073 2745 1478 
Q 2745 1838 2669 2102 
Q 2594 2367 2463 2530 
Q 2333 2694 2163 2771 
Q 1994 2848 1799 2848 
Q 1620 2848 1446 2732 
Q 1272 2616 1139 2419 
z
" transform="scale(0.015625)"/>
        <path id="Times-6c" d="M 141 4422 
L 1228 4839 
L 1228 627 
Q 1228 377 1316 233 
Q 1405 89 1722 89 
L 1792 89 
L 1792 0 
L 89 0 
L 89 89 
L 159 89 
Q 478 89 565 233 
Q 653 377 653 627 
L 653 3891 
Q 653 4378 397 4378 
Q 275 4378 174 4333 
L 141 4422 
z
" transform="scale(0.015625)"/>
       </defs>
       <use xlink:href="#Times-70"/>
       <use xlink:href="#Times-6f" x="56.298828"/>
       <use xlink:href="#Times-6c" x="112.890625"/>
       <use xlink:href="#Times-69" x="141.601562"/>
       <use xlink:href="#Times-74" x="170.996094"/>
       <use xlink:href="#Times-69" x="204.199219"/>
       <use xlink:href="#Times-63" x="233.59375"/>
       <use xlink:href="#Times-69" x="283.496094"/>
       <use xlink:href="#Times-61" x="312.890625"/>
       <use xlink:href="#Times-6e" x="362.402344"/>
      </g>
     </g>
    </g>
    <g id="xtick_7">
     <g id="line2d_7">
      <path d="M 74.88742 70.365789 
L 80.221269 70.365789 
L 85.555117 70.365789 
L 90.888966 70.365789 
L 96.222814 70.365789 
L 101.556663 70.365789 
L 106.890512 70.365789 
L 112.22436 70.365789 
L 117.558209 70.365789 
" clip-path="url(#pcc9a10dc50)" style="fill: none; stroke: #b0b0b0; stroke-width: 0.8; stroke-linecap: square"/>
     </g>
     <g id="text_7">
      <!-- job -->
      <g transform="translate(127.472115 72.06407) scale(0.06 -0.06)">
       <defs>
        <path id="Times-6a" d="M 1197 3328 
L 1197 269 
Q 1197 17 1125 -308 
Q 1053 -634 773 -925 
Q 494 -1216 -52 -1216 
Q -334 -1216 -458 -1105 
Q -583 -995 -583 -858 
Q -583 -763 -518 -688 
Q -453 -614 -314 -614 
Q -202 -614 -138 -653 
Q -74 -692 6 -775 
Q 184 -953 333 -953 
Q 509 -953 564 -725 
Q 620 -498 620 -103 
L 620 186 
L 620 2381 
Q 620 2867 372 2867 
Q 244 2867 147 2822 
L 116 2906 
L 1197 3328 
z
M 525 4391 
Q 525 4542 636 4645 
Q 747 4748 883 4748 
Q 963 4748 1048 4706 
Q 1133 4664 1187 4583 
Q 1242 4502 1242 4391 
Q 1242 4228 1127 4129 
Q 1013 4031 883 4031 
Q 741 4031 633 4141 
Q 525 4252 525 4391 
z
" transform="scale(0.015625)"/>
       </defs>
       <use xlink:href="#Times-6a"/>
       <use xlink:href="#Times-6f" x="25.708008"/>
       <use xlink:href="#Times-62" x="82.299805"/>
      </g>
     </g>
    </g>
    <g id="xtick_8">
     <g id="line2d_8">
      <path d="M 74.88742 70.365789 
L 78.65902 66.594188 
L 82.430621 62.822588 
L 86.202221 59.050987 
L 89.973822 55.279387 
L 93.745423 51.507786 
L 97.517023 47.736186 
L 101.288624 43.964585 
L 105.060224 40.192985 
" clip-path="url(#pcc9a10dc50)" style="fill: none; stroke: #b0b0b0; stroke-width: 0.8; stroke-linecap: square"/>
     </g>
     <g id="text_8">
      <!-- choice -->
      <g transform="translate(106.169719 31.995052) scale(0.06 -0.06)">
       <defs>
        <path id="Times-68" d="M 141 4422 
L 1228 4839 
L 1228 2598 
Q 1625 3042 1870 3179 
Q 2116 3316 2361 3316 
Q 2709 3316 2939 3073 
Q 3169 2830 3169 2375 
L 3169 627 
Q 3169 377 3256 233 
Q 3344 89 3661 89 
L 3731 89 
L 3731 0 
L 2119 0 
L 2119 89 
L 2183 89 
Q 2450 89 2521 235 
Q 2592 381 2592 627 
L 2592 2266 
Q 2592 2892 2080 2892 
Q 1688 2892 1228 2425 
L 1228 627 
Q 1228 381 1300 235 
Q 1372 89 1639 89 
L 1703 89 
L 1703 0 
L 89 0 
L 89 89 
L 159 89 
Q 478 89 565 233 
Q 653 377 653 627 
L 653 3891 
Q 653 4378 397 4378 
Q 275 4378 174 4333 
L 141 4422 
z
" transform="scale(0.015625)"/>
       </defs>
       <use xlink:href="#Times-63"/>
       <use xlink:href="#Times-68" x="49.902344"/>
       <use xlink:href="#Times-6f" x="108.203125"/>
       <use xlink:href="#Times-69" x="164.794922"/>
       <use xlink:href="#Times-63" x="194.189453"/>
       <use xlink:href="#Times-65" x="244.091797"/>
      </g>
     </g>
    </g>
   </g>
   <g id="matplotlib.axis_2">
    <g id="ytick_1">
     <g id="line2d_9">
      <path d="M 74.88742 70.365789 
L 74.88742 70.365789 
L 74.88742 70.365789 
L 74.88742 70.365789 
L 74.88742 70.365789 
L 74.88742 70.365789 
L 74.88742 70.365789 
L 74.88742 70.365789 
L 74.88742 70.365789 
" clip-path="url(#pcc9a10dc50)" style="fill: none; stroke: #b0b0b0; stroke-width: 0.8; stroke-linecap: square"/>
     </g>
     <g id="text_9">
      <!-- 0.00 -->
      <g transform="translate(74.88742 69.232351) scale(0.06 -0.06)">
       <defs>
        <path id="Times-30" d="M 1722 -64 
Q 1261 -64 926 269 
Q 591 603 420 1162 
Q 250 1722 250 2375 
Q 250 3020 422 3582 
Q 594 4144 924 4478 
Q 1255 4813 1703 4813 
Q 2149 4813 2477 4479 
Q 2806 4145 2977 3584 
Q 3149 3023 3149 2375 
Q 3149 1977 3071 1552 
Q 2994 1127 2825 759 
Q 2656 392 2379 164 
Q 2102 -64 1722 -64 
z
M 1703 153 
Q 1886 153 2027 263 
Q 2169 373 2269 626 
Q 2370 880 2423 1310 
Q 2477 1741 2477 2375 
Q 2477 3202 2383 3697 
Q 2289 4192 2119 4393 
Q 1950 4595 1703 4595 
Q 1441 4595 1262 4393 
Q 1084 4192 989 3699 
Q 895 3206 895 2375 
Q 895 1545 989 1051 
Q 1084 558 1262 355 
Q 1441 153 1703 153 
z
" transform="scale(0.015625)"/>
        <path id="Times-2e" d="M 538 320 
Q 538 497 663 604 
Q 789 711 922 711 
Q 1056 711 1181 604 
Q 1306 497 1306 320 
Q 1306 159 1193 47 
Q 1080 -64 922 -64 
Q 764 -64 651 47 
Q 538 159 538 320 
z
" transform="scale(0.015625)"/>
       </defs>
       <use xlink:href="#Times-30"/>
       <use xlink:href="#Times-2e" x="53.100586"/>
       <use xlink:href="#Times-30" x="81.90918"/>
       <use xlink:href="#Times-30" x="135.009766"/>
      </g>
     </g>
    </g>
    <g id="ytick_2">
     <g id="line2d_10">
      <path d="M 74.88742 56.284429 
L 64.930395 60.408763 
L 60.80606 70.365789 
L 64.930395 80.322814 
L 74.88742 84.447149 
L 84.844445 80.322814 
L 88.96878 70.365789 
L 84.844445 60.408763 
L 74.88742 56.284429 
" clip-path="url(#pcc9a10dc50)" style="fill: none; stroke: #b0b0b0; stroke-width: 0.8; stroke-linecap: square"/>
     </g>
     <g id="text_10">
      <!-- 0.33 -->
      <g transform="translate(69.498717 56.222871) scale(0.06 -0.06)">
       <defs>
        <path id="Times-33" d="M 678 3763 
L 563 3808 
Q 658 4206 933 4509 
Q 1209 4813 1689 4813 
Q 1911 4813 2110 4744 
Q 2309 4675 2461 4547 
Q 2613 4420 2698 4240 
Q 2784 4061 2784 3841 
Q 2784 3259 2144 2764 
Q 2553 2664 2768 2308 
Q 2983 1953 2983 1497 
Q 2983 1195 2851 912 
Q 2719 630 2487 409 
Q 2256 189 1961 65 
Q 1667 -58 1350 -58 
Q 906 -58 657 39 
Q 409 136 409 302 
Q 409 423 481 515 
Q 553 608 697 608 
Q 767 608 822 590 
Q 878 573 913 553 
Q 949 533 991 500 
Q 1033 467 1050 455 
Q 1086 423 1125 392 
Q 1164 361 1226 327 
Q 1289 294 1365 272 
Q 1441 250 1536 250 
Q 1781 250 1996 360 
Q 2211 470 2340 682 
Q 2470 895 2470 1184 
Q 2470 1508 2327 1786 
Q 2184 2064 1921 2226 
Q 1659 2388 1319 2388 
L 1191 2388 
L 1191 2464 
Q 1506 2523 1745 2687 
Q 1984 2852 2112 3076 
Q 2241 3300 2241 3533 
Q 2241 3845 2061 4079 
Q 1881 4314 1491 4314 
Q 1170 4314 973 4143 
Q 777 3972 678 3763 
z
" transform="scale(0.015625)"/>
       </defs>
       <use xlink:href="#Times-30"/>
       <use xlink:href="#Times-2e" x="53.100586"/>
       <use xlink:href="#Times-33" x="81.90918"/>
       <use xlink:href="#Times-33" x="135.107422"/>
      </g>
     </g>
    </g>
    <g id="ytick_3">
     <g id="line2d_11">
      <path d="M 74.88742 42.203068 
L 54.973369 50.451738 
L 46.724699 70.365789 
L 54.973369 90.27984 
L 74.88742 98.528509 
L 94.801471 90.27984 
L 103.050141 70.365789 
L 94.801471 50.451738 
L 74.88742 42.203068 
" clip-path="url(#pcc9a10dc50)" style="fill: none; stroke: #b0b0b0; stroke-width: 0.8; stroke-linecap: square"/>
     </g>
     <g id="text_11">
      <!-- 0.66 -->
      <g transform="translate(64.110013 43.21339) scale(0.06 -0.06)">
       <defs>
        <path id="Times-36" d="M 3059 5044 
L 3084 4903 
Q 2792 4850 2493 4715 
Q 2194 4581 1902 4321 
Q 1611 4061 1381 3641 
Q 1152 3222 1038 2638 
Q 1274 2805 1474 2894 
Q 1674 2983 1902 2983 
Q 2244 2983 2521 2815 
Q 2799 2648 2958 2326 
Q 3117 2005 3117 1569 
Q 3117 1120 2943 746 
Q 2770 373 2450 154 
Q 2131 -64 1716 -64 
Q 1313 -64 988 169 
Q 663 403 475 868 
Q 288 1334 288 1991 
Q 288 2663 507 3202 
Q 727 3742 1110 4124 
Q 1494 4506 1996 4738 
Q 2499 4970 3059 5044 
z
M 999 2388 
Q 959 2177 959 1747 
Q 959 1175 1086 826 
Q 1213 478 1403 338 
Q 1594 198 1805 198 
Q 2109 198 2309 440 
Q 2509 683 2509 1172 
Q 2509 1634 2405 1970 
Q 2302 2306 2113 2484 
Q 1924 2663 1670 2663 
Q 1494 2663 1316 2588 
Q 1138 2514 999 2388 
z
" transform="scale(0.015625)"/>
       </defs>
       <use xlink:href="#Times-30"/>
       <use xlink:href="#Times-2e" x="53.100586"/>
       <use xlink:href="#Times-36" x="81.90918"/>
       <use xlink:href="#Times-36" x="135.107422"/>
      </g>
     </g>
    </g>
    <g id="ytick_4">
     <g id="line2d_12">
      <path d="M 74.88742 27.695 
L 44.714616 40.192985 
L 32.216631 70.365789 
L 44.714616 100.538593 
L 74.88742 113.036578 
L 105.060224 100.538593 
L 117.558209 70.365789 
L 105.060224 40.192985 
L 74.88742 27.695 
" clip-path="url(#pcc9a10dc50)" style="fill: none; stroke: #b0b0b0; stroke-width: 0.8; stroke-linecap: square"/>
     </g>
     <g id="text_12">
      <!-- 1.00 -->
      <g transform="translate(58.558016 29.809683) scale(0.06 -0.06)">
       <defs>
        <path id="Times-31" d="M 852 4211 
L 2099 4813 
L 2099 563 
Q 2099 358 2211 220 
Q 2324 83 2675 83 
L 2791 83 
L 2791 0 
L 788 0 
L 788 83 
L 909 83 
Q 1478 83 1478 544 
L 1478 3878 
Q 1478 4223 1216 4223 
Q 1114 4223 903 4109 
L 852 4211 
z
" transform="scale(0.015625)"/>
       </defs>
       <use xlink:href="#Times-31"/>
       <use xlink:href="#Times-2e" x="53.295898"/>
       <use xlink:href="#Times-30" x="82.104492"/>
       <use xlink:href="#Times-30" x="135.205078"/>
      </g>
     </g>
    </g>
   </g>
   <g id="line2d_13">
    <path d="M 74.88742 48.7244 
L 55.116293 50.594662 
L 51.620611 70.365789 
L 50.307502 94.945706 
L 74.88742 97.561399 
L 98.673316 94.151685 
L 110.118894 70.365789 
L 95.528 49.725209 
L 74.88742 48.7244 
" clip-path="url(#pcc9a10dc50)" style="fill: none; stroke: #006400; stroke-width: 1.5; stroke-linecap: square"/>
   </g>
   <g id="line2d_14">
    <path d="M 74.88742 61.205232 
L 66.20122 61.679588 
L 50.609212 70.365789 
L 53.149624 92.103585 
L 74.88742 102.904893 
L 92.953944 88.432313 
L 103.292572 70.365789 
L 97.503646 47.749563 
L 74.88742 61.205232 
" clip-path="url(#pcc9a10dc50)" style="fill: none; stroke: #ff8c00; stroke-width: 1.5; stroke-linecap: square"/>
   </g>
   <g id="line2d_15">
    <path d="M 74.88742 60.555612 
L 65.455737 60.934106 
L 49.895294 70.365789 
L 56.444278 88.808931 
L 74.88742 95.904015 
L 90.191505 85.669874 
L 95.791526 70.365789 
L 96.174958 49.078251 
L 74.88742 60.555612 
" clip-path="url(#pcc9a10dc50)" style="fill: none; stroke: #0000ff; stroke-width: 1.5; stroke-linecap: square"/>
   </g>
   <g id="line2d_16">
    <path d="M 74.88742 58.218406 
L 62.2801 57.758469 
L 50.670981 70.365789 
L 50.921352 94.331857 
L 74.88742 100.432008 
L 93.739402 89.217771 
L 105.366555 70.365789 
L 98.504322 46.748887 
L 74.88742 58.218406 
" clip-path="url(#pcc9a10dc50)" style="fill: none; stroke: #800080; stroke-width: 1.5; stroke-linecap: square"/>
   </g>
   <g id="patch_3">
    <path d="M 74.88742 27.695 
L 44.714616 40.192985 
L 32.216631 70.365789 
L 44.714616 100.538593 
L 74.88742 113.036578 
L 105.060224 100.538593 
L 117.558209 70.365789 
L 105.060224 40.192985 
L 74.88742 27.695 
z
" style="fill: none; stroke: #000000; stroke-width: 0.8; stroke-linejoin: miter; stroke-linecap: square"/>
   </g>
   <g id="text_13">
    <!-- Wave5 -->
    <g transform="translate(62.94617 7.12875) scale(0.08 -0.08)">
     <defs>
      <path id="Times-57" d="M -109 4748 
L 1664 4748 
L 1664 4659 
Q 1242 4638 1242 4391 
Q 1242 4313 1267 4250 
L 2342 1414 
L 3124 3508 
L 2886 4109 
Q 2780 4383 2645 4521 
Q 2511 4659 2266 4659 
L 2266 4748 
L 4077 4748 
L 4077 4659 
Q 3824 4659 3716 4577 
Q 3609 4495 3609 4391 
Q 3609 4241 3667 4077 
L 4684 1414 
L 5594 4058 
Q 5664 4247 5664 4391 
Q 5664 4659 5197 4659 
L 5197 4748 
L 6483 4748 
L 6489 4659 
Q 6347 4648 6245 4575 
Q 6144 4503 6079 4400 
Q 6014 4297 5969 4173 
Q 5925 4050 5902 3981 
L 4544 -64 
L 4461 -64 
L 3303 3020 
L 2163 -64 
L 2086 -64 
L 449 4238 
Q 366 4459 246 4559 
Q 127 4659 -103 4659 
L -109 4748 
z
" transform="scale(0.015625)"/>
      <path id="Times-35" d="M 556 2956 
L 1377 4748 
L 3027 4748 
L 2764 4180 
L 1356 4180 
L 1050 3502 
Q 1536 3450 1906 3280 
Q 2277 3111 2516 2858 
Q 2756 2606 2872 2297 
Q 2989 1988 2989 1652 
Q 2989 1173 2764 782 
Q 2539 391 2159 166 
Q 1780 -58 1338 -58 
Q 936 -58 657 15 
Q 378 89 378 333 
Q 378 453 463 530 
Q 549 608 672 608 
Q 827 608 1030 455 
Q 1269 250 1524 250 
Q 1805 250 2034 397 
Q 2263 544 2389 794 
Q 2516 1045 2516 1344 
Q 2516 1638 2384 1918 
Q 2252 2198 2001 2423 
Q 1750 2648 1383 2790 
Q 1016 2933 556 2956 
z
" transform="scale(0.015625)"/>
     </defs>
     <use xlink:href="#Times-57"/>
     <use xlink:href="#Times-61" x="98.291016"/>
     <use xlink:href="#Times-76" x="147.802734"/>
     <use xlink:href="#Times-65" x="196.411133"/>
     <use xlink:href="#Times-35" x="245.3125"/>
    </g>
   </g>
   <g id="legend_1">
    <g id="line2d_17">
     <path d="M 3.48 140.791742 
L 9.48 140.791742 
L 15.48 140.791742 
" style="fill: none; stroke: #006400; stroke-width: 1.5; stroke-linecap: square"/>
    </g>
    <g id="text_14">
     <!-- Germany -->
     <g transform="translate(20.28 142.891742) scale(0.06 -0.06)">
      <defs>
       <path id="Times-47" d="M 4742 4781 
L 4831 3366 
L 4742 3366 
Q 4613 3708 4373 3978 
Q 4134 4248 3785 4405 
Q 3436 4563 3002 4563 
Q 2509 4563 2093 4309 
Q 1677 4056 1430 3573 
Q 1184 3091 1184 2445 
Q 1184 1716 1448 1212 
Q 1713 709 2138 466 
Q 2564 223 3041 223 
Q 3703 223 4134 563 
L 4134 1984 
Q 4134 2183 4028 2323 
Q 3922 2464 3564 2464 
L 3514 2464 
L 3514 2553 
L 5511 2553 
L 5511 2464 
L 5459 2464 
Q 5103 2464 4996 2323 
Q 4889 2183 4889 1984 
L 4889 467 
Q 4461 209 3972 72 
Q 3484 -64 3027 -64 
Q 2569 -64 2106 62 
Q 1644 189 1245 469 
Q 847 750 602 1210 
Q 358 1670 358 2305 
Q 358 2786 531 3237 
Q 705 3688 1044 4045 
Q 1384 4403 1881 4608 
Q 2378 4813 3008 4813 
Q 3353 4813 3614 4748 
Q 3875 4683 4109 4583 
Q 4316 4498 4409 4498 
Q 4525 4498 4583 4585 
Q 4641 4673 4653 4781 
L 4742 4781 
z
" transform="scale(0.015625)"/>
      </defs>
      <use xlink:href="#Times-47"/>
      <use xlink:href="#Times-65" x="88.891602"/>
      <use xlink:href="#Times-72" x="137.792969"/>
      <use xlink:href="#Times-6d" x="175.390625"/>
      <use xlink:href="#Times-61" x="264.086914"/>
      <use xlink:href="#Times-6e" x="313.598633"/>
      <use xlink:href="#Times-79" x="372.607422"/>
     </g>
    </g>
    <g id="line2d_18">
     <path d="M 3.48 147.073929 
L 9.48 147.073929 
L 15.48 147.073929 
" style="fill: none; stroke: #ff8c00; stroke-width: 1.5; stroke-linecap: square"/>
    </g>
    <g id="text_15">
     <!-- China -->
     <g transform="translate(20.28 149.173929) scale(0.06 -0.06)">
      <defs>
       <path id="Times-43" d="M 4525 4775 
L 4602 3264 
L 4513 3252 
Q 4438 3584 4248 3877 
Q 4058 4170 3727 4357 
Q 3397 4544 2938 4544 
Q 2578 4544 2262 4411 
Q 1947 4278 1705 4013 
Q 1463 3748 1323 3343 
Q 1184 2938 1184 2419 
Q 1184 1898 1327 1495 
Q 1470 1092 1726 825 
Q 1983 558 2319 426 
Q 2655 294 3034 294 
Q 3931 294 4641 1145 
L 4788 1011 
Q 4003 -64 2836 -64 
Q 2306 -64 1849 129 
Q 1392 323 1057 667 
Q 722 1011 540 1457 
Q 358 1903 358 2400 
Q 358 2948 559 3398 
Q 761 3848 1116 4165 
Q 1472 4483 1925 4648 
Q 2378 4813 2880 4813 
Q 3406 4813 3924 4608 
Q 4149 4525 4224 4525 
Q 4422 4525 4449 4775 
L 4525 4775 
z
" transform="scale(0.015625)"/>
      </defs>
      <use xlink:href="#Times-43"/>
      <use xlink:href="#Times-68" x="77.587891"/>
      <use xlink:href="#Times-69" x="135.888672"/>
      <use xlink:href="#Times-6e" x="165.283203"/>
      <use xlink:href="#Times-61" x="224.291992"/>
     </g>
    </g>
    <g id="line2d_19">
     <path d="M 57.655313 140.791742 
L 63.655313 140.791742 
L 69.655313 140.791742 
" style="fill: none; stroke: #0000ff; stroke-width: 1.5; stroke-linecap: square"/>
    </g>
    <g id="text_16">
     <!-- Iran -->
     <g transform="translate(74.455313 142.891742) scale(0.06 -0.06)">
      <defs>
       <path id="Times-49" d="M 314 4748 
L 2445 4748 
L 2445 4659 
L 2330 4659 
Q 1978 4659 1865 4521 
Q 1753 4384 1753 4180 
L 1753 570 
Q 1753 366 1865 227 
Q 1978 89 2330 89 
L 2445 89 
L 2445 0 
L 314 0 
L 314 89 
L 428 89 
Q 786 89 892 230 
Q 999 372 999 570 
L 999 4180 
Q 999 4378 892 4518 
Q 786 4659 428 4659 
L 314 4659 
L 314 4748 
z
" transform="scale(0.015625)"/>
      </defs>
      <use xlink:href="#Times-49"/>
      <use xlink:href="#Times-72" x="41.699219"/>
      <use xlink:href="#Times-61" x="79.296875"/>
      <use xlink:href="#Times-6e" x="128.808594"/>
     </g>
    </g>
    <g id="line2d_20">
     <path d="M 57.655313 147.061742 
L 63.655313 147.061742 
L 69.655313 147.061742 
" style="fill: none; stroke: #800080; stroke-width: 1.5; stroke-linecap: square"/>
    </g>
    <g id="text_17">
     <!-- South Africa -->
     <g transform="translate(74.455313 149.161742) scale(0.06 -0.06)">
      <defs>
       <path id="Times-53" d="M 3181 4813 
L 3181 3283 
L 3091 3283 
Q 3080 3625 2909 3914 
Q 2738 4203 2460 4370 
Q 2183 4538 1875 4538 
Q 1684 4538 1506 4455 
Q 1328 4373 1218 4225 
Q 1108 4077 1108 3884 
Q 1108 3667 1248 3480 
Q 1388 3294 1616 3133 
Q 1845 2973 2183 2784 
Q 2805 2428 3140 2062 
Q 3475 1697 3475 1133 
Q 3475 756 3260 483 
Q 3045 211 2700 73 
Q 2355 -64 1964 -64 
Q 1763 -64 1641 -34 
Q 1520 -5 1261 77 
Q 1052 153 928 173 
L 819 173 
Q 627 138 589 -64 
L 499 -64 
L 506 1542 
L 595 1542 
Q 678 1006 1006 618 
Q 1334 230 1875 230 
Q 2116 230 2323 308 
Q 2531 386 2657 547 
Q 2784 708 2784 941 
Q 2784 1236 2618 1465 
Q 2453 1695 2231 1848 
Q 2009 2002 1683 2183 
Q 1319 2386 1074 2565 
Q 830 2745 661 3006 
Q 492 3267 492 3609 
Q 492 3888 603 4114 
Q 714 4341 909 4497 
Q 1105 4653 1352 4733 
Q 1599 4813 1869 4813 
Q 2178 4813 2605 4653 
Q 2750 4589 2874 4589 
Q 2956 4589 3023 4654 
Q 3091 4720 3105 4813 
L 3181 4813 
z
" transform="scale(0.015625)"/>
       <path id="Times-41" d="M -134 0 
L -134 89 
Q 64 114 204 268 
Q 344 422 480 736 
L 2284 4813 
L 2349 4813 
L 4159 736 
Q 4286 461 4346 358 
Q 4406 256 4524 185 
Q 4642 114 4858 89 
L 4858 0 
L 2956 0 
L 2956 89 
Q 3239 136 3338 204 
Q 3438 273 3438 378 
Q 3438 514 3386 647 
L 2989 1555 
L 1203 1555 
L 813 653 
Q 736 469 736 391 
Q 736 227 893 158 
Q 1050 89 1222 89 
L 1222 0 
L -134 0 
z
M 2099 3616 
L 1325 1844 
L 2880 1844 
L 2099 3616 
z
" transform="scale(0.015625)"/>
       <path id="Times-66" d="M 697 3008 
L 186 3008 
L 186 3252 
L 697 3252 
L 697 3475 
Q 697 3830 837 4142 
Q 977 4455 1246 4647 
Q 1516 4839 1881 4839 
Q 2067 4839 2275 4778 
Q 2484 4717 2631 4593 
Q 2778 4469 2778 4288 
Q 2778 4164 2700 4094 
Q 2622 4025 2516 4025 
Q 2377 4025 2307 4091 
Q 2238 4158 2125 4320 
Q 2047 4442 1954 4512 
Q 1861 4583 1695 4583 
Q 1514 4583 1422 4488 
Q 1331 4394 1300 4220 
Q 1270 4047 1267 3756 
Q 1267 3684 1270 3517 
Q 1274 3350 1274 3252 
L 1927 3252 
L 1927 3008 
L 1274 3008 
L 1274 627 
Q 1274 373 1366 231 
Q 1459 89 1799 89 
L 1881 89 
L 1881 0 
L 134 0 
L 134 89 
L 205 89 
Q 522 89 609 233 
Q 697 377 697 627 
L 697 3008 
z
" transform="scale(0.015625)"/>
      </defs>
      <use xlink:href="#Times-53"/>
      <use xlink:href="#Times-6f" x="59.912109"/>
      <use xlink:href="#Times-75" x="116.503906"/>
      <use xlink:href="#Times-74" x="173.31543"/>
      <use xlink:href="#Times-68" x="206.518555"/>
      <use xlink:href="#Times-20" x="264.819336"/>
      <use xlink:href="#Times-41" x="299.926758"/>
      <use xlink:href="#Times-66" x="372.338867"/>
      <use xlink:href="#Times-72" x="404.541016"/>
      <use xlink:href="#Times-69" x="442.138672"/>
      <use xlink:href="#Times-63" x="471.533203"/>
      <use xlink:href="#Times-61" x="521.435547"/>
     </g>
    </g>
   </g>
  </g>
 </g>
 <defs>
  <clipPath id="pcc9a10dc50">
   <path d="M 74.88742 27.695 
L 44.714616 40.192985 
L 32.216631 70.365789 
L 44.714616 100.538593 
L 74.88742 113.036578 
L 105.060224 100.538593 
L 117.558209 70.365789 
L 105.060224 40.192985 
z
"/>
  </clipPath>
 </defs>
</svg>
