<?xml version="1.0" encoding="utf-8" standalone="no"?>
<!DOCTYPE svg PUBLIC "-//W3C//DTD SVG 1.1//EN"
  "http://www.w3.org/Graphics/SVG/1.1/DTD/svg11.dtd">
<svg xmlns:xlink="http://www.w3.org/1999/xlink" width="648pt" height="648pt" viewBox="0 0 648 648" xmlns="http://www.w3.org/2000/svg" version="1.1">
 <metadata>
  <rdf:RDF xmlns:dc="http://purl.org/dc/elements/1.1/" xmlns:cc="http://creativecommons.org/ns#" xmlns:rdf="http://www.w3.org/1999/02/22-rdf-syntax-ns#">
   <cc:Work>
    <dc:type rdf:resource="http://purl.org/dc/dcmitype/StillImage"/>
    <dc:date>2024-01-12T14:44:06.865620</dc:date>
    <dc:format>image/svg+xml</dc:format>
    <dc:creator>
     <cc:Agent>
      <dc:title>Matplotlib v3.8.2, https://matplotlib.org/</dc:title>
     </cc:Agent>
    </dc:creator>
   </cc:Work>
  </rdf:RDF>
 </metadata>
 <defs>
  <style type="text/css">*{stroke-linejoin: round; stroke-linecap: butt}</style>
 </defs>
 <g id="figure_1">
  <g id="patch_1">
   <path d="M 0 648 
L 648 648 
L 648 0 
L 0 0 
z
" style="fill: #ffffff"/>
  </g>
  <g id="axes_1">
   <g id="patch_2">
    <path d="M 162.938096 89.597399 
L 79.891134 123.996577 
L 45.491956 207.043538 
L 79.891134 290.0905 
L 162.938096 324.489678 
L 245.985058 290.0905 
L 280.384236 207.043538 
L 245.985058 123.996577 
z
" style="fill: #ffffff"/>
   </g>
   <g id="matplotlib.axis_1">
    <g id="xtick_1">
     <g id="line2d_1">
      <path d="M 162.938096 207.043538 
L 162.938096 192.362771 
L 162.938096 177.682003 
L 162.938096 163.001236 
L 162.938096 148.320469 
L 162.938096 133.639701 
L 162.938096 118.958934 
L 162.938096 104.278166 
L 162.938096 89.597399 
" clip-path="url(#p20aca692df)" style="fill: none; stroke: #b0b0b0; stroke-width: 0.8; stroke-linecap: square"/>
     </g>
     <g id="text_1">
      <!-- abortion -->
      <g transform="translate(142.007627 78.356774) scale(0.1 -0.1)">
       <defs>
        <path id="DejaVuSans-61" d="M 2194 1759 
Q 1497 1759 1228 1600 
Q 959 1441 959 1056 
Q 959 750 1161 570 
Q 1363 391 1709 391 
Q 2188 391 2477 730 
Q 2766 1069 2766 1631 
L 2766 1759 
L 2194 1759 
z
M 3341 1997 
L 3341 0 
L 2766 0 
L 2766 531 
Q 2569 213 2275 61 
Q 1981 -91 1556 -91 
Q 1019 -91 701 211 
Q 384 513 384 1019 
Q 384 1609 779 1909 
Q 1175 2209 1959 2209 
L 2766 2209 
L 2766 2266 
Q 2766 2663 2505 2880 
Q 2244 3097 1772 3097 
Q 1472 3097 1187 3025 
Q 903 2953 641 2809 
L 641 3341 
Q 956 3463 1253 3523 
Q 1550 3584 1831 3584 
Q 2591 3584 2966 3190 
Q 3341 2797 3341 1997 
z
" transform="scale(0.015625)"/>
        <path id="DejaVuSans-62" d="M 3116 1747 
Q 3116 2381 2855 2742 
Q 2594 3103 2138 3103 
Q 1681 3103 1420 2742 
Q 1159 2381 1159 1747 
Q 1159 1113 1420 752 
Q 1681 391 2138 391 
Q 2594 391 2855 752 
Q 3116 1113 3116 1747 
z
M 1159 2969 
Q 1341 3281 1617 3432 
Q 1894 3584 2278 3584 
Q 2916 3584 3314 3078 
Q 3713 2572 3713 1747 
Q 3713 922 3314 415 
Q 2916 -91 2278 -91 
Q 1894 -91 1617 61 
Q 1341 213 1159 525 
L 1159 0 
L 581 0 
L 581 4863 
L 1159 4863 
L 1159 2969 
z
" transform="scale(0.015625)"/>
        <path id="DejaVuSans-6f" d="M 1959 3097 
Q 1497 3097 1228 2736 
Q 959 2375 959 1747 
Q 959 1119 1226 758 
Q 1494 397 1959 397 
Q 2419 397 2687 759 
Q 2956 1122 2956 1747 
Q 2956 2369 2687 2733 
Q 2419 3097 1959 3097 
z
M 1959 3584 
Q 2709 3584 3137 3096 
Q 3566 2609 3566 1747 
Q 3566 888 3137 398 
Q 2709 -91 1959 -91 
Q 1206 -91 779 398 
Q 353 888 353 1747 
Q 353 2609 779 3096 
Q 1206 3584 1959 3584 
z
" transform="scale(0.015625)"/>
        <path id="DejaVuSans-72" d="M 2631 2963 
Q 2534 3019 2420 3045 
Q 2306 3072 2169 3072 
Q 1681 3072 1420 2755 
Q 1159 2438 1159 1844 
L 1159 0 
L 581 0 
L 581 3500 
L 1159 3500 
L 1159 2956 
Q 1341 3275 1631 3429 
Q 1922 3584 2338 3584 
Q 2397 3584 2469 3576 
Q 2541 3569 2628 3553 
L 2631 2963 
z
" transform="scale(0.015625)"/>
        <path id="DejaVuSans-74" d="M 1172 4494 
L 1172 3500 
L 2356 3500 
L 2356 3053 
L 1172 3053 
L 1172 1153 
Q 1172 725 1289 603 
Q 1406 481 1766 481 
L 2356 481 
L 2356 0 
L 1766 0 
Q 1100 0 847 248 
Q 594 497 594 1153 
L 594 3053 
L 172 3053 
L 172 3500 
L 594 3500 
L 594 4494 
L 1172 4494 
z
" transform="scale(0.015625)"/>
        <path id="DejaVuSans-69" d="M 603 3500 
L 1178 3500 
L 1178 0 
L 603 0 
L 603 3500 
z
M 603 4863 
L 1178 4863 
L 1178 4134 
L 603 4134 
L 603 4863 
z
" transform="scale(0.015625)"/>
        <path id="DejaVuSans-6e" d="M 3513 2113 
L 3513 0 
L 2938 0 
L 2938 2094 
Q 2938 2591 2744 2837 
Q 2550 3084 2163 3084 
Q 1697 3084 1428 2787 
Q 1159 2491 1159 1978 
L 1159 0 
L 581 0 
L 581 3500 
L 1159 3500 
L 1159 2956 
Q 1366 3272 1645 3428 
Q 1925 3584 2291 3584 
Q 2894 3584 3203 3211 
Q 3513 2838 3513 2113 
z
" transform="scale(0.015625)"/>
       </defs>
       <use xlink:href="#DejaVuSans-61"/>
       <use xlink:href="#DejaVuSans-62" x="61.279297"/>
       <use xlink:href="#DejaVuSans-6f" x="124.755859"/>
       <use xlink:href="#DejaVuSans-72" x="185.9375"/>
       <use xlink:href="#DejaVuSans-74" x="227.050781"/>
       <use xlink:href="#DejaVuSans-69" x="266.259766"/>
       <use xlink:href="#DejaVuSans-6f" x="294.042969"/>
       <use xlink:href="#DejaVuSans-6e" x="355.224609"/>
      </g>
     </g>
    </g>
    <g id="xtick_2">
     <g id="line2d_2">
      <path d="M 162.938096 207.043538 
L 152.557226 196.662668 
L 142.176356 186.281798 
L 131.795485 175.900928 
L 121.414615 165.520058 
L 111.033745 155.139187 
L 100.652875 144.758317 
L 90.272004 134.377447 
L 79.891134 123.996577 
" clip-path="url(#p20aca692df)" style="fill: none; stroke: #b0b0b0; stroke-width: 0.8; stroke-linecap: square"/>
     </g>
     <g id="text_2">
      <!-- divorce -->
      <g transform="translate(51.640858 116.856457) scale(0.1 -0.1)">
       <defs>
        <path id="DejaVuSans-64" d="M 2906 2969 
L 2906 4863 
L 3481 4863 
L 3481 0 
L 2906 0 
L 2906 525 
Q 2725 213 2448 61 
Q 2172 -91 1784 -91 
Q 1150 -91 751 415 
Q 353 922 353 1747 
Q 353 2572 751 3078 
Q 1150 3584 1784 3584 
Q 2172 3584 2448 3432 
Q 2725 3281 2906 2969 
z
M 947 1747 
Q 947 1113 1208 752 
Q 1469 391 1925 391 
Q 2381 391 2643 752 
Q 2906 1113 2906 1747 
Q 2906 2381 2643 2742 
Q 2381 3103 1925 3103 
Q 1469 3103 1208 2742 
Q 947 2381 947 1747 
z
" transform="scale(0.015625)"/>
        <path id="DejaVuSans-76" d="M 191 3500 
L 800 3500 
L 1894 563 
L 2988 3500 
L 3597 3500 
L 2284 0 
L 1503 0 
L 191 3500 
z
" transform="scale(0.015625)"/>
        <path id="DejaVuSans-63" d="M 3122 3366 
L 3122 2828 
Q 2878 2963 2633 3030 
Q 2388 3097 2138 3097 
Q 1578 3097 1268 2742 
Q 959 2388 959 1747 
Q 959 1106 1268 751 
Q 1578 397 2138 397 
Q 2388 397 2633 464 
Q 2878 531 3122 666 
L 3122 134 
Q 2881 22 2623 -34 
Q 2366 -91 2075 -91 
Q 1284 -91 818 406 
Q 353 903 353 1747 
Q 353 2603 823 3093 
Q 1294 3584 2113 3584 
Q 2378 3584 2631 3529 
Q 2884 3475 3122 3366 
z
" transform="scale(0.015625)"/>
        <path id="DejaVuSans-65" d="M 3597 1894 
L 3597 1613 
L 953 1613 
Q 991 1019 1311 708 
Q 1631 397 2203 397 
Q 2534 397 2845 478 
Q 3156 559 3463 722 
L 3463 178 
Q 3153 47 2828 -22 
Q 2503 -91 2169 -91 
Q 1331 -91 842 396 
Q 353 884 353 1716 
Q 353 2575 817 3079 
Q 1281 3584 2069 3584 
Q 2775 3584 3186 3129 
Q 3597 2675 3597 1894 
z
M 3022 2063 
Q 3016 2534 2758 2815 
Q 2500 3097 2075 3097 
Q 1594 3097 1305 2825 
Q 1016 2553 972 2059 
L 3022 2063 
z
" transform="scale(0.015625)"/>
       </defs>
       <use xlink:href="#DejaVuSans-64"/>
       <use xlink:href="#DejaVuSans-69" x="63.476562"/>
       <use xlink:href="#DejaVuSans-76" x="91.259766"/>
       <use xlink:href="#DejaVuSans-6f" x="150.439453"/>
       <use xlink:href="#DejaVuSans-72" x="211.621094"/>
       <use xlink:href="#DejaVuSans-63" x="250.484375"/>
       <use xlink:href="#DejaVuSans-65" x="305.464844"/>
      </g>
     </g>
    </g>
    <g id="xtick_3">
     <g id="line2d_3">
      <path d="M 162.938096 207.043538 
L 148.257329 207.043538 
L 133.576561 207.043538 
L 118.895794 207.043538 
L 104.215026 207.043538 
L 89.534259 207.043538 
L 74.853491 207.043538 
L 60.172724 207.043538 
L 45.491956 207.043538 
" clip-path="url(#p20aca692df)" style="fill: none; stroke: #b0b0b0; stroke-width: 0.8; stroke-linecap: square"/>
     </g>
     <g id="text_3">
      <!-- $$$ -->
      <g transform="translate(21.948206 209.802913) scale(0.1 -0.1)">
       <defs>
        <path id="DejaVuSans-24" d="M 2163 -941 
L 1850 -941 
L 1847 0 
Q 1519 6 1191 76 
Q 863 147 531 288 
L 531 850 
Q 850 650 1176 548 
Q 1503 447 1850 444 
L 1850 1869 
Q 1159 1981 845 2250 
Q 531 2519 531 2988 
Q 531 3497 872 3790 
Q 1213 4084 1850 4128 
L 1850 4863 
L 2163 4863 
L 2163 4138 
Q 2453 4125 2725 4076 
Q 2997 4028 3256 3944 
L 3256 3397 
Q 2997 3528 2723 3600 
Q 2450 3672 2163 3684 
L 2163 2350 
Q 2872 2241 3206 1959 
Q 3541 1678 3541 1191 
Q 3541 663 3186 358 
Q 2831 53 2163 6 
L 2163 -941 
z
M 1850 2406 
L 1850 3688 
Q 1488 3647 1297 3481 
Q 1106 3316 1106 3041 
Q 1106 2772 1282 2622 
Q 1459 2472 1850 2406 
z
M 2163 1806 
L 2163 453 
Q 2559 506 2761 678 
Q 2963 850 2963 1131 
Q 2963 1406 2770 1568 
Q 2578 1731 2163 1806 
z
" transform="scale(0.015625)"/>
       </defs>
       <use xlink:href="#DejaVuSans-24"/>
       <use xlink:href="#DejaVuSans-24" x="63.623047"/>
       <use xlink:href="#DejaVuSans-24" x="127.246094"/>
      </g>
     </g>
    </g>
    <g id="xtick_4">
     <g id="line2d_4">
      <path d="M 162.938096 207.043538 
L 152.557226 217.424409 
L 142.176356 227.805279 
L 131.795485 238.186149 
L 121.414615 248.567019 
L 111.033745 258.94789 
L 100.652875 269.32876 
L 90.272004 279.70963 
L 79.891134 290.0905 
" clip-path="url(#p20aca692df)" style="fill: none; stroke: #b0b0b0; stroke-width: 0.8; stroke-linecap: square"/>
     </g>
     <g id="text_4">
      <!-- university -->
      <g transform="translate(45.260389 302.74937) scale(0.1 -0.1)">
       <defs>
        <path id="DejaVuSans-75" d="M 544 1381 
L 544 3500 
L 1119 3500 
L 1119 1403 
Q 1119 906 1312 657 
Q 1506 409 1894 409 
Q 2359 409 2629 706 
Q 2900 1003 2900 1516 
L 2900 3500 
L 3475 3500 
L 3475 0 
L 2900 0 
L 2900 538 
Q 2691 219 2414 64 
Q 2138 -91 1772 -91 
Q 1169 -91 856 284 
Q 544 659 544 1381 
z
M 1991 3584 
L 1991 3584 
z
" transform="scale(0.015625)"/>
        <path id="DejaVuSans-73" d="M 2834 3397 
L 2834 2853 
Q 2591 2978 2328 3040 
Q 2066 3103 1784 3103 
Q 1356 3103 1142 2972 
Q 928 2841 928 2578 
Q 928 2378 1081 2264 
Q 1234 2150 1697 2047 
L 1894 2003 
Q 2506 1872 2764 1633 
Q 3022 1394 3022 966 
Q 3022 478 2636 193 
Q 2250 -91 1575 -91 
Q 1294 -91 989 -36 
Q 684 19 347 128 
L 347 722 
Q 666 556 975 473 
Q 1284 391 1588 391 
Q 1994 391 2212 530 
Q 2431 669 2431 922 
Q 2431 1156 2273 1281 
Q 2116 1406 1581 1522 
L 1381 1569 
Q 847 1681 609 1914 
Q 372 2147 372 2553 
Q 372 3047 722 3315 
Q 1072 3584 1716 3584 
Q 2034 3584 2315 3537 
Q 2597 3491 2834 3397 
z
" transform="scale(0.015625)"/>
        <path id="DejaVuSans-79" d="M 2059 -325 
Q 1816 -950 1584 -1140 
Q 1353 -1331 966 -1331 
L 506 -1331 
L 506 -850 
L 844 -850 
Q 1081 -850 1212 -737 
Q 1344 -625 1503 -206 
L 1606 56 
L 191 3500 
L 800 3500 
L 1894 763 
L 2988 3500 
L 3597 3500 
L 2059 -325 
z
" transform="scale(0.015625)"/>
       </defs>
       <use xlink:href="#DejaVuSans-75"/>
       <use xlink:href="#DejaVuSans-6e" x="63.378906"/>
       <use xlink:href="#DejaVuSans-69" x="126.757812"/>
       <use xlink:href="#DejaVuSans-76" x="154.541016"/>
       <use xlink:href="#DejaVuSans-65" x="213.720703"/>
       <use xlink:href="#DejaVuSans-72" x="275.244141"/>
       <use xlink:href="#DejaVuSans-73" x="316.357422"/>
       <use xlink:href="#DejaVuSans-69" x="368.457031"/>
       <use xlink:href="#DejaVuSans-74" x="396.240234"/>
       <use xlink:href="#DejaVuSans-79" x="435.449219"/>
      </g>
     </g>
    </g>
    <g id="xtick_5">
     <g id="line2d_5">
      <path d="M 162.938096 207.043538 
L 162.938096 221.724306 
L 162.938096 236.405073 
L 162.938096 251.085841 
L 162.938096 265.766608 
L 162.938096 280.447376 
L 162.938096 295.128143 
L 162.938096 309.808911 
L 162.938096 324.489678 
" clip-path="url(#p20aca692df)" style="fill: none; stroke: #b0b0b0; stroke-width: 0.8; stroke-linecap: square"/>
     </g>
     <g id="text_5">
      <!-- women movement -->
      <g transform="translate(116.043565 341.249053) scale(0.1 -0.1)">
       <defs>
        <path id="DejaVuSans-77" d="M 269 3500 
L 844 3500 
L 1563 769 
L 2278 3500 
L 2956 3500 
L 3675 769 
L 4391 3500 
L 4966 3500 
L 4050 0 
L 3372 0 
L 2619 2869 
L 1863 0 
L 1184 0 
L 269 3500 
z
" transform="scale(0.015625)"/>
        <path id="DejaVuSans-6d" d="M 3328 2828 
Q 3544 3216 3844 3400 
Q 4144 3584 4550 3584 
Q 5097 3584 5394 3201 
Q 5691 2819 5691 2113 
L 5691 0 
L 5113 0 
L 5113 2094 
Q 5113 2597 4934 2840 
Q 4756 3084 4391 3084 
Q 3944 3084 3684 2787 
Q 3425 2491 3425 1978 
L 3425 0 
L 2847 0 
L 2847 2094 
Q 2847 2600 2669 2842 
Q 2491 3084 2119 3084 
Q 1678 3084 1418 2786 
Q 1159 2488 1159 1978 
L 1159 0 
L 581 0 
L 581 3500 
L 1159 3500 
L 1159 2956 
Q 1356 3278 1631 3431 
Q 1906 3584 2284 3584 
Q 2666 3584 2933 3390 
Q 3200 3197 3328 2828 
z
" transform="scale(0.015625)"/>
        <path id="DejaVuSans-20" transform="scale(0.015625)"/>
       </defs>
       <use xlink:href="#DejaVuSans-77"/>
       <use xlink:href="#DejaVuSans-6f" x="81.787109"/>
       <use xlink:href="#DejaVuSans-6d" x="142.96875"/>
       <use xlink:href="#DejaVuSans-65" x="240.380859"/>
       <use xlink:href="#DejaVuSans-6e" x="301.904297"/>
       <use xlink:href="#DejaVuSans-20" x="365.283203"/>
       <use xlink:href="#DejaVuSans-6d" x="397.070312"/>
       <use xlink:href="#DejaVuSans-6f" x="494.482422"/>
       <use xlink:href="#DejaVuSans-76" x="555.664062"/>
       <use xlink:href="#DejaVuSans-65" x="614.84375"/>
       <use xlink:href="#DejaVuSans-6d" x="676.367188"/>
       <use xlink:href="#DejaVuSans-65" x="773.779297"/>
       <use xlink:href="#DejaVuSans-6e" x="835.302734"/>
       <use xlink:href="#DejaVuSans-74" x="898.681641"/>
      </g>
     </g>
    </g>
    <g id="xtick_6">
     <g id="line2d_6">
      <path d="M 162.938096 207.043538 
L 173.318966 217.424409 
L 183.699837 227.805279 
L 194.080707 238.186149 
L 204.461577 248.567019 
L 214.842447 258.94789 
L 225.223318 269.32876 
L 235.604188 279.70963 
L 245.985058 290.0905 
" clip-path="url(#p20aca692df)" style="fill: none; stroke: #b0b0b0; stroke-width: 0.8; stroke-linecap: square"/>
     </g>
     <g id="text_6">
      <!-- politician -->
      <g transform="translate(233.152522 302.74937) scale(0.1 -0.1)">
       <defs>
        <path id="DejaVuSans-70" d="M 1159 525 
L 1159 -1331 
L 581 -1331 
L 581 3500 
L 1159 3500 
L 1159 2969 
Q 1341 3281 1617 3432 
Q 1894 3584 2278 3584 
Q 2916 3584 3314 3078 
Q 3713 2572 3713 1747 
Q 3713 922 3314 415 
Q 2916 -91 2278 -91 
Q 1894 -91 1617 61 
Q 1341 213 1159 525 
z
M 3116 1747 
Q 3116 2381 2855 2742 
Q 2594 3103 2138 3103 
Q 1681 3103 1420 2742 
Q 1159 2381 1159 1747 
Q 1159 1113 1420 752 
Q 1681 391 2138 391 
Q 2594 391 2855 752 
Q 3116 1113 3116 1747 
z
" transform="scale(0.015625)"/>
        <path id="DejaVuSans-6c" d="M 603 4863 
L 1178 4863 
L 1178 0 
L 603 0 
L 603 4863 
z
" transform="scale(0.015625)"/>
       </defs>
       <use xlink:href="#DejaVuSans-70"/>
       <use xlink:href="#DejaVuSans-6f" x="63.476562"/>
       <use xlink:href="#DejaVuSans-6c" x="124.658203"/>
       <use xlink:href="#DejaVuSans-69" x="152.441406"/>
       <use xlink:href="#DejaVuSans-74" x="180.224609"/>
       <use xlink:href="#DejaVuSans-69" x="219.433594"/>
       <use xlink:href="#DejaVuSans-63" x="247.216797"/>
       <use xlink:href="#DejaVuSans-69" x="302.197266"/>
       <use xlink:href="#DejaVuSans-61" x="329.980469"/>
       <use xlink:href="#DejaVuSans-6e" x="391.259766"/>
      </g>
     </g>
    </g>
    <g id="xtick_7">
     <g id="line2d_7">
      <path d="M 162.938096 207.043538 
L 177.618864 207.043538 
L 192.299631 207.043538 
L 206.980399 207.043538 
L 221.661166 207.043538 
L 236.341934 207.043538 
L 251.022701 207.043538 
L 265.703469 207.043538 
L 280.384236 207.043538 
" clip-path="url(#p20aca692df)" style="fill: none; stroke: #b0b0b0; stroke-width: 0.8; stroke-linecap: square"/>
     </g>
     <g id="text_7">
      <!-- job -->
      <g transform="translate(286.76158 209.802913) scale(0.1 -0.1)">
       <defs>
        <path id="DejaVuSans-6a" d="M 603 3500 
L 1178 3500 
L 1178 -63 
Q 1178 -731 923 -1031 
Q 669 -1331 103 -1331 
L -116 -1331 
L -116 -844 
L 38 -844 
Q 366 -844 484 -692 
Q 603 -541 603 -63 
L 603 3500 
z
M 603 4863 
L 1178 4863 
L 1178 4134 
L 603 4134 
L 603 4863 
z
" transform="scale(0.015625)"/>
       </defs>
       <use xlink:href="#DejaVuSans-6a"/>
       <use xlink:href="#DejaVuSans-6f" x="27.783203"/>
       <use xlink:href="#DejaVuSans-62" x="88.964844"/>
      </g>
     </g>
    </g>
    <g id="xtick_8">
     <g id="line2d_8">
      <path d="M 162.938096 207.043538 
L 173.318966 196.662668 
L 183.699837 186.281798 
L 194.080707 175.900928 
L 204.461577 165.520058 
L 214.842447 155.139187 
L 225.223318 144.758317 
L 235.604188 134.377447 
L 245.985058 123.996577 
" clip-path="url(#p20aca692df)" style="fill: none; stroke: #b0b0b0; stroke-width: 0.8; stroke-linecap: square"/>
     </g>
     <g id="text_8">
      <!-- choice -->
      <g transform="translate(239.692366 116.856457) scale(0.1 -0.1)">
       <defs>
        <path id="DejaVuSans-68" d="M 3513 2113 
L 3513 0 
L 2938 0 
L 2938 2094 
Q 2938 2591 2744 2837 
Q 2550 3084 2163 3084 
Q 1697 3084 1428 2787 
Q 1159 2491 1159 1978 
L 1159 0 
L 581 0 
L 581 4863 
L 1159 4863 
L 1159 2956 
Q 1366 3272 1645 3428 
Q 1925 3584 2291 3584 
Q 2894 3584 3203 3211 
Q 3513 2838 3513 2113 
z
" transform="scale(0.015625)"/>
       </defs>
       <use xlink:href="#DejaVuSans-63"/>
       <use xlink:href="#DejaVuSans-68" x="54.980469"/>
       <use xlink:href="#DejaVuSans-6f" x="118.359375"/>
       <use xlink:href="#DejaVuSans-69" x="179.541016"/>
       <use xlink:href="#DejaVuSans-63" x="207.324219"/>
       <use xlink:href="#DejaVuSans-65" x="262.304688"/>
      </g>
     </g>
    </g>
   </g>
   <g id="matplotlib.axis_2">
    <g id="ytick_1">
     <g id="line2d_9">
      <path d="M 162.938096 182.15858 
L 145.341773 189.447215 
L 138.053138 207.043538 
L 145.341773 224.639861 
L 162.938096 231.928497 
L 180.534419 224.639861 
L 187.823055 207.043538 
L 180.534419 189.447215 
L 162.938096 182.15858 
" clip-path="url(#p20aca692df)" style="fill: none; stroke: #b0b0b0; stroke-width: 0.8; stroke-linecap: square"/>
     </g>
     <g id="text_9">
      <!-- 0.2 -->
      <g transform="translate(153.415035 181.973147) scale(0.1 -0.1)">
       <defs>
        <path id="DejaVuSans-30" d="M 2034 4250 
Q 1547 4250 1301 3770 
Q 1056 3291 1056 2328 
Q 1056 1369 1301 889 
Q 1547 409 2034 409 
Q 2525 409 2770 889 
Q 3016 1369 3016 2328 
Q 3016 3291 2770 3770 
Q 2525 4250 2034 4250 
z
M 2034 4750 
Q 2819 4750 3233 4129 
Q 3647 3509 3647 2328 
Q 3647 1150 3233 529 
Q 2819 -91 2034 -91 
Q 1250 -91 836 529 
Q 422 1150 422 2328 
Q 422 3509 836 4129 
Q 1250 4750 2034 4750 
z
" transform="scale(0.015625)"/>
        <path id="DejaVuSans-2e" d="M 684 794 
L 1344 794 
L 1344 0 
L 684 0 
L 684 794 
z
" transform="scale(0.015625)"/>
        <path id="DejaVuSans-32" d="M 1228 531 
L 3431 531 
L 3431 0 
L 469 0 
L 469 531 
Q 828 903 1448 1529 
Q 2069 2156 2228 2338 
Q 2531 2678 2651 2914 
Q 2772 3150 2772 3378 
Q 2772 3750 2511 3984 
Q 2250 4219 1831 4219 
Q 1534 4219 1204 4116 
Q 875 4013 500 3803 
L 500 4441 
Q 881 4594 1212 4672 
Q 1544 4750 1819 4750 
Q 2544 4750 2975 4387 
Q 3406 4025 3406 3419 
Q 3406 3131 3298 2873 
Q 3191 2616 2906 2266 
Q 2828 2175 2409 1742 
Q 1991 1309 1228 531 
z
" transform="scale(0.015625)"/>
       </defs>
       <use xlink:href="#DejaVuSans-30"/>
       <use xlink:href="#DejaVuSans-2e" x="63.623047"/>
       <use xlink:href="#DejaVuSans-32" x="95.410156"/>
      </g>
     </g>
    </g>
    <g id="ytick_2">
     <g id="line2d_10">
      <path d="M 162.938096 157.273621 
L 127.74545 171.850892 
L 113.168179 207.043538 
L 127.74545 242.236184 
L 162.938096 256.813456 
L 198.130742 242.236184 
L 212.708013 207.043538 
L 198.130742 171.850892 
L 162.938096 157.273621 
" clip-path="url(#p20aca692df)" style="fill: none; stroke: #b0b0b0; stroke-width: 0.8; stroke-linecap: square"/>
     </g>
     <g id="text_10">
      <!-- 0.4 -->
      <g transform="translate(143.891973 158.982443) scale(0.1 -0.1)">
       <defs>
        <path id="DejaVuSans-34" d="M 2419 4116 
L 825 1625 
L 2419 1625 
L 2419 4116 
z
M 2253 4666 
L 3047 4666 
L 3047 1625 
L 3713 1625 
L 3713 1100 
L 3047 1100 
L 3047 0 
L 2419 0 
L 2419 1100 
L 313 1100 
L 313 1709 
L 2253 4666 
z
" transform="scale(0.015625)"/>
       </defs>
       <use xlink:href="#DejaVuSans-30"/>
       <use xlink:href="#DejaVuSans-2e" x="63.623047"/>
       <use xlink:href="#DejaVuSans-34" x="95.410156"/>
      </g>
     </g>
    </g>
    <g id="ytick_3">
     <g id="line2d_11">
      <path d="M 162.938096 132.388663 
L 110.149127 154.254569 
L 88.28322 207.043538 
L 110.149127 259.832507 
L 162.938096 281.698414 
L 215.727065 259.832507 
L 237.592972 207.043538 
L 215.727065 154.254569 
L 162.938096 132.388663 
" clip-path="url(#p20aca692df)" style="fill: none; stroke: #b0b0b0; stroke-width: 0.8; stroke-linecap: square"/>
     </g>
     <g id="text_11">
      <!-- 0.6 -->
      <g transform="translate(134.368912 135.991739) scale(0.1 -0.1)">
       <defs>
        <path id="DejaVuSans-36" d="M 2113 2584 
Q 1688 2584 1439 2293 
Q 1191 2003 1191 1497 
Q 1191 994 1439 701 
Q 1688 409 2113 409 
Q 2538 409 2786 701 
Q 3034 994 3034 1497 
Q 3034 2003 2786 2293 
Q 2538 2584 2113 2584 
z
M 3366 4563 
L 3366 3988 
Q 3128 4100 2886 4159 
Q 2644 4219 2406 4219 
Q 1781 4219 1451 3797 
Q 1122 3375 1075 2522 
Q 1259 2794 1537 2939 
Q 1816 3084 2150 3084 
Q 2853 3084 3261 2657 
Q 3669 2231 3669 1497 
Q 3669 778 3244 343 
Q 2819 -91 2113 -91 
Q 1303 -91 875 529 
Q 447 1150 447 2328 
Q 447 3434 972 4092 
Q 1497 4750 2381 4750 
Q 2619 4750 2861 4703 
Q 3103 4656 3366 4563 
z
" transform="scale(0.015625)"/>
       </defs>
       <use xlink:href="#DejaVuSans-30"/>
       <use xlink:href="#DejaVuSans-2e" x="63.623047"/>
       <use xlink:href="#DejaVuSans-36" x="95.410156"/>
      </g>
     </g>
    </g>
    <g id="ytick_4">
     <g id="line2d_12">
      <path d="M 162.938096 107.503704 
L 92.552804 136.658246 
L 63.398262 207.043538 
L 92.552804 277.428831 
L 162.938096 306.583373 
L 233.323388 277.428831 
L 262.477931 207.043538 
L 233.323388 136.658246 
L 162.938096 107.503704 
" clip-path="url(#p20aca692df)" style="fill: none; stroke: #b0b0b0; stroke-width: 0.8; stroke-linecap: square"/>
     </g>
     <g id="text_12">
      <!-- 0.8 -->
      <g transform="translate(124.845851 113.001035) scale(0.1 -0.1)">
       <defs>
        <path id="DejaVuSans-38" d="M 2034 2216 
Q 1584 2216 1326 1975 
Q 1069 1734 1069 1313 
Q 1069 891 1326 650 
Q 1584 409 2034 409 
Q 2484 409 2743 651 
Q 3003 894 3003 1313 
Q 3003 1734 2745 1975 
Q 2488 2216 2034 2216 
z
M 1403 2484 
Q 997 2584 770 2862 
Q 544 3141 544 3541 
Q 544 4100 942 4425 
Q 1341 4750 2034 4750 
Q 2731 4750 3128 4425 
Q 3525 4100 3525 3541 
Q 3525 3141 3298 2862 
Q 3072 2584 2669 2484 
Q 3125 2378 3379 2068 
Q 3634 1759 3634 1313 
Q 3634 634 3220 271 
Q 2806 -91 2034 -91 
Q 1263 -91 848 271 
Q 434 634 434 1313 
Q 434 1759 690 2068 
Q 947 2378 1403 2484 
z
M 1172 3481 
Q 1172 3119 1398 2916 
Q 1625 2713 2034 2713 
Q 2441 2713 2670 2916 
Q 2900 3119 2900 3481 
Q 2900 3844 2670 4047 
Q 2441 4250 2034 4250 
Q 1625 4250 1398 4047 
Q 1172 3844 1172 3481 
z
" transform="scale(0.015625)"/>
       </defs>
       <use xlink:href="#DejaVuSans-30"/>
       <use xlink:href="#DejaVuSans-2e" x="63.623047"/>
       <use xlink:href="#DejaVuSans-38" x="95.410156"/>
      </g>
     </g>
    </g>
   </g>
   <g id="line2d_13">
    <path d="M 162.938096 135.71834 
L 101.438741 145.544183 
L 92.313883 207.043538 
L 91.130331 278.851303 
L 162.938096 284.900308 
L 232.254597 276.36004 
L 263.753334 207.043538 
L 224.385819 145.595815 
L 162.938096 135.71834 
" clip-path="url(#p20aca692df)" style="fill: none; stroke: #ffc100; stroke-linecap: square"/>
   </g>
   <g id="line2d_14">
    <path d="M 162.938096 207.043538 
L 162.938096 207.043538 
L 162.938096 207.043538 
L 162.938096 207.043538 
L 162.938096 207.043538 
L 162.938096 207.043538 
L 162.938096 207.043538 
L 162.938096 207.043538 
L 162.938096 207.043538 
" clip-path="url(#p20aca692df)" style="fill: none; stroke: #ff4d00; stroke-linecap: square"/>
   </g>
   <g id="line2d_15">
    <path d="M 162.938096 139.199283 
L 105.286985 149.392428 
L 99.833443 207.043538 
L 91.264915 278.716719 
L 162.938096 286.34388 
L 232.295971 276.401414 
L 265.670409 207.043538 
L 223.124467 146.857168 
L 162.938096 139.199283 
" clip-path="url(#p20aca692df)" style="fill: none; stroke: #ff0000; stroke-linecap: square"/>
   </g>
   <g id="line2d_16">
    <path d="M 162.938096 138.324792 
L 105.667337 149.77278 
L 103.467139 207.043538 
L 88.810225 281.171409 
L 162.938096 293.398877 
L 233.072677 277.178119 
L 267.210264 207.043538 
L 224.980126 145.001509 
L 162.938096 138.324792 
" clip-path="url(#p20aca692df)" style="fill: none; stroke: #8c0000; stroke-linecap: square"/>
   </g>
   <g id="line2d_17">
    <path d="M 162.938096 135.021328 
L 97.546555 141.651997 
L 94.499236 207.043538 
L 84.72606 285.255575 
L 162.938096 293.519292 
L 237.142573 281.248016 
L 274.791563 207.043538 
L 225.862311 144.119324 
L 162.938096 135.021328 
" clip-path="url(#p20aca692df)" style="fill: none; stroke: #360101; stroke-linecap: square"/>
   </g>
   <g id="patch_3">
    <path d="M 162.938096 89.597399 
L 79.891134 123.996577 
L 45.491956 207.043538 
L 79.891134 290.0905 
L 162.938096 324.489678 
L 245.985058 290.0905 
L 280.384236 207.043538 
L 245.985058 123.996577 
L 162.938096 89.597399 
z
" style="fill: none; stroke: #000000; stroke-width: 0.8; stroke-linejoin: miter; stroke-linecap: square"/>
   </g>
   <g id="text_13">
    <!-- Germany -->
    <g transform="translate(137.574034 67.439586) scale(0.1 -0.1)">
     <defs>
      <path id="DejaVuSans-Bold-47" d="M 4781 347 
Q 4331 128 3847 18 
Q 3363 -91 2847 -91 
Q 1681 -91 1000 561 
Q 319 1213 319 2328 
Q 319 3456 1012 4103 
Q 1706 4750 2913 4750 
Q 3378 4750 3804 4662 
Q 4231 4575 4609 4403 
L 4609 3438 
Q 4219 3659 3833 3768 
Q 3447 3878 3059 3878 
Q 2341 3878 1952 3476 
Q 1563 3075 1563 2328 
Q 1563 1588 1938 1184 
Q 2313 781 3003 781 
Q 3191 781 3352 804 
Q 3513 828 3641 878 
L 3641 1784 
L 2906 1784 
L 2906 2591 
L 4781 2591 
L 4781 347 
z
" transform="scale(0.015625)"/>
      <path id="DejaVuSans-Bold-65" d="M 4031 1759 
L 4031 1441 
L 1416 1441 
Q 1456 1047 1700 850 
Q 1944 653 2381 653 
Q 2734 653 3104 758 
Q 3475 863 3866 1075 
L 3866 213 
Q 3469 63 3072 -14 
Q 2675 -91 2278 -91 
Q 1328 -91 801 392 
Q 275 875 275 1747 
Q 275 2603 792 3093 
Q 1309 3584 2216 3584 
Q 3041 3584 3536 3087 
Q 4031 2591 4031 1759 
z
M 2881 2131 
Q 2881 2450 2695 2645 
Q 2509 2841 2209 2841 
Q 1884 2841 1681 2658 
Q 1478 2475 1428 2131 
L 2881 2131 
z
" transform="scale(0.015625)"/>
      <path id="DejaVuSans-Bold-72" d="M 3138 2547 
Q 2991 2616 2845 2648 
Q 2700 2681 2553 2681 
Q 2122 2681 1889 2404 
Q 1656 2128 1656 1613 
L 1656 0 
L 538 0 
L 538 3500 
L 1656 3500 
L 1656 2925 
Q 1872 3269 2151 3426 
Q 2431 3584 2822 3584 
Q 2878 3584 2943 3579 
Q 3009 3575 3134 3559 
L 3138 2547 
z
" transform="scale(0.015625)"/>
      <path id="DejaVuSans-Bold-6d" d="M 3781 2919 
Q 3994 3244 4286 3414 
Q 4578 3584 4928 3584 
Q 5531 3584 5847 3212 
Q 6163 2841 6163 2131 
L 6163 0 
L 5038 0 
L 5038 1825 
Q 5041 1866 5042 1909 
Q 5044 1953 5044 2034 
Q 5044 2406 4934 2573 
Q 4825 2741 4581 2741 
Q 4263 2741 4089 2478 
Q 3916 2216 3909 1719 
L 3909 0 
L 2784 0 
L 2784 1825 
Q 2784 2406 2684 2573 
Q 2584 2741 2328 2741 
Q 2006 2741 1831 2477 
Q 1656 2213 1656 1722 
L 1656 0 
L 531 0 
L 531 3500 
L 1656 3500 
L 1656 2988 
Q 1863 3284 2130 3434 
Q 2397 3584 2719 3584 
Q 3081 3584 3359 3409 
Q 3638 3234 3781 2919 
z
" transform="scale(0.015625)"/>
      <path id="DejaVuSans-Bold-61" d="M 2106 1575 
Q 1756 1575 1579 1456 
Q 1403 1338 1403 1106 
Q 1403 894 1545 773 
Q 1688 653 1941 653 
Q 2256 653 2472 879 
Q 2688 1106 2688 1447 
L 2688 1575 
L 2106 1575 
z
M 3816 1997 
L 3816 0 
L 2688 0 
L 2688 519 
Q 2463 200 2181 54 
Q 1900 -91 1497 -91 
Q 953 -91 614 226 
Q 275 544 275 1050 
Q 275 1666 698 1953 
Q 1122 2241 2028 2241 
L 2688 2241 
L 2688 2328 
Q 2688 2594 2478 2717 
Q 2269 2841 1825 2841 
Q 1466 2841 1156 2769 
Q 847 2697 581 2553 
L 581 3406 
Q 941 3494 1303 3539 
Q 1666 3584 2028 3584 
Q 2975 3584 3395 3211 
Q 3816 2838 3816 1997 
z
" transform="scale(0.015625)"/>
      <path id="DejaVuSans-Bold-6e" d="M 4056 2131 
L 4056 0 
L 2931 0 
L 2931 347 
L 2931 1631 
Q 2931 2084 2911 2256 
Q 2891 2428 2841 2509 
Q 2775 2619 2662 2680 
Q 2550 2741 2406 2741 
Q 2056 2741 1856 2470 
Q 1656 2200 1656 1722 
L 1656 0 
L 538 0 
L 538 3500 
L 1656 3500 
L 1656 2988 
Q 1909 3294 2193 3439 
Q 2478 3584 2822 3584 
Q 3428 3584 3742 3212 
Q 4056 2841 4056 2131 
z
" transform="scale(0.015625)"/>
      <path id="DejaVuSans-Bold-79" d="M 78 3500 
L 1197 3500 
L 2138 1125 
L 2938 3500 
L 4056 3500 
L 2584 -331 
Q 2363 -916 2067 -1148 
Q 1772 -1381 1288 -1381 
L 641 -1381 
L 641 -647 
L 991 -647 
Q 1275 -647 1404 -556 
Q 1534 -466 1606 -231 
L 1638 -134 
L 78 3500 
z
" transform="scale(0.015625)"/>
     </defs>
     <use xlink:href="#DejaVuSans-Bold-47"/>
     <use xlink:href="#DejaVuSans-Bold-65" x="82.080078"/>
     <use xlink:href="#DejaVuSans-Bold-72" x="149.902344"/>
     <use xlink:href="#DejaVuSans-Bold-6d" x="199.21875"/>
     <use xlink:href="#DejaVuSans-Bold-61" x="303.417969"/>
     <use xlink:href="#DejaVuSans-Bold-6e" x="370.898438"/>
     <use xlink:href="#DejaVuSans-Bold-79" x="442.089844"/>
    </g>
   </g>
  </g>
  <g id="axes_2">
   <g id="patch_4">
    <path d="M 466.924288 89.597399 
L 383.877327 123.996577 
L 349.478149 207.043538 
L 383.877327 290.0905 
L 466.924288 324.489678 
L 549.97125 290.0905 
L 584.370428 207.043538 
L 549.97125 123.996577 
z
" style="fill: #ffffff"/>
   </g>
   <g id="matplotlib.axis_3">
    <g id="xtick_9">
     <g id="line2d_18">
      <path d="M 466.924288 207.043538 
L 466.924288 192.362771 
L 466.924288 177.682003 
L 466.924288 163.001236 
L 466.924288 148.320469 
L 466.924288 133.639701 
L 466.924288 118.958934 
L 466.924288 104.278166 
L 466.924288 89.597399 
" clip-path="url(#pb00c2ac64a)" style="fill: none; stroke: #b0b0b0; stroke-width: 0.8; stroke-linecap: square"/>
     </g>
     <g id="text_14">
      <!-- abortion -->
      <g transform="translate(445.99382 78.356774) scale(0.1 -0.1)">
       <use xlink:href="#DejaVuSans-61"/>
       <use xlink:href="#DejaVuSans-62" x="61.279297"/>
       <use xlink:href="#DejaVuSans-6f" x="124.755859"/>
       <use xlink:href="#DejaVuSans-72" x="185.9375"/>
       <use xlink:href="#DejaVuSans-74" x="227.050781"/>
       <use xlink:href="#DejaVuSans-69" x="266.259766"/>
       <use xlink:href="#DejaVuSans-6f" x="294.042969"/>
       <use xlink:href="#DejaVuSans-6e" x="355.224609"/>
      </g>
     </g>
    </g>
    <g id="xtick_10">
     <g id="line2d_19">
      <path d="M 466.924288 207.043538 
L 456.543418 196.662668 
L 446.162548 186.281798 
L 435.781678 175.900928 
L 425.400808 165.520058 
L 415.019937 155.139187 
L 404.639067 144.758317 
L 394.258197 134.377447 
L 383.877327 123.996577 
" clip-path="url(#pb00c2ac64a)" style="fill: none; stroke: #b0b0b0; stroke-width: 0.8; stroke-linecap: square"/>
     </g>
     <g id="text_15">
      <!-- divorce -->
      <g transform="translate(355.62705 116.856457) scale(0.1 -0.1)">
       <use xlink:href="#DejaVuSans-64"/>
       <use xlink:href="#DejaVuSans-69" x="63.476562"/>
       <use xlink:href="#DejaVuSans-76" x="91.259766"/>
       <use xlink:href="#DejaVuSans-6f" x="150.439453"/>
       <use xlink:href="#DejaVuSans-72" x="211.621094"/>
       <use xlink:href="#DejaVuSans-63" x="250.484375"/>
       <use xlink:href="#DejaVuSans-65" x="305.464844"/>
      </g>
     </g>
    </g>
    <g id="xtick_11">
     <g id="line2d_20">
      <path d="M 466.924288 207.043538 
L 452.243521 207.043538 
L 437.562753 207.043538 
L 422.881986 207.043538 
L 408.201219 207.043538 
L 393.520451 207.043538 
L 378.839684 207.043538 
L 364.158916 207.043538 
L 349.478149 207.043538 
" clip-path="url(#pb00c2ac64a)" style="fill: none; stroke: #b0b0b0; stroke-width: 0.8; stroke-linecap: square"/>
     </g>
     <g id="text_16">
      <!-- $$$ -->
      <g transform="translate(325.934399 209.802913) scale(0.1 -0.1)">
       <use xlink:href="#DejaVuSans-24"/>
       <use xlink:href="#DejaVuSans-24" x="63.623047"/>
       <use xlink:href="#DejaVuSans-24" x="127.246094"/>
      </g>
     </g>
    </g>
    <g id="xtick_12">
     <g id="line2d_21">
      <path d="M 466.924288 207.043538 
L 456.543418 217.424409 
L 446.162548 227.805279 
L 435.781678 238.186149 
L 425.400808 248.567019 
L 415.019937 258.94789 
L 404.639067 269.32876 
L 394.258197 279.70963 
L 383.877327 290.0905 
" clip-path="url(#pb00c2ac64a)" style="fill: none; stroke: #b0b0b0; stroke-width: 0.8; stroke-linecap: square"/>
     </g>
     <g id="text_17">
      <!-- university -->
      <g transform="translate(349.246582 302.74937) scale(0.1 -0.1)">
       <use xlink:href="#DejaVuSans-75"/>
       <use xlink:href="#DejaVuSans-6e" x="63.378906"/>
       <use xlink:href="#DejaVuSans-69" x="126.757812"/>
       <use xlink:href="#DejaVuSans-76" x="154.541016"/>
       <use xlink:href="#DejaVuSans-65" x="213.720703"/>
       <use xlink:href="#DejaVuSans-72" x="275.244141"/>
       <use xlink:href="#DejaVuSans-73" x="316.357422"/>
       <use xlink:href="#DejaVuSans-69" x="368.457031"/>
       <use xlink:href="#DejaVuSans-74" x="396.240234"/>
       <use xlink:href="#DejaVuSans-79" x="435.449219"/>
      </g>
     </g>
    </g>
    <g id="xtick_13">
     <g id="line2d_22">
      <path d="M 466.924288 207.043538 
L 466.924288 221.724306 
L 466.924288 236.405073 
L 466.924288 251.085841 
L 466.924288 265.766608 
L 466.924288 280.447376 
L 466.924288 295.128143 
L 466.924288 309.808911 
L 466.924288 324.489678 
" clip-path="url(#pb00c2ac64a)" style="fill: none; stroke: #b0b0b0; stroke-width: 0.8; stroke-linecap: square"/>
     </g>
     <g id="text_18">
      <!-- women movement -->
      <g transform="translate(420.029757 341.249053) scale(0.1 -0.1)">
       <use xlink:href="#DejaVuSans-77"/>
       <use xlink:href="#DejaVuSans-6f" x="81.787109"/>
       <use xlink:href="#DejaVuSans-6d" x="142.96875"/>
       <use xlink:href="#DejaVuSans-65" x="240.380859"/>
       <use xlink:href="#DejaVuSans-6e" x="301.904297"/>
       <use xlink:href="#DejaVuSans-20" x="365.283203"/>
       <use xlink:href="#DejaVuSans-6d" x="397.070312"/>
       <use xlink:href="#DejaVuSans-6f" x="494.482422"/>
       <use xlink:href="#DejaVuSans-76" x="555.664062"/>
       <use xlink:href="#DejaVuSans-65" x="614.84375"/>
       <use xlink:href="#DejaVuSans-6d" x="676.367188"/>
       <use xlink:href="#DejaVuSans-65" x="773.779297"/>
       <use xlink:href="#DejaVuSans-6e" x="835.302734"/>
       <use xlink:href="#DejaVuSans-74" x="898.681641"/>
      </g>
     </g>
    </g>
    <g id="xtick_14">
     <g id="line2d_23">
      <path d="M 466.924288 207.043538 
L 477.305159 217.424409 
L 487.686029 227.805279 
L 498.066899 238.186149 
L 508.447769 248.567019 
L 518.82864 258.94789 
L 529.20951 269.32876 
L 539.59038 279.70963 
L 549.97125 290.0905 
" clip-path="url(#pb00c2ac64a)" style="fill: none; stroke: #b0b0b0; stroke-width: 0.8; stroke-linecap: square"/>
     </g>
     <g id="text_19">
      <!-- politician -->
      <g transform="translate(537.138714 302.74937) scale(0.1 -0.1)">
       <use xlink:href="#DejaVuSans-70"/>
       <use xlink:href="#DejaVuSans-6f" x="63.476562"/>
       <use xlink:href="#DejaVuSans-6c" x="124.658203"/>
       <use xlink:href="#DejaVuSans-69" x="152.441406"/>
       <use xlink:href="#DejaVuSans-74" x="180.224609"/>
       <use xlink:href="#DejaVuSans-69" x="219.433594"/>
       <use xlink:href="#DejaVuSans-63" x="247.216797"/>
       <use xlink:href="#DejaVuSans-69" x="302.197266"/>
       <use xlink:href="#DejaVuSans-61" x="329.980469"/>
       <use xlink:href="#DejaVuSans-6e" x="391.259766"/>
      </g>
     </g>
    </g>
    <g id="xtick_15">
     <g id="line2d_24">
      <path d="M 466.924288 207.043538 
L 481.605056 207.043538 
L 496.285823 207.043538 
L 510.966591 207.043538 
L 525.647358 207.043538 
L 540.328126 207.043538 
L 555.008893 207.043538 
L 569.689661 207.043538 
L 584.370428 207.043538 
" clip-path="url(#pb00c2ac64a)" style="fill: none; stroke: #b0b0b0; stroke-width: 0.8; stroke-linecap: square"/>
     </g>
     <g id="text_20">
      <!-- job -->
      <g transform="translate(590.747772 209.802913) scale(0.1 -0.1)">
       <use xlink:href="#DejaVuSans-6a"/>
       <use xlink:href="#DejaVuSans-6f" x="27.783203"/>
       <use xlink:href="#DejaVuSans-62" x="88.964844"/>
      </g>
     </g>
    </g>
    <g id="xtick_16">
     <g id="line2d_25">
      <path d="M 466.924288 207.043538 
L 477.305159 196.662668 
L 487.686029 186.281798 
L 498.066899 175.900928 
L 508.447769 165.520058 
L 518.82864 155.139187 
L 529.20951 144.758317 
L 539.59038 134.377447 
L 549.97125 123.996577 
" clip-path="url(#pb00c2ac64a)" style="fill: none; stroke: #b0b0b0; stroke-width: 0.8; stroke-linecap: square"/>
     </g>
     <g id="text_21">
      <!-- choice -->
      <g transform="translate(543.678558 116.856457) scale(0.1 -0.1)">
       <use xlink:href="#DejaVuSans-63"/>
       <use xlink:href="#DejaVuSans-68" x="54.980469"/>
       <use xlink:href="#DejaVuSans-6f" x="118.359375"/>
       <use xlink:href="#DejaVuSans-69" x="179.541016"/>
       <use xlink:href="#DejaVuSans-63" x="207.324219"/>
       <use xlink:href="#DejaVuSans-65" x="262.304688"/>
      </g>
     </g>
    </g>
   </g>
   <g id="matplotlib.axis_4">
    <g id="ytick_5">
     <g id="line2d_26">
      <path d="M 466.924288 204.50755 
L 465.131074 205.250324 
L 464.3883 207.043538 
L 465.131074 208.836753 
L 466.924288 209.579527 
L 468.717503 208.836753 
L 469.460277 207.043538 
L 468.717503 205.250324 
L 466.924288 204.50755 
" clip-path="url(#pb00c2ac64a)" style="fill: none; stroke: #b0b0b0; stroke-width: 0.8; stroke-linecap: square"/>
     </g>
     <g id="text_22">
      <!-- 0.2 -->
      <g transform="translate(465.953808 202.620904) scale(0.1 -0.1)">
       <use xlink:href="#DejaVuSans-30"/>
       <use xlink:href="#DejaVuSans-2e" x="63.623047"/>
       <use xlink:href="#DejaVuSans-32" x="95.410156"/>
      </g>
     </g>
    </g>
    <g id="ytick_6">
     <g id="line2d_27">
      <path d="M 466.924288 166.326209 
L 438.132789 178.252039 
L 426.206959 207.043538 
L 438.132789 235.835038 
L 466.924288 247.760868 
L 495.715788 235.835038 
L 507.641618 207.043538 
L 495.715788 178.252039 
L 466.924288 166.326209 
" clip-path="url(#pb00c2ac64a)" style="fill: none; stroke: #b0b0b0; stroke-width: 0.8; stroke-linecap: square"/>
     </g>
     <g id="text_23">
      <!-- 0.4 -->
      <g transform="translate(451.342441 167.345943) scale(0.1 -0.1)">
       <use xlink:href="#DejaVuSans-30"/>
       <use xlink:href="#DejaVuSans-2e" x="63.623047"/>
       <use xlink:href="#DejaVuSans-34" x="95.410156"/>
      </g>
     </g>
    </g>
    <g id="ytick_7">
     <g id="line2d_28">
      <path d="M 466.924288 128.144867 
L 411.134503 151.253753 
L 388.025617 207.043538 
L 411.134503 262.833324 
L 466.924288 285.94221 
L 522.714074 262.833324 
L 545.82296 207.043538 
L 522.714074 151.253753 
L 466.924288 128.144867 
" clip-path="url(#pb00c2ac64a)" style="fill: none; stroke: #b0b0b0; stroke-width: 0.8; stroke-linecap: square"/>
     </g>
     <g id="text_24">
      <!-- 0.6 -->
      <g transform="translate(436.731074 132.070983) scale(0.1 -0.1)">
       <use xlink:href="#DejaVuSans-30"/>
       <use xlink:href="#DejaVuSans-2e" x="63.623047"/>
       <use xlink:href="#DejaVuSans-36" x="95.410156"/>
      </g>
     </g>
    </g>
    <g id="ytick_8">
     <g id="line2d_29">
      <path d="M 466.924288 89.963526 
L 384.136217 124.255467 
L 349.844276 207.043538 
L 384.136217 289.83161 
L 466.924288 324.123551 
L 549.71236 289.83161 
L 584.004301 207.043538 
L 549.71236 124.255467 
L 466.924288 89.963526 
" clip-path="url(#pb00c2ac64a)" style="fill: none; stroke: #b0b0b0; stroke-width: 0.8; stroke-linecap: square"/>
     </g>
     <g id="text_25">
      <!-- 0.8 -->
      <g transform="translate(422.119707 96.796023) scale(0.1 -0.1)">
       <use xlink:href="#DejaVuSans-30"/>
       <use xlink:href="#DejaVuSans-2e" x="63.623047"/>
       <use xlink:href="#DejaVuSans-38" x="95.410156"/>
      </g>
     </g>
    </g>
   </g>
   <g id="line2d_30">
    <path d="M 466.924288 133.956671 
L 420.302996 160.422246 
L 424.956318 207.043538 
L 394.267077 279.70075 
L 466.924288 306.301914 
L 523.292794 263.412044 
L 556.097836 207.043538 
L 534.795677 139.17215 
L 466.924288 133.956671 
" clip-path="url(#pb00c2ac64a)" style="fill: none; stroke: #ffc100; stroke-linecap: square"/>
   </g>
   <g id="line2d_31">
    <path d="M 466.924288 138.862437 
L 449.372965 189.492215 
L 433.085783 207.043538 
L 387.652188 286.315638 
L 466.924288 315.801977 
L 525.382933 265.502183 
L 559.580609 207.043538 
L 540.567191 133.400636 
L 466.924288 138.862437 
" clip-path="url(#pb00c2ac64a)" style="fill: none; stroke: #ff4d00; stroke-linecap: square"/>
   </g>
   <g id="line2d_32">
    <path d="M 466.924288 134.069558 
L 453.267788 193.387038 
L 461.585828 207.043538 
L 394.875683 279.092144 
L 466.924288 316.976305 
L 522.547828 262.667078 
L 558.361988 207.043538 
L 542.90294 131.064887 
L 466.924288 134.069558 
" clip-path="url(#pb00c2ac64a)" style="fill: none; stroke: #ff0000; stroke-linecap: square"/>
   </g>
   <g id="line2d_33">
    <path d="M 466.924288 135.891123 
L 443.032477 183.151727 
L 447.795915 207.043538 
L 396.80208 277.165747 
L 466.924288 312.260624 
L 523.519578 263.638828 
L 562.94957 207.043538 
L 540.779593 133.188233 
L 466.924288 135.891123 
" clip-path="url(#pb00c2ac64a)" style="fill: none; stroke: #8c0000; stroke-linecap: square"/>
   </g>
   <g id="line2d_34">
    <path d="M 466.924288 134.443819 
L 441.572672 181.691922 
L 455.983237 207.043538 
L 393.432581 280.535246 
L 466.924288 313.38303 
L 524.233013 264.352263 
L 560.380538 207.043538 
L 537.675053 136.292774 
L 466.924288 134.443819 
" clip-path="url(#pb00c2ac64a)" style="fill: none; stroke: #360101; stroke-linecap: square"/>
   </g>
   <g id="patch_5">
    <path d="M 466.924288 89.597399 
L 383.877327 123.996577 
L 349.478149 207.043538 
L 383.877327 290.0905 
L 466.924288 324.489678 
L 549.97125 290.0905 
L 584.370428 207.043538 
L 549.97125 123.996577 
L 466.924288 89.597399 
z
" style="fill: none; stroke: #000000; stroke-width: 0.8; stroke-linejoin: miter; stroke-linecap: square"/>
   </g>
   <g id="text_26">
    <!-- China -->
    <g transform="translate(451.047726 67.517711) scale(0.1 -0.1)">
     <defs>
      <path id="DejaVuSans-Bold-43" d="M 4288 256 
Q 3956 84 3597 -3 
Q 3238 -91 2847 -91 
Q 1681 -91 1000 561 
Q 319 1213 319 2328 
Q 319 3447 1000 4098 
Q 1681 4750 2847 4750 
Q 3238 4750 3597 4662 
Q 3956 4575 4288 4403 
L 4288 3438 
Q 3953 3666 3628 3772 
Q 3303 3878 2944 3878 
Q 2300 3878 1931 3465 
Q 1563 3053 1563 2328 
Q 1563 1606 1931 1193 
Q 2300 781 2944 781 
Q 3303 781 3628 887 
Q 3953 994 4288 1222 
L 4288 256 
z
" transform="scale(0.015625)"/>
      <path id="DejaVuSans-Bold-68" d="M 4056 2131 
L 4056 0 
L 2931 0 
L 2931 347 
L 2931 1625 
Q 2931 2084 2911 2256 
Q 2891 2428 2841 2509 
Q 2775 2619 2662 2680 
Q 2550 2741 2406 2741 
Q 2056 2741 1856 2470 
Q 1656 2200 1656 1722 
L 1656 0 
L 538 0 
L 538 4863 
L 1656 4863 
L 1656 2988 
Q 1909 3294 2193 3439 
Q 2478 3584 2822 3584 
Q 3428 3584 3742 3212 
Q 4056 2841 4056 2131 
z
" transform="scale(0.015625)"/>
      <path id="DejaVuSans-Bold-69" d="M 538 3500 
L 1656 3500 
L 1656 0 
L 538 0 
L 538 3500 
z
M 538 4863 
L 1656 4863 
L 1656 3950 
L 538 3950 
L 538 4863 
z
" transform="scale(0.015625)"/>
     </defs>
     <use xlink:href="#DejaVuSans-Bold-43"/>
     <use xlink:href="#DejaVuSans-Bold-68" x="73.388672"/>
     <use xlink:href="#DejaVuSans-Bold-69" x="144.580078"/>
     <use xlink:href="#DejaVuSans-Bold-6e" x="178.857422"/>
     <use xlink:href="#DejaVuSans-Bold-61" x="250.048828"/>
    </g>
   </g>
   <g id="legend_1">
    <g id="patch_6">
     <path d="M 562.5472 66.108171 
L 620.016391 66.108171 
Q 621.682391 66.108171 621.682391 64.442171 
L 621.682391 17.46878 
Q 621.682391 15.80278 620.016391 15.80278 
L 562.5472 15.80278 
Q 560.8812 15.80278 560.8812 17.46878 
L 560.8812 64.442171 
Q 560.8812 66.108171 562.5472 66.108171 
z
" style="fill: #ffffff; opacity: 0.8; stroke: #cccccc; stroke-linejoin: miter"/>
    </g>
    <g id="line2d_35">
     <path d="M 564.2132 22.548778 
L 572.5432 22.548778 
L 580.8732 22.548778 
" style="fill: none; stroke: #ffc100; stroke-linecap: square"/>
    </g>
    <g id="text_27">
     <!-- Wave 1 -->
     <g transform="translate(587.5372 25.464278) scale(0.0833 -0.0833)">
      <defs>
       <path id="DejaVuSans-57" d="M 213 4666 
L 850 4666 
L 1831 722 
L 2809 4666 
L 3519 4666 
L 4500 722 
L 5478 4666 
L 6119 4666 
L 4947 0 
L 4153 0 
L 3169 4050 
L 2175 0 
L 1381 0 
L 213 4666 
z
" transform="scale(0.015625)"/>
       <path id="DejaVuSans-31" d="M 794 531 
L 1825 531 
L 1825 4091 
L 703 3866 
L 703 4441 
L 1819 4666 
L 2450 4666 
L 2450 531 
L 3481 531 
L 3481 0 
L 794 0 
L 794 531 
z
" transform="scale(0.015625)"/>
      </defs>
      <use xlink:href="#DejaVuSans-57"/>
      <use xlink:href="#DejaVuSans-61" x="92.501953"/>
      <use xlink:href="#DejaVuSans-76" x="153.78125"/>
      <use xlink:href="#DejaVuSans-65" x="212.960938"/>
      <use xlink:href="#DejaVuSans-20" x="274.484375"/>
      <use xlink:href="#DejaVuSans-31" x="306.271484"/>
     </g>
    </g>
    <g id="line2d_36">
     <path d="M 564.2132 31.443657 
L 572.5432 31.443657 
L 580.8732 31.443657 
" style="fill: none; stroke: #ff4d00; stroke-linecap: square"/>
    </g>
    <g id="text_28">
     <!-- Wave 2 -->
     <g transform="translate(587.5372 34.359157) scale(0.0833 -0.0833)">
      <use xlink:href="#DejaVuSans-57"/>
      <use xlink:href="#DejaVuSans-61" x="92.501953"/>
      <use xlink:href="#DejaVuSans-76" x="153.78125"/>
      <use xlink:href="#DejaVuSans-65" x="212.960938"/>
      <use xlink:href="#DejaVuSans-20" x="274.484375"/>
      <use xlink:href="#DejaVuSans-32" x="306.271484"/>
     </g>
    </g>
    <g id="line2d_37">
     <path d="M 564.2132 40.338535 
L 572.5432 40.338535 
L 580.8732 40.338535 
" style="fill: none; stroke: #ff0000; stroke-linecap: square"/>
    </g>
    <g id="text_29">
     <!-- Wave 3 -->
     <g transform="translate(587.5372 43.254035) scale(0.0833 -0.0833)">
      <defs>
       <path id="DejaVuSans-33" d="M 2597 2516 
Q 3050 2419 3304 2112 
Q 3559 1806 3559 1356 
Q 3559 666 3084 287 
Q 2609 -91 1734 -91 
Q 1441 -91 1130 -33 
Q 819 25 488 141 
L 488 750 
Q 750 597 1062 519 
Q 1375 441 1716 441 
Q 2309 441 2620 675 
Q 2931 909 2931 1356 
Q 2931 1769 2642 2001 
Q 2353 2234 1838 2234 
L 1294 2234 
L 1294 2753 
L 1863 2753 
Q 2328 2753 2575 2939 
Q 2822 3125 2822 3475 
Q 2822 3834 2567 4026 
Q 2313 4219 1838 4219 
Q 1578 4219 1281 4162 
Q 984 4106 628 3988 
L 628 4550 
Q 988 4650 1302 4700 
Q 1616 4750 1894 4750 
Q 2613 4750 3031 4423 
Q 3450 4097 3450 3541 
Q 3450 3153 3228 2886 
Q 3006 2619 2597 2516 
z
" transform="scale(0.015625)"/>
      </defs>
      <use xlink:href="#DejaVuSans-57"/>
      <use xlink:href="#DejaVuSans-61" x="92.501953"/>
      <use xlink:href="#DejaVuSans-76" x="153.78125"/>
      <use xlink:href="#DejaVuSans-65" x="212.960938"/>
      <use xlink:href="#DejaVuSans-20" x="274.484375"/>
      <use xlink:href="#DejaVuSans-33" x="306.271484"/>
     </g>
    </g>
    <g id="line2d_38">
     <path d="M 564.2132 49.233413 
L 572.5432 49.233413 
L 580.8732 49.233413 
" style="fill: none; stroke: #8c0000; stroke-linecap: square"/>
    </g>
    <g id="text_30">
     <!-- Wave 4 -->
     <g transform="translate(587.5372 52.148913) scale(0.0833 -0.0833)">
      <use xlink:href="#DejaVuSans-57"/>
      <use xlink:href="#DejaVuSans-61" x="92.501953"/>
      <use xlink:href="#DejaVuSans-76" x="153.78125"/>
      <use xlink:href="#DejaVuSans-65" x="212.960938"/>
      <use xlink:href="#DejaVuSans-20" x="274.484375"/>
      <use xlink:href="#DejaVuSans-34" x="306.271484"/>
     </g>
    </g>
    <g id="line2d_39">
     <path d="M 564.2132 58.128291 
L 572.5432 58.128291 
L 580.8732 58.128291 
" style="fill: none; stroke: #360101; stroke-linecap: square"/>
    </g>
    <g id="text_31">
     <!-- Wave 5 -->
     <g transform="translate(587.5372 61.043791) scale(0.0833 -0.0833)">
      <defs>
       <path id="DejaVuSans-35" d="M 691 4666 
L 3169 4666 
L 3169 4134 
L 1269 4134 
L 1269 2991 
Q 1406 3038 1543 3061 
Q 1681 3084 1819 3084 
Q 2600 3084 3056 2656 
Q 3513 2228 3513 1497 
Q 3513 744 3044 326 
Q 2575 -91 1722 -91 
Q 1428 -91 1123 -41 
Q 819 9 494 109 
L 494 744 
Q 775 591 1075 516 
Q 1375 441 1709 441 
Q 2250 441 2565 725 
Q 2881 1009 2881 1497 
Q 2881 1984 2565 2268 
Q 2250 2553 1709 2553 
Q 1456 2553 1204 2497 
Q 953 2441 691 2322 
L 691 4666 
z
" transform="scale(0.015625)"/>
      </defs>
      <use xlink:href="#DejaVuSans-57"/>
      <use xlink:href="#DejaVuSans-61" x="92.501953"/>
      <use xlink:href="#DejaVuSans-76" x="153.78125"/>
      <use xlink:href="#DejaVuSans-65" x="212.960938"/>
      <use xlink:href="#DejaVuSans-20" x="274.484375"/>
      <use xlink:href="#DejaVuSans-35" x="306.271484"/>
     </g>
    </g>
   </g>
  </g>
  <g id="axes_3">
   <g id="patch_7">
    <path d="M 162.938096 380.581706 
L 79.891134 414.980884 
L 45.491956 498.027846 
L 79.891134 581.074808 
L 162.938096 615.473986 
L 245.985058 581.074808 
L 280.384236 498.027846 
L 245.985058 414.980884 
z
" style="fill: #ffffff"/>
   </g>
   <g id="matplotlib.axis_5">
    <g id="xtick_17">
     <g id="line2d_40">
      <path d="M 162.938096 498.027846 
L 162.938096 483.347079 
L 162.938096 468.666311 
L 162.938096 453.985544 
L 162.938096 439.304776 
L 162.938096 424.624009 
L 162.938096 409.943241 
L 162.938096 395.262474 
L 162.938096 380.581706 
" clip-path="url(#p07bc7f2433)" style="fill: none; stroke: #b0b0b0; stroke-width: 0.8; stroke-linecap: square"/>
     </g>
     <g id="text_32">
      <!-- abortion -->
      <g transform="translate(142.007627 369.341081) scale(0.1 -0.1)">
       <use xlink:href="#DejaVuSans-61"/>
       <use xlink:href="#DejaVuSans-62" x="61.279297"/>
       <use xlink:href="#DejaVuSans-6f" x="124.755859"/>
       <use xlink:href="#DejaVuSans-72" x="185.9375"/>
       <use xlink:href="#DejaVuSans-74" x="227.050781"/>
       <use xlink:href="#DejaVuSans-69" x="266.259766"/>
       <use xlink:href="#DejaVuSans-6f" x="294.042969"/>
       <use xlink:href="#DejaVuSans-6e" x="355.224609"/>
      </g>
     </g>
    </g>
    <g id="xtick_18">
     <g id="line2d_41">
      <path d="M 162.938096 498.027846 
L 152.557226 487.646976 
L 142.176356 477.266106 
L 131.795485 466.885235 
L 121.414615 456.504365 
L 111.033745 446.123495 
L 100.652875 435.742625 
L 90.272004 425.361754 
L 79.891134 414.980884 
" clip-path="url(#p07bc7f2433)" style="fill: none; stroke: #b0b0b0; stroke-width: 0.8; stroke-linecap: square"/>
     </g>
     <g id="text_33">
      <!-- divorce -->
      <g transform="translate(51.640858 407.840764) scale(0.1 -0.1)">
       <use xlink:href="#DejaVuSans-64"/>
       <use xlink:href="#DejaVuSans-69" x="63.476562"/>
       <use xlink:href="#DejaVuSans-76" x="91.259766"/>
       <use xlink:href="#DejaVuSans-6f" x="150.439453"/>
       <use xlink:href="#DejaVuSans-72" x="211.621094"/>
       <use xlink:href="#DejaVuSans-63" x="250.484375"/>
       <use xlink:href="#DejaVuSans-65" x="305.464844"/>
      </g>
     </g>
    </g>
    <g id="xtick_19">
     <g id="line2d_42">
      <path d="M 162.938096 498.027846 
L 148.257329 498.027846 
L 133.576561 498.027846 
L 118.895794 498.027846 
L 104.215026 498.027846 
L 89.534259 498.027846 
L 74.853491 498.027846 
L 60.172724 498.027846 
L 45.491956 498.027846 
" clip-path="url(#p07bc7f2433)" style="fill: none; stroke: #b0b0b0; stroke-width: 0.8; stroke-linecap: square"/>
     </g>
     <g id="text_34">
      <!-- $$$ -->
      <g transform="translate(21.948206 500.787221) scale(0.1 -0.1)">
       <use xlink:href="#DejaVuSans-24"/>
       <use xlink:href="#DejaVuSans-24" x="63.623047"/>
       <use xlink:href="#DejaVuSans-24" x="127.246094"/>
      </g>
     </g>
    </g>
    <g id="xtick_20">
     <g id="line2d_43">
      <path d="M 162.938096 498.027846 
L 152.557226 508.408716 
L 142.176356 518.789587 
L 131.795485 529.170457 
L 121.414615 539.551327 
L 111.033745 549.932197 
L 100.652875 560.313068 
L 90.272004 570.693938 
L 79.891134 581.074808 
" clip-path="url(#p07bc7f2433)" style="fill: none; stroke: #b0b0b0; stroke-width: 0.8; stroke-linecap: square"/>
     </g>
     <g id="text_35">
      <!-- university -->
      <g transform="translate(45.260389 593.733678) scale(0.1 -0.1)">
       <use xlink:href="#DejaVuSans-75"/>
       <use xlink:href="#DejaVuSans-6e" x="63.378906"/>
       <use xlink:href="#DejaVuSans-69" x="126.757812"/>
       <use xlink:href="#DejaVuSans-76" x="154.541016"/>
       <use xlink:href="#DejaVuSans-65" x="213.720703"/>
       <use xlink:href="#DejaVuSans-72" x="275.244141"/>
       <use xlink:href="#DejaVuSans-73" x="316.357422"/>
       <use xlink:href="#DejaVuSans-69" x="368.457031"/>
       <use xlink:href="#DejaVuSans-74" x="396.240234"/>
       <use xlink:href="#DejaVuSans-79" x="435.449219"/>
      </g>
     </g>
    </g>
    <g id="xtick_21">
     <g id="line2d_44">
      <path d="M 162.938096 498.027846 
L 162.938096 512.708614 
L 162.938096 527.389381 
L 162.938096 542.070149 
L 162.938096 556.750916 
L 162.938096 571.431684 
L 162.938096 586.112451 
L 162.938096 600.793219 
L 162.938096 615.473986 
" clip-path="url(#p07bc7f2433)" style="fill: none; stroke: #b0b0b0; stroke-width: 0.8; stroke-linecap: square"/>
     </g>
     <g id="text_36">
      <!-- women movement -->
      <g transform="translate(116.043565 632.233361) scale(0.1 -0.1)">
       <use xlink:href="#DejaVuSans-77"/>
       <use xlink:href="#DejaVuSans-6f" x="81.787109"/>
       <use xlink:href="#DejaVuSans-6d" x="142.96875"/>
       <use xlink:href="#DejaVuSans-65" x="240.380859"/>
       <use xlink:href="#DejaVuSans-6e" x="301.904297"/>
       <use xlink:href="#DejaVuSans-20" x="365.283203"/>
       <use xlink:href="#DejaVuSans-6d" x="397.070312"/>
       <use xlink:href="#DejaVuSans-6f" x="494.482422"/>
       <use xlink:href="#DejaVuSans-76" x="555.664062"/>
       <use xlink:href="#DejaVuSans-65" x="614.84375"/>
       <use xlink:href="#DejaVuSans-6d" x="676.367188"/>
       <use xlink:href="#DejaVuSans-65" x="773.779297"/>
       <use xlink:href="#DejaVuSans-6e" x="835.302734"/>
       <use xlink:href="#DejaVuSans-74" x="898.681641"/>
      </g>
     </g>
    </g>
    <g id="xtick_22">
     <g id="line2d_45">
      <path d="M 162.938096 498.027846 
L 173.318966 508.408716 
L 183.699837 518.789587 
L 194.080707 529.170457 
L 204.461577 539.551327 
L 214.842447 549.932197 
L 225.223318 560.313068 
L 235.604188 570.693938 
L 245.985058 581.074808 
" clip-path="url(#p07bc7f2433)" style="fill: none; stroke: #b0b0b0; stroke-width: 0.8; stroke-linecap: square"/>
     </g>
     <g id="text_37">
      <!-- politician -->
      <g transform="translate(233.152522 593.733678) scale(0.1 -0.1)">
       <use xlink:href="#DejaVuSans-70"/>
       <use xlink:href="#DejaVuSans-6f" x="63.476562"/>
       <use xlink:href="#DejaVuSans-6c" x="124.658203"/>
       <use xlink:href="#DejaVuSans-69" x="152.441406"/>
       <use xlink:href="#DejaVuSans-74" x="180.224609"/>
       <use xlink:href="#DejaVuSans-69" x="219.433594"/>
       <use xlink:href="#DejaVuSans-63" x="247.216797"/>
       <use xlink:href="#DejaVuSans-69" x="302.197266"/>
       <use xlink:href="#DejaVuSans-61" x="329.980469"/>
       <use xlink:href="#DejaVuSans-6e" x="391.259766"/>
      </g>
     </g>
    </g>
    <g id="xtick_23">
     <g id="line2d_46">
      <path d="M 162.938096 498.027846 
L 177.618864 498.027846 
L 192.299631 498.027846 
L 206.980399 498.027846 
L 221.661166 498.027846 
L 236.341934 498.027846 
L 251.022701 498.027846 
L 265.703469 498.027846 
L 280.384236 498.027846 
" clip-path="url(#p07bc7f2433)" style="fill: none; stroke: #b0b0b0; stroke-width: 0.8; stroke-linecap: square"/>
     </g>
     <g id="text_38">
      <!-- job -->
      <g transform="translate(286.76158 500.787221) scale(0.1 -0.1)">
       <use xlink:href="#DejaVuSans-6a"/>
       <use xlink:href="#DejaVuSans-6f" x="27.783203"/>
       <use xlink:href="#DejaVuSans-62" x="88.964844"/>
      </g>
     </g>
    </g>
    <g id="xtick_24">
     <g id="line2d_47">
      <path d="M 162.938096 498.027846 
L 173.318966 487.646976 
L 183.699837 477.266106 
L 194.080707 466.885235 
L 204.461577 456.504365 
L 214.842447 446.123495 
L 225.223318 435.742625 
L 235.604188 425.361754 
L 245.985058 414.980884 
" clip-path="url(#p07bc7f2433)" style="fill: none; stroke: #b0b0b0; stroke-width: 0.8; stroke-linecap: square"/>
     </g>
     <g id="text_39">
      <!-- choice -->
      <g transform="translate(239.692366 407.840764) scale(0.1 -0.1)">
       <use xlink:href="#DejaVuSans-63"/>
       <use xlink:href="#DejaVuSans-68" x="54.980469"/>
       <use xlink:href="#DejaVuSans-6f" x="118.359375"/>
       <use xlink:href="#DejaVuSans-69" x="179.541016"/>
       <use xlink:href="#DejaVuSans-63" x="207.324219"/>
       <use xlink:href="#DejaVuSans-65" x="262.304688"/>
      </g>
     </g>
    </g>
   </g>
   <g id="matplotlib.axis_6">
    <g id="ytick_9">
     <g id="line2d_48">
      <path d="M 162.938096 466.477244 
L 140.628452 475.718202 
L 131.387494 498.027846 
L 140.628452 520.337491 
L 162.938096 529.578448 
L 185.247741 520.337491 
L 194.488698 498.027846 
L 185.247741 475.718202 
L 162.938096 466.477244 
" clip-path="url(#p07bc7f2433)" style="fill: none; stroke: #b0b0b0; stroke-width: 0.8; stroke-linecap: square"/>
     </g>
     <g id="text_40">
      <!-- 0.2 -->
      <g transform="translate(150.864204 466.799203) scale(0.1 -0.1)">
       <use xlink:href="#DejaVuSans-30"/>
       <use xlink:href="#DejaVuSans-2e" x="63.623047"/>
       <use xlink:href="#DejaVuSans-32" x="95.410156"/>
      </g>
     </g>
    </g>
    <g id="ytick_10">
     <g id="line2d_49">
      <path d="M 162.938096 434.926643 
L 118.318807 453.408557 
L 99.836893 498.027846 
L 118.318807 542.647135 
L 162.938096 561.12905 
L 207.557385 542.647135 
L 226.0393 498.027846 
L 207.557385 453.408557 
L 162.938096 434.926643 
" clip-path="url(#p07bc7f2433)" style="fill: none; stroke: #b0b0b0; stroke-width: 0.8; stroke-linecap: square"/>
     </g>
     <g id="text_41">
      <!-- 0.4 -->
      <g transform="translate(138.790311 437.650248) scale(0.1 -0.1)">
       <use xlink:href="#DejaVuSans-30"/>
       <use xlink:href="#DejaVuSans-2e" x="63.623047"/>
       <use xlink:href="#DejaVuSans-34" x="95.410156"/>
      </g>
     </g>
    </g>
    <g id="ytick_11">
     <g id="line2d_50">
      <path d="M 162.938096 403.376041 
L 96.009163 431.098913 
L 68.286291 498.027846 
L 96.009163 564.95678 
L 162.938096 592.679652 
L 229.86703 564.95678 
L 257.589902 498.027846 
L 229.86703 431.098913 
L 162.938096 403.376041 
" clip-path="url(#p07bc7f2433)" style="fill: none; stroke: #b0b0b0; stroke-width: 0.8; stroke-linecap: square"/>
     </g>
     <g id="text_42">
      <!-- 0.6 -->
      <g transform="translate(126.716418 408.501293) scale(0.1 -0.1)">
       <use xlink:href="#DejaVuSans-30"/>
       <use xlink:href="#DejaVuSans-2e" x="63.623047"/>
       <use xlink:href="#DejaVuSans-36" x="95.410156"/>
      </g>
     </g>
    </g>
   </g>
   <g id="line2d_51">
    <path d="M 162.938096 498.027846 
L 162.938096 498.027846 
L 162.938096 498.027846 
L 162.938096 498.027846 
L 162.938096 498.027846 
L 162.938096 498.027846 
L 162.938096 498.027846 
L 162.938096 498.027846 
L 162.938096 498.027846 
" clip-path="url(#p07bc7f2433)" style="fill: none; stroke: #ffc100; stroke-linecap: square"/>
   </g>
   <g id="line2d_52">
    <path d="M 162.938096 407.885595 
L 124.915002 460.004752 
L 129.499017 498.027846 
L 87.594121 573.371821 
L 162.938096 590.213234 
L 224.237816 559.327566 
L 250.632923 498.027846 
L 235.47322 425.492722 
L 162.938096 407.885595 
" clip-path="url(#p07bc7f2433)" style="fill: none; stroke: #ff4d00; stroke-linecap: square"/>
   </g>
   <g id="line2d_53">
    <path d="M 162.938096 405.632483 
L 128.069363 463.159113 
L 126.670079 498.027846 
L 94.754187 566.211755 
L 162.938096 592.442131 
L 219.516978 554.606728 
L 240.220136 498.027846 
L 241.637676 419.328266 
L 162.938096 405.632483 
" clip-path="url(#p07bc7f2433)" style="fill: none; stroke: #ff0000; stroke-linecap: square"/>
   </g>
   <g id="line2d_54">
    <path d="M 162.938096 498.027846 
L 162.938096 498.027846 
L 162.938096 498.027846 
L 162.938096 498.027846 
L 162.938096 498.027846 
L 162.938096 498.027846 
L 162.938096 498.027846 
L 162.938096 498.027846 
L 162.938096 498.027846 
" clip-path="url(#p07bc7f2433)" style="fill: none; stroke: #8c0000; stroke-linecap: square"/>
   </g>
   <g id="line2d_55">
    <path d="M 162.938096 413.836016 
L 122.680739 457.770489 
L 119.671834 498.027846 
L 92.121354 568.844589 
L 162.938096 609.881313 
L 229.336874 564.426624 
L 242.871164 498.027846 
L 240.047744 420.918198 
L 162.938096 413.836016 
" clip-path="url(#p07bc7f2433)" style="fill: none; stroke: #360101; stroke-linecap: square"/>
   </g>
   <g id="patch_8">
    <path d="M 162.938096 380.581706 
L 79.891134 414.980884 
L 45.491956 498.027846 
L 79.891134 581.074808 
L 162.938096 615.473986 
L 245.985058 581.074808 
L 280.384236 498.027846 
L 245.985058 414.980884 
L 162.938096 380.581706 
z
" style="fill: none; stroke: #000000; stroke-width: 0.8; stroke-linejoin: miter; stroke-linecap: square"/>
   </g>
   <g id="text_43">
    <!-- Iran -->
    <g transform="translate(151.678721 358.502019) scale(0.1 -0.1)">
     <defs>
      <path id="DejaVuSans-Bold-49" d="M 588 4666 
L 1791 4666 
L 1791 0 
L 588 0 
L 588 4666 
z
" transform="scale(0.015625)"/>
     </defs>
     <use xlink:href="#DejaVuSans-Bold-49"/>
     <use xlink:href="#DejaVuSans-Bold-72" x="37.207031"/>
     <use xlink:href="#DejaVuSans-Bold-61" x="86.523438"/>
     <use xlink:href="#DejaVuSans-Bold-6e" x="154.003906"/>
    </g>
   </g>
  </g>
  <g id="axes_4">
   <g id="patch_9">
    <path d="M 466.924288 380.581706 
L 383.877327 414.980884 
L 349.478149 498.027846 
L 383.877327 581.074808 
L 466.924288 615.473986 
L 549.97125 581.074808 
L 584.370428 498.027846 
L 549.97125 414.980884 
z
" style="fill: #ffffff"/>
   </g>
   <g id="matplotlib.axis_7">
    <g id="xtick_25">
     <g id="line2d_56">
      <path d="M 466.924288 498.027846 
L 466.924288 483.347079 
L 466.924288 468.666311 
L 466.924288 453.985544 
L 466.924288 439.304776 
L 466.924288 424.624009 
L 466.924288 409.943241 
L 466.924288 395.262474 
L 466.924288 380.581706 
" clip-path="url(#pd38b87ec0a)" style="fill: none; stroke: #b0b0b0; stroke-width: 0.8; stroke-linecap: square"/>
     </g>
     <g id="text_44">
      <!-- abortion -->
      <g transform="translate(445.99382 369.341081) scale(0.1 -0.1)">
       <use xlink:href="#DejaVuSans-61"/>
       <use xlink:href="#DejaVuSans-62" x="61.279297"/>
       <use xlink:href="#DejaVuSans-6f" x="124.755859"/>
       <use xlink:href="#DejaVuSans-72" x="185.9375"/>
       <use xlink:href="#DejaVuSans-74" x="227.050781"/>
       <use xlink:href="#DejaVuSans-69" x="266.259766"/>
       <use xlink:href="#DejaVuSans-6f" x="294.042969"/>
       <use xlink:href="#DejaVuSans-6e" x="355.224609"/>
      </g>
     </g>
    </g>
    <g id="xtick_26">
     <g id="line2d_57">
      <path d="M 466.924288 498.027846 
L 456.543418 487.646976 
L 446.162548 477.266106 
L 435.781678 466.885235 
L 425.400808 456.504365 
L 415.019937 446.123495 
L 404.639067 435.742625 
L 394.258197 425.361754 
L 383.877327 414.980884 
" clip-path="url(#pd38b87ec0a)" style="fill: none; stroke: #b0b0b0; stroke-width: 0.8; stroke-linecap: square"/>
     </g>
     <g id="text_45">
      <!-- divorce -->
      <g transform="translate(355.62705 407.840764) scale(0.1 -0.1)">
       <use xlink:href="#DejaVuSans-64"/>
       <use xlink:href="#DejaVuSans-69" x="63.476562"/>
       <use xlink:href="#DejaVuSans-76" x="91.259766"/>
       <use xlink:href="#DejaVuSans-6f" x="150.439453"/>
       <use xlink:href="#DejaVuSans-72" x="211.621094"/>
       <use xlink:href="#DejaVuSans-63" x="250.484375"/>
       <use xlink:href="#DejaVuSans-65" x="305.464844"/>
      </g>
     </g>
    </g>
    <g id="xtick_27">
     <g id="line2d_58">
      <path d="M 466.924288 498.027846 
L 452.243521 498.027846 
L 437.562753 498.027846 
L 422.881986 498.027846 
L 408.201219 498.027846 
L 393.520451 498.027846 
L 378.839684 498.027846 
L 364.158916 498.027846 
L 349.478149 498.027846 
" clip-path="url(#pd38b87ec0a)" style="fill: none; stroke: #b0b0b0; stroke-width: 0.8; stroke-linecap: square"/>
     </g>
     <g id="text_46">
      <!-- $$$ -->
      <g transform="translate(325.934399 500.787221) scale(0.1 -0.1)">
       <use xlink:href="#DejaVuSans-24"/>
       <use xlink:href="#DejaVuSans-24" x="63.623047"/>
       <use xlink:href="#DejaVuSans-24" x="127.246094"/>
      </g>
     </g>
    </g>
    <g id="xtick_28">
     <g id="line2d_59">
      <path d="M 466.924288 498.027846 
L 456.543418 508.408716 
L 446.162548 518.789587 
L 435.781678 529.170457 
L 425.400808 539.551327 
L 415.019937 549.932197 
L 404.639067 560.313068 
L 394.258197 570.693938 
L 383.877327 581.074808 
" clip-path="url(#pd38b87ec0a)" style="fill: none; stroke: #b0b0b0; stroke-width: 0.8; stroke-linecap: square"/>
     </g>
     <g id="text_47">
      <!-- university -->
      <g transform="translate(349.246582 593.733678) scale(0.1 -0.1)">
       <use xlink:href="#DejaVuSans-75"/>
       <use xlink:href="#DejaVuSans-6e" x="63.378906"/>
       <use xlink:href="#DejaVuSans-69" x="126.757812"/>
       <use xlink:href="#DejaVuSans-76" x="154.541016"/>
       <use xlink:href="#DejaVuSans-65" x="213.720703"/>
       <use xlink:href="#DejaVuSans-72" x="275.244141"/>
       <use xlink:href="#DejaVuSans-73" x="316.357422"/>
       <use xlink:href="#DejaVuSans-69" x="368.457031"/>
       <use xlink:href="#DejaVuSans-74" x="396.240234"/>
       <use xlink:href="#DejaVuSans-79" x="435.449219"/>
      </g>
     </g>
    </g>
    <g id="xtick_29">
     <g id="line2d_60">
      <path d="M 466.924288 498.027846 
L 466.924288 512.708614 
L 466.924288 527.389381 
L 466.924288 542.070149 
L 466.924288 556.750916 
L 466.924288 571.431684 
L 466.924288 586.112451 
L 466.924288 600.793219 
L 466.924288 615.473986 
" clip-path="url(#pd38b87ec0a)" style="fill: none; stroke: #b0b0b0; stroke-width: 0.8; stroke-linecap: square"/>
     </g>
     <g id="text_48">
      <!-- women movement -->
      <g transform="translate(420.029757 632.233361) scale(0.1 -0.1)">
       <use xlink:href="#DejaVuSans-77"/>
       <use xlink:href="#DejaVuSans-6f" x="81.787109"/>
       <use xlink:href="#DejaVuSans-6d" x="142.96875"/>
       <use xlink:href="#DejaVuSans-65" x="240.380859"/>
       <use xlink:href="#DejaVuSans-6e" x="301.904297"/>
       <use xlink:href="#DejaVuSans-20" x="365.283203"/>
       <use xlink:href="#DejaVuSans-6d" x="397.070312"/>
       <use xlink:href="#DejaVuSans-6f" x="494.482422"/>
       <use xlink:href="#DejaVuSans-76" x="555.664062"/>
       <use xlink:href="#DejaVuSans-65" x="614.84375"/>
       <use xlink:href="#DejaVuSans-6d" x="676.367188"/>
       <use xlink:href="#DejaVuSans-65" x="773.779297"/>
       <use xlink:href="#DejaVuSans-6e" x="835.302734"/>
       <use xlink:href="#DejaVuSans-74" x="898.681641"/>
      </g>
     </g>
    </g>
    <g id="xtick_30">
     <g id="line2d_61">
      <path d="M 466.924288 498.027846 
L 477.305159 508.408716 
L 487.686029 518.789587 
L 498.066899 529.170457 
L 508.447769 539.551327 
L 518.82864 549.932197 
L 529.20951 560.313068 
L 539.59038 570.693938 
L 549.97125 581.074808 
" clip-path="url(#pd38b87ec0a)" style="fill: none; stroke: #b0b0b0; stroke-width: 0.8; stroke-linecap: square"/>
     </g>
     <g id="text_49">
      <!-- politician -->
      <g transform="translate(537.138714 593.733678) scale(0.1 -0.1)">
       <use xlink:href="#DejaVuSans-70"/>
       <use xlink:href="#DejaVuSans-6f" x="63.476562"/>
       <use xlink:href="#DejaVuSans-6c" x="124.658203"/>
       <use xlink:href="#DejaVuSans-69" x="152.441406"/>
       <use xlink:href="#DejaVuSans-74" x="180.224609"/>
       <use xlink:href="#DejaVuSans-69" x="219.433594"/>
       <use xlink:href="#DejaVuSans-63" x="247.216797"/>
       <use xlink:href="#DejaVuSans-69" x="302.197266"/>
       <use xlink:href="#DejaVuSans-61" x="329.980469"/>
       <use xlink:href="#DejaVuSans-6e" x="391.259766"/>
      </g>
     </g>
    </g>
    <g id="xtick_31">
     <g id="line2d_62">
      <path d="M 466.924288 498.027846 
L 481.605056 498.027846 
L 496.285823 498.027846 
L 510.966591 498.027846 
L 525.647358 498.027846 
L 540.328126 498.027846 
L 555.008893 498.027846 
L 569.689661 498.027846 
L 584.370428 498.027846 
" clip-path="url(#pd38b87ec0a)" style="fill: none; stroke: #b0b0b0; stroke-width: 0.8; stroke-linecap: square"/>
     </g>
     <g id="text_50">
      <!-- job -->
      <g transform="translate(590.747772 500.787221) scale(0.1 -0.1)">
       <use xlink:href="#DejaVuSans-6a"/>
       <use xlink:href="#DejaVuSans-6f" x="27.783203"/>
       <use xlink:href="#DejaVuSans-62" x="88.964844"/>
      </g>
     </g>
    </g>
    <g id="xtick_32">
     <g id="line2d_63">
      <path d="M 466.924288 498.027846 
L 477.305159 487.646976 
L 487.686029 477.266106 
L 498.066899 466.885235 
L 508.447769 456.504365 
L 518.82864 446.123495 
L 529.20951 435.742625 
L 539.59038 425.361754 
L 549.97125 414.980884 
" clip-path="url(#pd38b87ec0a)" style="fill: none; stroke: #b0b0b0; stroke-width: 0.8; stroke-linecap: square"/>
     </g>
     <g id="text_51">
      <!-- choice -->
      <g transform="translate(543.678558 407.840764) scale(0.1 -0.1)">
       <use xlink:href="#DejaVuSans-63"/>
       <use xlink:href="#DejaVuSans-68" x="54.980469"/>
       <use xlink:href="#DejaVuSans-6f" x="118.359375"/>
       <use xlink:href="#DejaVuSans-69" x="179.541016"/>
       <use xlink:href="#DejaVuSans-63" x="207.324219"/>
       <use xlink:href="#DejaVuSans-65" x="262.304688"/>
      </g>
     </g>
    </g>
   </g>
   <g id="matplotlib.axis_8">
    <g id="ytick_12">
     <g id="line2d_64">
      <path d="M 466.924288 470.027738 
L 447.125222 478.22878 
L 438.92418 498.027846 
L 447.125222 517.826912 
L 466.924288 526.027954 
L 486.723355 517.826912 
L 494.924396 498.027846 
L 486.723355 478.22878 
L 466.924288 470.027738 
" clip-path="url(#pd38b87ec0a)" style="fill: none; stroke: #b0b0b0; stroke-width: 0.8; stroke-linecap: square"/>
     </g>
     <g id="text_52">
      <!-- 0.2 -->
      <g transform="translate(456.209111 470.079432) scale(0.1 -0.1)">
       <use xlink:href="#DejaVuSans-30"/>
       <use xlink:href="#DejaVuSans-2e" x="63.623047"/>
       <use xlink:href="#DejaVuSans-32" x="95.410156"/>
      </g>
     </g>
    </g>
    <g id="ytick_13">
     <g id="line2d_65">
      <path d="M 466.924288 442.02763 
L 427.326156 458.429714 
L 410.924072 498.027846 
L 427.326156 537.625979 
L 466.924288 554.028062 
L 506.522421 537.625979 
L 522.924504 498.027846 
L 506.522421 458.429714 
L 466.924288 442.02763 
" clip-path="url(#pd38b87ec0a)" style="fill: none; stroke: #b0b0b0; stroke-width: 0.8; stroke-linecap: square"/>
     </g>
     <g id="text_53">
      <!-- 0.4 -->
      <g transform="translate(445.493934 444.210705) scale(0.1 -0.1)">
       <use xlink:href="#DejaVuSans-30"/>
       <use xlink:href="#DejaVuSans-2e" x="63.623047"/>
       <use xlink:href="#DejaVuSans-34" x="95.410156"/>
      </g>
     </g>
    </g>
    <g id="ytick_14">
     <g id="line2d_66">
      <path d="M 466.924288 414.027522 
L 407.52709 438.630647 
L 382.923964 498.027846 
L 407.52709 557.425045 
L 466.924288 582.02817 
L 526.321487 557.425045 
L 550.924612 498.027846 
L 526.321487 438.630647 
L 466.924288 414.027522 
" clip-path="url(#pd38b87ec0a)" style="fill: none; stroke: #b0b0b0; stroke-width: 0.8; stroke-linecap: square"/>
     </g>
     <g id="text_54">
      <!-- 0.6 -->
      <g transform="translate(434.778756 418.341979) scale(0.1 -0.1)">
       <use xlink:href="#DejaVuSans-30"/>
       <use xlink:href="#DejaVuSans-2e" x="63.623047"/>
       <use xlink:href="#DejaVuSans-36" x="95.410156"/>
      </g>
     </g>
    </g>
    <g id="ytick_15">
     <g id="line2d_67">
      <path d="M 466.924288 386.027414 
L 387.728024 418.831581 
L 354.923857 498.027846 
L 387.728024 577.224111 
L 466.924288 610.028278 
L 546.120553 577.224111 
L 578.92472 498.027846 
L 546.120553 418.831581 
L 466.924288 386.027414 
" clip-path="url(#pd38b87ec0a)" style="fill: none; stroke: #b0b0b0; stroke-width: 0.8; stroke-linecap: square"/>
     </g>
     <g id="text_55">
      <!-- 0.8 -->
      <g transform="translate(424.063579 392.473252) scale(0.1 -0.1)">
       <use xlink:href="#DejaVuSans-30"/>
       <use xlink:href="#DejaVuSans-2e" x="63.623047"/>
       <use xlink:href="#DejaVuSans-38" x="95.410156"/>
      </g>
     </g>
    </g>
   </g>
   <g id="line2d_68">
    <path d="M 466.924288 412.523494 
L 429.767073 460.87063 
L 430.781224 498.027846 
L 388.859466 576.092669 
L 466.924288 587.689811 
L 526.670524 557.774082 
L 567.104514 498.027846 
L 532.866517 432.085618 
L 466.924288 412.523494 
" clip-path="url(#pd38b87ec0a)" style="fill: none; stroke: #ffc100; stroke-linecap: square"/>
   </g>
   <g id="line2d_69">
    <path d="M 466.924288 420.50678 
L 427.371339 458.474896 
L 429.512004 498.027846 
L 387.831944 577.120191 
L 466.924288 589.977083 
L 532.337566 563.441124 
L 569.118506 498.027846 
L 535.692382 429.259752 
L 466.924288 420.50678 
" clip-path="url(#pd38b87ec0a)" style="fill: none; stroke: #ff4d00; stroke-linecap: square"/>
   </g>
   <g id="line2d_70">
    <path d="M 466.924288 418.575026 
L 425.560357 456.663915 
L 427.069386 498.027846 
L 388.292921 576.659214 
L 466.924288 596.673478 
L 528.776619 559.880176 
L 566.924674 498.027846 
L 544.410059 420.542075 
L 466.924288 418.575026 
" clip-path="url(#pd38b87ec0a)" style="fill: none; stroke: #ff0000; stroke-linecap: square"/>
   </g>
   <g id="line2d_71">
    <path d="M 466.924288 418.060271 
L 419.03712 450.140677 
L 407.106709 498.027846 
L 398.656395 566.295739 
L 466.924288 589.337527 
L 526.758946 557.862504 
L 568.781746 498.027846 
L 538.213889 426.738246 
L 466.924288 418.060271 
" clip-path="url(#pd38b87ec0a)" style="fill: none; stroke: #8c0000; stroke-linecap: square"/>
   </g>
   <g id="line2d_72">
    <path d="M 466.924288 498.027846 
L 466.924288 498.027846 
L 466.924288 498.027846 
L 466.924288 498.027846 
L 466.924288 498.027846 
L 466.924288 498.027846 
L 466.924288 498.027846 
L 466.924288 498.027846 
L 466.924288 498.027846 
" clip-path="url(#pd38b87ec0a)" style="fill: none; stroke: #360101; stroke-linecap: square"/>
   </g>
   <g id="patch_10">
    <path d="M 466.924288 380.581706 
L 383.877327 414.980884 
L 349.478149 498.027846 
L 383.877327 581.074808 
L 466.924288 615.473986 
L 549.97125 581.074808 
L 584.370428 498.027846 
L 549.97125 414.980884 
L 466.924288 380.581706 
z
" style="fill: none; stroke: #000000; stroke-width: 0.8; stroke-linejoin: miter; stroke-linecap: square"/>
   </g>
   <g id="text_56">
    <!-- South Africa -->
    <g transform="translate(432.076632 358.502019) scale(0.1 -0.1)">
     <defs>
      <path id="DejaVuSans-Bold-53" d="M 3834 4519 
L 3834 3531 
Q 3450 3703 3084 3790 
Q 2719 3878 2394 3878 
Q 1963 3878 1756 3759 
Q 1550 3641 1550 3391 
Q 1550 3203 1689 3098 
Q 1828 2994 2194 2919 
L 2706 2816 
Q 3484 2659 3812 2340 
Q 4141 2022 4141 1434 
Q 4141 663 3683 286 
Q 3225 -91 2284 -91 
Q 1841 -91 1394 -6 
Q 947 78 500 244 
L 500 1259 
Q 947 1022 1364 901 
Q 1781 781 2169 781 
Q 2563 781 2772 912 
Q 2981 1044 2981 1288 
Q 2981 1506 2839 1625 
Q 2697 1744 2272 1838 
L 1806 1941 
Q 1106 2091 782 2419 
Q 459 2747 459 3303 
Q 459 4000 909 4375 
Q 1359 4750 2203 4750 
Q 2588 4750 2994 4692 
Q 3400 4634 3834 4519 
z
" transform="scale(0.015625)"/>
      <path id="DejaVuSans-Bold-6f" d="M 2203 2784 
Q 1831 2784 1636 2517 
Q 1441 2250 1441 1747 
Q 1441 1244 1636 976 
Q 1831 709 2203 709 
Q 2569 709 2762 976 
Q 2956 1244 2956 1747 
Q 2956 2250 2762 2517 
Q 2569 2784 2203 2784 
z
M 2203 3584 
Q 3106 3584 3614 3096 
Q 4122 2609 4122 1747 
Q 4122 884 3614 396 
Q 3106 -91 2203 -91 
Q 1297 -91 786 396 
Q 275 884 275 1747 
Q 275 2609 786 3096 
Q 1297 3584 2203 3584 
z
" transform="scale(0.015625)"/>
      <path id="DejaVuSans-Bold-75" d="M 500 1363 
L 500 3500 
L 1625 3500 
L 1625 3150 
Q 1625 2866 1622 2436 
Q 1619 2006 1619 1863 
Q 1619 1441 1641 1255 
Q 1663 1069 1716 984 
Q 1784 875 1895 815 
Q 2006 756 2150 756 
Q 2500 756 2700 1025 
Q 2900 1294 2900 1772 
L 2900 3500 
L 4019 3500 
L 4019 0 
L 2900 0 
L 2900 506 
Q 2647 200 2364 54 
Q 2081 -91 1741 -91 
Q 1134 -91 817 281 
Q 500 653 500 1363 
z
" transform="scale(0.015625)"/>
      <path id="DejaVuSans-Bold-74" d="M 1759 4494 
L 1759 3500 
L 2913 3500 
L 2913 2700 
L 1759 2700 
L 1759 1216 
Q 1759 972 1856 886 
Q 1953 800 2241 800 
L 2816 800 
L 2816 0 
L 1856 0 
Q 1194 0 917 276 
Q 641 553 641 1216 
L 641 2700 
L 84 2700 
L 84 3500 
L 641 3500 
L 641 4494 
L 1759 4494 
z
" transform="scale(0.015625)"/>
      <path id="DejaVuSans-Bold-20" transform="scale(0.015625)"/>
      <path id="DejaVuSans-Bold-41" d="M 3419 850 
L 1538 850 
L 1241 0 
L 31 0 
L 1759 4666 
L 3194 4666 
L 4922 0 
L 3713 0 
L 3419 850 
z
M 1838 1716 
L 3116 1716 
L 2478 3572 
L 1838 1716 
z
" transform="scale(0.015625)"/>
      <path id="DejaVuSans-Bold-66" d="M 2841 4863 
L 2841 4128 
L 2222 4128 
Q 1984 4128 1890 4042 
Q 1797 3956 1797 3744 
L 1797 3500 
L 2753 3500 
L 2753 2700 
L 1797 2700 
L 1797 0 
L 678 0 
L 678 2700 
L 122 2700 
L 122 3500 
L 678 3500 
L 678 3744 
Q 678 4316 997 4589 
Q 1316 4863 1984 4863 
L 2841 4863 
z
" transform="scale(0.015625)"/>
      <path id="DejaVuSans-Bold-63" d="M 3366 3391 
L 3366 2478 
Q 3138 2634 2908 2709 
Q 2678 2784 2431 2784 
Q 1963 2784 1702 2511 
Q 1441 2238 1441 1747 
Q 1441 1256 1702 982 
Q 1963 709 2431 709 
Q 2694 709 2930 787 
Q 3166 866 3366 1019 
L 3366 103 
Q 3103 6 2833 -42 
Q 2563 -91 2291 -91 
Q 1344 -91 809 395 
Q 275 881 275 1747 
Q 275 2613 809 3098 
Q 1344 3584 2291 3584 
Q 2566 3584 2833 3536 
Q 3100 3488 3366 3391 
z
" transform="scale(0.015625)"/>
     </defs>
     <use xlink:href="#DejaVuSans-Bold-53"/>
     <use xlink:href="#DejaVuSans-Bold-6f" x="72.021484"/>
     <use xlink:href="#DejaVuSans-Bold-75" x="140.722656"/>
     <use xlink:href="#DejaVuSans-Bold-74" x="211.914062"/>
     <use xlink:href="#DejaVuSans-Bold-68" x="259.716797"/>
     <use xlink:href="#DejaVuSans-Bold-20" x="330.908203"/>
     <use xlink:href="#DejaVuSans-Bold-41" x="365.722656"/>
     <use xlink:href="#DejaVuSans-Bold-66" x="443.115234"/>
     <use xlink:href="#DejaVuSans-Bold-72" x="486.621094"/>
     <use xlink:href="#DejaVuSans-Bold-69" x="535.9375"/>
     <use xlink:href="#DejaVuSans-Bold-63" x="570.214844"/>
     <use xlink:href="#DejaVuSans-Bold-61" x="629.492188"/>
    </g>
   </g>
  </g>
  <g id="text_57">
   <!-- Mean-Answers per Country per Wave -->
   <g transform="translate(198.283125 32.4) scale(0.12 -0.12)">
    <defs>
     <path id="DejaVuSans-Bold-4d" d="M 588 4666 
L 2119 4666 
L 3181 2169 
L 4250 4666 
L 5778 4666 
L 5778 0 
L 4641 0 
L 4641 3413 
L 3566 897 
L 2803 897 
L 1728 3413 
L 1728 0 
L 588 0 
L 588 4666 
z
" transform="scale(0.015625)"/>
     <path id="DejaVuSans-Bold-2d" d="M 347 2297 
L 2309 2297 
L 2309 1388 
L 347 1388 
L 347 2297 
z
" transform="scale(0.015625)"/>
     <path id="DejaVuSans-Bold-73" d="M 3272 3391 
L 3272 2541 
Q 2913 2691 2578 2766 
Q 2244 2841 1947 2841 
Q 1628 2841 1473 2761 
Q 1319 2681 1319 2516 
Q 1319 2381 1436 2309 
Q 1553 2238 1856 2203 
L 2053 2175 
Q 2913 2066 3209 1816 
Q 3506 1566 3506 1031 
Q 3506 472 3093 190 
Q 2681 -91 1863 -91 
Q 1516 -91 1145 -36 
Q 775 19 384 128 
L 384 978 
Q 719 816 1070 734 
Q 1422 653 1784 653 
Q 2113 653 2278 743 
Q 2444 834 2444 1013 
Q 2444 1163 2330 1236 
Q 2216 1309 1875 1350 
L 1678 1375 
Q 931 1469 631 1722 
Q 331 1975 331 2491 
Q 331 3047 712 3315 
Q 1094 3584 1881 3584 
Q 2191 3584 2531 3537 
Q 2872 3491 3272 3391 
z
" transform="scale(0.015625)"/>
     <path id="DejaVuSans-Bold-77" d="M 225 3500 
L 1313 3500 
L 1900 1088 
L 2491 3500 
L 3425 3500 
L 4013 1113 
L 4603 3500 
L 5691 3500 
L 4769 0 
L 3547 0 
L 2956 2406 
L 2369 0 
L 1147 0 
L 225 3500 
z
" transform="scale(0.015625)"/>
     <path id="DejaVuSans-Bold-70" d="M 1656 506 
L 1656 -1331 
L 538 -1331 
L 538 3500 
L 1656 3500 
L 1656 2988 
Q 1888 3294 2169 3439 
Q 2450 3584 2816 3584 
Q 3463 3584 3878 3070 
Q 4294 2556 4294 1747 
Q 4294 938 3878 423 
Q 3463 -91 2816 -91 
Q 2450 -91 2169 54 
Q 1888 200 1656 506 
z
M 2400 2772 
Q 2041 2772 1848 2508 
Q 1656 2244 1656 1747 
Q 1656 1250 1848 986 
Q 2041 722 2400 722 
Q 2759 722 2948 984 
Q 3138 1247 3138 1747 
Q 3138 2247 2948 2509 
Q 2759 2772 2400 2772 
z
" transform="scale(0.015625)"/>
     <path id="DejaVuSans-Bold-57" d="M 191 4666 
L 1344 4666 
L 2150 1275 
L 2950 4666 
L 4109 4666 
L 4909 1275 
L 5716 4666 
L 6859 4666 
L 5759 0 
L 4372 0 
L 3525 3547 
L 2688 0 
L 1300 0 
L 191 4666 
z
" transform="scale(0.015625)"/>
     <path id="DejaVuSans-Bold-76" d="M 97 3500 
L 1216 3500 
L 2088 1081 
L 2956 3500 
L 4078 3500 
L 2700 0 
L 1472 0 
L 97 3500 
z
" transform="scale(0.015625)"/>
    </defs>
    <use xlink:href="#DejaVuSans-Bold-4d"/>
    <use xlink:href="#DejaVuSans-Bold-65" x="99.511719"/>
    <use xlink:href="#DejaVuSans-Bold-61" x="167.333984"/>
    <use xlink:href="#DejaVuSans-Bold-6e" x="234.814453"/>
    <use xlink:href="#DejaVuSans-Bold-2d" x="306.005859"/>
    <use xlink:href="#DejaVuSans-Bold-41" x="347.509766"/>
    <use xlink:href="#DejaVuSans-Bold-6e" x="424.902344"/>
    <use xlink:href="#DejaVuSans-Bold-73" x="496.09375"/>
    <use xlink:href="#DejaVuSans-Bold-77" x="555.615234"/>
    <use xlink:href="#DejaVuSans-Bold-65" x="647.998047"/>
    <use xlink:href="#DejaVuSans-Bold-72" x="715.820312"/>
    <use xlink:href="#DejaVuSans-Bold-73" x="765.136719"/>
    <use xlink:href="#DejaVuSans-Bold-20" x="824.658203"/>
    <use xlink:href="#DejaVuSans-Bold-70" x="859.472656"/>
    <use xlink:href="#DejaVuSans-Bold-65" x="931.054688"/>
    <use xlink:href="#DejaVuSans-Bold-72" x="998.876953"/>
    <use xlink:href="#DejaVuSans-Bold-20" x="1048.193359"/>
    <use xlink:href="#DejaVuSans-Bold-43" x="1083.007812"/>
    <use xlink:href="#DejaVuSans-Bold-6f" x="1156.396484"/>
    <use xlink:href="#DejaVuSans-Bold-75" x="1225.097656"/>
    <use xlink:href="#DejaVuSans-Bold-6e" x="1296.289062"/>
    <use xlink:href="#DejaVuSans-Bold-74" x="1367.480469"/>
    <use xlink:href="#DejaVuSans-Bold-72" x="1415.283203"/>
    <use xlink:href="#DejaVuSans-Bold-79" x="1464.599609"/>
    <use xlink:href="#DejaVuSans-Bold-20" x="1529.785156"/>
    <use xlink:href="#DejaVuSans-Bold-70" x="1564.599609"/>
    <use xlink:href="#DejaVuSans-Bold-65" x="1636.181641"/>
    <use xlink:href="#DejaVuSans-Bold-72" x="1704.003906"/>
    <use xlink:href="#DejaVuSans-Bold-20" x="1753.320312"/>
    <use xlink:href="#DejaVuSans-Bold-57" x="1788.134766"/>
    <use xlink:href="#DejaVuSans-Bold-61" x="1894.8125"/>
    <use xlink:href="#DejaVuSans-Bold-76" x="1962.292969"/>
    <use xlink:href="#DejaVuSans-Bold-65" x="2027.478516"/>
   </g>
  </g>
 </g>
 <defs>
  <clipPath id="p20aca692df">
   <path d="M 162.938096 89.597399 
L 79.891134 123.996577 
L 45.491956 207.043538 
L 79.891134 290.0905 
L 162.938096 324.489678 
L 245.985058 290.0905 
L 280.384236 207.043538 
L 245.985058 123.996577 
z
"/>
  </clipPath>
  <clipPath id="pb00c2ac64a">
   <path d="M 466.924288 89.597399 
L 383.877327 123.996577 
L 349.478149 207.043538 
L 383.877327 290.0905 
L 466.924288 324.489678 
L 549.97125 290.0905 
L 584.370428 207.043538 
L 549.97125 123.996577 
z
"/>
  </clipPath>
  <clipPath id="p07bc7f2433">
   <path d="M 162.938096 380.581706 
L 79.891134 414.980884 
L 45.491956 498.027846 
L 79.891134 581.074808 
L 162.938096 615.473986 
L 245.985058 581.074808 
L 280.384236 498.027846 
L 245.985058 414.980884 
z
"/>
  </clipPath>
  <clipPath id="pd38b87ec0a">
   <path d="M 466.924288 380.581706 
L 383.877327 414.980884 
L 349.478149 498.027846 
L 383.877327 581.074808 
L 466.924288 615.473986 
L 549.97125 581.074808 
L 584.370428 498.027846 
L 549.97125 414.980884 
z
"/>
  </clipPath>
 </defs>
</svg>
